<svg width="386" height="427" viewBox="0 0 386 427" fill="none" xmlns="http://www.w3.org/2000/svg">
<rect x="385.436" y="414.678" width="11.6527" height="385.434" transform="rotate(90 385.436 414.678)" fill="#000046"/>
<path d="M385.436 425L373.783 425L373.783 60.9524L385.436 71.5008L385.436 425Z" fill="#000046"/>
<path d="M385.436 3.87893e-06L385.436 11.6527L323.587 11.6527L335.239 -2.19414e-06L385.436 3.87893e-06Z" fill="#0028C8"/>
<path d="M385.436 3.92869e-06L373.783 -1.52806e-06L373.783 61.8487L385.436 50.1961L385.436 3.92869e-06Z" fill="#0028C8"/>
<path d="M11.6543 3.07948e-05L11.6543 11.6527L323.587 11.6526L311.554 3.57627e-06L11.6543 3.07948e-05Z" fill="#000046"/>
<path d="M0 0H12V424H0V0Z" fill="#000046"/>
</svg>
