<svg width="424" height="196" viewBox="0 0 424 196" fill="none" xmlns="http://www.w3.org/2000/svg">
<rect x="356.485" y="0.241821" width="6.18183" height="6.18183" transform="rotate(90 356.485 0.241821)" fill="white"/>
<rect x="356.485" y="0.241821" width="6.18183" height="6.18183" transform="rotate(90 356.485 0.241821)" fill="white"/>
<rect x="356.485" y="0.241821" width="6.18183" height="6.18183" transform="rotate(90 356.485 0.241821)" fill="white"/>
<rect x="356.485" y="0.241821" width="6.18183" height="6.18183" transform="rotate(90 356.485 0.241821)" fill="white"/>
<rect x="356.485" y="0.241821" width="6.18183" height="6.18183" transform="rotate(90 356.485 0.241821)" fill="white"/>
<rect x="356.485" y="0.241821" width="6.18183" height="6.18183" transform="rotate(90 356.485 0.241821)" fill="white"/>
<rect x="356.485" y="0.241821" width="6.18183" height="6.18183" transform="rotate(90 356.485 0.241821)" fill="white"/>
<rect x="356.485" y="0.241821" width="6.18183" height="6.18183" transform="rotate(90 356.485 0.241821)" fill="white"/>
<rect x="356.485" y="0.241821" width="6.18183" height="6.18183" transform="rotate(90 356.485 0.241821)" fill="white"/>
<rect x="356.485" y="0.241821" width="6.18183" height="6.18183" transform="rotate(90 356.485 0.241821)" fill="white"/>
<rect x="356.485" y="0.241821" width="6.18183" height="6.18183" transform="rotate(90 356.485 0.241821)" fill="white"/>
<rect x="356.485" y="0.241821" width="6.18183" height="6.18183" transform="rotate(90 356.485 0.241821)" fill="white"/>
<rect x="356.485" y="0.241821" width="6.18183" height="6.18183" transform="rotate(90 356.485 0.241821)" fill="white"/>
<rect x="356.485" y="0.241821" width="6.18183" height="6.18183" transform="rotate(90 356.485 0.241821)" fill="white"/>
<rect x="356.485" y="0.241821" width="6.18183" height="6.18183" transform="rotate(90 356.485 0.241821)" fill="white"/>
<rect x="356.485" y="0.241821" width="6.18183" height="6.18183" transform="rotate(90 356.485 0.241821)" fill="white"/>
<rect x="356.485" y="0.241821" width="6.18183" height="6.18183" transform="rotate(90 356.485 0.241821)" fill="white"/>
<rect x="356.485" y="0.241821" width="6.18183" height="6.18183" transform="rotate(90 356.485 0.241821)" fill="white"/>
<rect x="356.485" y="0.241821" width="6.18183" height="6.18183" transform="rotate(90 356.485 0.241821)" fill="white"/>
<rect x="356.485" y="0.241821" width="6.18183" height="6.18183" transform="rotate(90 356.485 0.241821)" fill="white"/>
<rect x="356.485" y="0.241821" width="6.18183" height="6.18183" transform="rotate(90 356.485 0.241821)" fill="white"/>
<rect x="356.485" y="0.241821" width="6.18183" height="6.18183" transform="rotate(90 356.485 0.241821)" fill="white"/>
<rect x="356.485" y="0.241821" width="6.18183" height="6.18183" transform="rotate(90 356.485 0.241821)" fill="white"/>
<rect x="356.485" y="0.241821" width="6.18183" height="6.18183" transform="rotate(90 356.485 0.241821)" fill="white"/>
<rect x="356.485" y="0.241821" width="6.18183" height="6.18183" transform="rotate(90 356.485 0.241821)" fill="white"/>
<rect x="356.485" y="0.241821" width="6.18183" height="6.18183" transform="rotate(90 356.485 0.241821)" fill="white"/>
<rect x="356.485" y="0.241821" width="6.18183" height="6.18183" transform="rotate(90 356.485 0.241821)" fill="white"/>
<rect x="356.485" y="0.241821" width="6.18183" height="6.18183" transform="rotate(90 356.485 0.241821)" fill="white"/>
<rect x="297.758" y="0.241821" width="6.18183" height="5.15153" transform="rotate(90 297.758 0.241821)" fill="white"/>
<rect x="297.758" y="0.241821" width="6.18183" height="5.15153" transform="rotate(90 297.758 0.241821)" fill="white"/>
<rect x="297.758" y="0.241821" width="6.18183" height="5.15153" transform="rotate(90 297.758 0.241821)" fill="white"/>
<rect x="297.758" y="0.241821" width="6.18183" height="5.15153" transform="rotate(90 297.758 0.241821)" fill="white"/>
<rect x="297.758" y="0.241821" width="6.18183" height="5.15153" transform="rotate(90 297.758 0.241821)" fill="white"/>
<rect x="297.758" y="0.241821" width="6.18183" height="5.15153" transform="rotate(90 297.758 0.241821)" fill="white"/>
<rect x="297.758" y="0.241821" width="6.18183" height="5.15153" transform="rotate(90 297.758 0.241821)" fill="white"/>
<rect x="297.758" y="0.241821" width="6.18183" height="5.15153" transform="rotate(90 297.758 0.241821)" fill="white"/>
<rect x="297.758" y="0.241821" width="6.18183" height="5.15153" transform="rotate(90 297.758 0.241821)" fill="white"/>
<rect x="297.758" y="0.241821" width="6.18183" height="5.15153" transform="rotate(90 297.758 0.241821)" fill="white"/>
<rect x="297.758" y="0.241821" width="6.18183" height="5.15153" transform="rotate(90 297.758 0.241821)" fill="white"/>
<rect x="297.758" y="0.241821" width="6.18183" height="5.15153" transform="rotate(90 297.758 0.241821)" fill="white"/>
<rect x="297.758" y="0.241821" width="6.18183" height="5.15153" transform="rotate(90 297.758 0.241821)" fill="white"/>
<rect x="297.758" y="0.241821" width="6.18183" height="5.15153" transform="rotate(90 297.758 0.241821)" fill="white"/>
<rect x="297.758" y="0.241821" width="6.18183" height="5.15153" transform="rotate(90 297.758 0.241821)" fill="white"/>
<rect x="297.758" y="0.241821" width="6.18183" height="5.15153" transform="rotate(90 297.758 0.241821)" fill="white"/>
<rect x="297.758" y="0.241821" width="6.18183" height="5.15153" transform="rotate(90 297.758 0.241821)" fill="white"/>
<rect x="297.758" y="0.241821" width="6.18183" height="5.15153" transform="rotate(90 297.758 0.241821)" fill="white"/>
<rect x="297.758" y="0.241821" width="6.18183" height="5.15153" transform="rotate(90 297.758 0.241821)" fill="white"/>
<rect x="297.758" y="0.241821" width="6.18183" height="5.15153" transform="rotate(90 297.758 0.241821)" fill="white"/>
<rect x="297.758" y="0.241821" width="6.18183" height="5.15153" transform="rotate(90 297.758 0.241821)" fill="white"/>
<rect x="297.758" y="0.241821" width="6.18183" height="5.15153" transform="rotate(90 297.758 0.241821)" fill="white"/>
<rect x="297.758" y="0.241821" width="6.18183" height="5.15153" transform="rotate(90 297.758 0.241821)" fill="white"/>
<rect x="297.758" y="0.241821" width="6.18183" height="5.15153" transform="rotate(90 297.758 0.241821)" fill="white"/>
<rect x="297.758" y="0.241821" width="6.18183" height="5.15153" transform="rotate(90 297.758 0.241821)" fill="white"/>
<rect x="297.758" y="0.241821" width="6.18183" height="5.15153" transform="rotate(90 297.758 0.241821)" fill="white"/>
<rect x="297.758" y="0.241821" width="6.18183" height="5.15153" transform="rotate(90 297.758 0.241821)" fill="white"/>
<rect x="297.758" y="0.241821" width="6.18183" height="5.15153" transform="rotate(90 297.758 0.241821)" fill="white"/>
<rect x="122.606" y="0.241821" width="6.18183" height="6.18183" transform="rotate(90 122.606 0.241821)" fill="white"/>
<rect x="122.606" y="0.241821" width="6.18183" height="6.18183" transform="rotate(90 122.606 0.241821)" fill="white"/>
<rect x="122.606" y="0.241821" width="6.18183" height="6.18183" transform="rotate(90 122.606 0.241821)" fill="white"/>
<rect x="122.606" y="0.241821" width="6.18183" height="6.18183" transform="rotate(90 122.606 0.241821)" fill="white"/>
<rect x="122.606" y="0.241821" width="6.18183" height="6.18183" transform="rotate(90 122.606 0.241821)" fill="white"/>
<rect x="122.606" y="0.241821" width="6.18183" height="6.18183" transform="rotate(90 122.606 0.241821)" fill="white"/>
<rect x="122.606" y="0.241821" width="6.18183" height="6.18183" transform="rotate(90 122.606 0.241821)" fill="white"/>
<rect x="122.606" y="0.241821" width="6.18183" height="6.18183" transform="rotate(90 122.606 0.241821)" fill="white"/>
<rect x="122.606" y="0.241821" width="6.18183" height="6.18183" transform="rotate(90 122.606 0.241821)" fill="white"/>
<rect x="122.606" y="0.241821" width="6.18183" height="6.18183" transform="rotate(90 122.606 0.241821)" fill="white"/>
<rect x="122.606" y="0.241821" width="6.18183" height="6.18183" transform="rotate(90 122.606 0.241821)" fill="white"/>
<rect x="122.606" y="0.241821" width="6.18183" height="6.18183" transform="rotate(90 122.606 0.241821)" fill="white"/>
<rect x="122.606" y="0.241821" width="6.18183" height="6.18183" transform="rotate(90 122.606 0.241821)" fill="white"/>
<rect x="122.606" y="0.241821" width="6.18183" height="6.18183" transform="rotate(90 122.606 0.241821)" fill="white"/>
<rect x="122.606" y="0.241821" width="6.18183" height="6.18183" transform="rotate(90 122.606 0.241821)" fill="white"/>
<rect x="122.606" y="0.241821" width="6.18183" height="6.18183" transform="rotate(90 122.606 0.241821)" fill="white"/>
<rect x="122.606" y="0.241821" width="6.18183" height="6.18183" transform="rotate(90 122.606 0.241821)" fill="white"/>
<rect x="122.606" y="0.241821" width="6.18183" height="6.18183" transform="rotate(90 122.606 0.241821)" fill="white"/>
<rect x="122.606" y="0.241821" width="6.18183" height="6.18183" transform="rotate(90 122.606 0.241821)" fill="white"/>
<rect x="122.606" y="0.241821" width="6.18183" height="6.18183" transform="rotate(90 122.606 0.241821)" fill="white"/>
<rect x="122.606" y="0.241821" width="6.18183" height="6.18183" transform="rotate(90 122.606 0.241821)" fill="white"/>
<rect x="122.606" y="0.241821" width="6.18183" height="6.18183" transform="rotate(90 122.606 0.241821)" fill="white"/>
<rect x="122.606" y="0.241821" width="6.18183" height="6.18183" transform="rotate(90 122.606 0.241821)" fill="white"/>
<rect x="122.606" y="0.241821" width="6.18183" height="6.18183" transform="rotate(90 122.606 0.241821)" fill="white"/>
<rect x="122.606" y="0.241821" width="6.18183" height="6.18183" transform="rotate(90 122.606 0.241821)" fill="white"/>
<rect x="122.606" y="0.241821" width="6.18183" height="6.18183" transform="rotate(90 122.606 0.241821)" fill="white"/>
<rect x="122.606" y="0.241821" width="6.18183" height="6.18183" transform="rotate(90 122.606 0.241821)" fill="white"/>
<rect x="122.606" y="0.241821" width="6.18183" height="6.18183" transform="rotate(90 122.606 0.241821)" fill="white"/>
<rect x="181.333" y="63.0895" width="6.18183" height="6.18183" transform="rotate(90 181.333 63.0895)" fill="white"/>
<rect x="181.333" y="63.0895" width="6.18183" height="6.18183" transform="rotate(90 181.333 63.0895)" fill="white"/>
<rect x="181.333" y="63.0895" width="6.18183" height="6.18183" transform="rotate(90 181.333 63.0895)" fill="white"/>
<rect x="181.333" y="63.0895" width="6.18183" height="6.18183" transform="rotate(90 181.333 63.0895)" fill="white"/>
<rect x="181.333" y="63.0895" width="6.18183" height="6.18183" transform="rotate(90 181.333 63.0895)" fill="white"/>
<rect x="181.333" y="63.0895" width="6.18183" height="6.18183" transform="rotate(90 181.333 63.0895)" fill="white"/>
<rect x="181.333" y="63.0895" width="6.18183" height="6.18183" transform="rotate(90 181.333 63.0895)" fill="white"/>
<rect x="181.333" y="63.0895" width="6.18183" height="6.18183" transform="rotate(90 181.333 63.0895)" fill="white"/>
<rect x="181.333" y="63.0895" width="6.18183" height="6.18183" transform="rotate(90 181.333 63.0895)" fill="white"/>
<rect x="181.333" y="63.0895" width="6.18183" height="6.18183" transform="rotate(90 181.333 63.0895)" fill="white"/>
<rect x="181.333" y="63.0895" width="6.18183" height="6.18183" transform="rotate(90 181.333 63.0895)" fill="white"/>
<rect x="181.333" y="63.0895" width="6.18183" height="6.18183" transform="rotate(90 181.333 63.0895)" fill="white"/>
<rect x="181.333" y="63.0895" width="6.18183" height="6.18183" transform="rotate(90 181.333 63.0895)" fill="white"/>
<rect x="181.333" y="63.0895" width="6.18183" height="6.18183" transform="rotate(90 181.333 63.0895)" fill="white"/>
<rect x="181.333" y="63.0895" width="6.18183" height="6.18183" transform="rotate(90 181.333 63.0895)" fill="white"/>
<rect x="181.333" y="63.0895" width="6.18183" height="6.18183" transform="rotate(90 181.333 63.0895)" fill="white"/>
<rect x="181.333" y="63.0895" width="6.18183" height="6.18183" transform="rotate(90 181.333 63.0895)" fill="white"/>
<rect x="181.333" y="63.0895" width="6.18183" height="6.18183" transform="rotate(90 181.333 63.0895)" fill="white"/>
<rect x="181.333" y="63.0895" width="6.18183" height="6.18183" transform="rotate(90 181.333 63.0895)" fill="white"/>
<rect x="181.333" y="63.0895" width="6.18183" height="6.18183" transform="rotate(90 181.333 63.0895)" fill="white"/>
<rect x="181.333" y="63.0895" width="6.18183" height="6.18183" transform="rotate(90 181.333 63.0895)" fill="white"/>
<rect x="181.333" y="63.0895" width="6.18183" height="6.18183" transform="rotate(90 181.333 63.0895)" fill="white"/>
<rect x="181.333" y="63.0895" width="6.18183" height="6.18183" transform="rotate(90 181.333 63.0895)" fill="white"/>
<rect x="181.333" y="63.0895" width="6.18183" height="6.18183" transform="rotate(90 181.333 63.0895)" fill="white"/>
<rect x="181.333" y="63.0895" width="6.18183" height="6.18183" transform="rotate(90 181.333 63.0895)" fill="white"/>
<rect x="181.333" y="63.0895" width="6.18183" height="6.18183" transform="rotate(90 181.333 63.0895)" fill="white"/>
<rect x="181.333" y="63.0895" width="6.18183" height="6.18183" transform="rotate(90 181.333 63.0895)" fill="white"/>
<rect x="181.333" y="63.0895" width="6.18183" height="6.18183" transform="rotate(90 181.333 63.0895)" fill="white"/>
<rect x="240.061" y="63.0895" width="6.18183" height="6.18183" transform="rotate(90 240.061 63.0895)" fill="white"/>
<rect x="240.061" y="63.0895" width="6.18183" height="6.18183" transform="rotate(90 240.061 63.0895)" fill="white"/>
<rect x="240.061" y="63.0895" width="6.18183" height="6.18183" transform="rotate(90 240.061 63.0895)" fill="white"/>
<rect x="240.061" y="63.0895" width="6.18183" height="6.18183" transform="rotate(90 240.061 63.0895)" fill="white"/>
<rect x="240.061" y="63.0895" width="6.18183" height="6.18183" transform="rotate(90 240.061 63.0895)" fill="white"/>
<rect x="240.061" y="63.0895" width="6.18183" height="6.18183" transform="rotate(90 240.061 63.0895)" fill="white"/>
<rect x="240.061" y="63.0895" width="6.18183" height="6.18183" transform="rotate(90 240.061 63.0895)" fill="white"/>
<rect x="240.061" y="63.0895" width="6.18183" height="6.18183" transform="rotate(90 240.061 63.0895)" fill="white"/>
<rect x="240.061" y="63.0895" width="6.18183" height="6.18183" transform="rotate(90 240.061 63.0895)" fill="white"/>
<rect x="240.061" y="63.0895" width="6.18183" height="6.18183" transform="rotate(90 240.061 63.0895)" fill="white"/>
<rect x="240.061" y="63.0895" width="6.18183" height="6.18183" transform="rotate(90 240.061 63.0895)" fill="white"/>
<rect x="240.061" y="63.0895" width="6.18183" height="6.18183" transform="rotate(90 240.061 63.0895)" fill="white"/>
<rect x="240.061" y="63.0895" width="6.18183" height="6.18183" transform="rotate(90 240.061 63.0895)" fill="white"/>
<rect x="240.061" y="63.0895" width="6.18183" height="6.18183" transform="rotate(90 240.061 63.0895)" fill="white"/>
<rect x="240.061" y="63.0895" width="6.18183" height="6.18183" transform="rotate(90 240.061 63.0895)" fill="white"/>
<rect x="240.061" y="63.0895" width="6.18183" height="6.18183" transform="rotate(90 240.061 63.0895)" fill="white"/>
<rect x="240.061" y="63.0895" width="6.18183" height="6.18183" transform="rotate(90 240.061 63.0895)" fill="white"/>
<rect x="240.061" y="63.0895" width="6.18183" height="6.18183" transform="rotate(90 240.061 63.0895)" fill="white"/>
<rect x="240.061" y="63.0895" width="6.18183" height="6.18183" transform="rotate(90 240.061 63.0895)" fill="white"/>
<rect x="240.061" y="63.0895" width="6.18183" height="6.18183" transform="rotate(90 240.061 63.0895)" fill="white"/>
<rect x="240.061" y="63.0895" width="6.18183" height="6.18183" transform="rotate(90 240.061 63.0895)" fill="white"/>
<rect x="240.061" y="63.0895" width="6.18183" height="6.18183" transform="rotate(90 240.061 63.0895)" fill="white"/>
<rect x="240.061" y="63.0895" width="6.18183" height="6.18183" transform="rotate(90 240.061 63.0895)" fill="white"/>
<rect x="240.061" y="63.0895" width="6.18183" height="6.18183" transform="rotate(90 240.061 63.0895)" fill="white"/>
<rect x="240.061" y="63.0895" width="6.18183" height="6.18183" transform="rotate(90 240.061 63.0895)" fill="white"/>
<rect x="240.061" y="63.0895" width="6.18183" height="6.18183" transform="rotate(90 240.061 63.0895)" fill="white"/>
<rect x="240.061" y="63.0895" width="6.18183" height="6.18183" transform="rotate(90 240.061 63.0895)" fill="white"/>
<rect x="240.061" y="63.0895" width="6.18183" height="6.18183" transform="rotate(90 240.061 63.0895)" fill="white"/>
<rect x="297.758" y="63.0895" width="6.18183" height="5.15153" transform="rotate(90 297.758 63.0895)" fill="white"/>
<rect x="297.758" y="63.0895" width="6.18183" height="5.15153" transform="rotate(90 297.758 63.0895)" fill="white"/>
<rect x="297.758" y="63.0895" width="6.18183" height="5.15153" transform="rotate(90 297.758 63.0895)" fill="white"/>
<rect x="297.758" y="63.0895" width="6.18183" height="5.15153" transform="rotate(90 297.758 63.0895)" fill="white"/>
<rect x="297.758" y="63.0895" width="6.18183" height="5.15153" transform="rotate(90 297.758 63.0895)" fill="white"/>
<rect x="297.758" y="63.0895" width="6.18183" height="5.15153" transform="rotate(90 297.758 63.0895)" fill="white"/>
<rect x="297.758" y="63.0895" width="6.18183" height="5.15153" transform="rotate(90 297.758 63.0895)" fill="white"/>
<rect x="297.758" y="63.0895" width="6.18183" height="5.15153" transform="rotate(90 297.758 63.0895)" fill="white"/>
<rect x="297.758" y="63.0895" width="6.18183" height="5.15153" transform="rotate(90 297.758 63.0895)" fill="white"/>
<rect x="297.758" y="63.0895" width="6.18183" height="5.15153" transform="rotate(90 297.758 63.0895)" fill="white"/>
<rect x="297.758" y="63.0895" width="6.18183" height="5.15153" transform="rotate(90 297.758 63.0895)" fill="white"/>
<rect x="297.758" y="63.0895" width="6.18183" height="5.15153" transform="rotate(90 297.758 63.0895)" fill="white"/>
<rect x="297.758" y="63.0895" width="6.18183" height="5.15153" transform="rotate(90 297.758 63.0895)" fill="white"/>
<rect x="297.758" y="63.0895" width="6.18183" height="5.15153" transform="rotate(90 297.758 63.0895)" fill="white"/>
<rect x="297.758" y="63.0895" width="6.18183" height="5.15153" transform="rotate(90 297.758 63.0895)" fill="white"/>
<rect x="297.758" y="63.0895" width="6.18183" height="5.15153" transform="rotate(90 297.758 63.0895)" fill="white"/>
<rect x="297.758" y="63.0895" width="6.18183" height="5.15153" transform="rotate(90 297.758 63.0895)" fill="white"/>
<rect x="297.758" y="63.0895" width="6.18183" height="5.15153" transform="rotate(90 297.758 63.0895)" fill="white"/>
<rect x="297.758" y="63.0895" width="6.18183" height="5.15153" transform="rotate(90 297.758 63.0895)" fill="white"/>
<rect x="297.758" y="63.0895" width="6.18183" height="5.15153" transform="rotate(90 297.758 63.0895)" fill="white"/>
<rect x="297.758" y="63.0895" width="6.18183" height="5.15153" transform="rotate(90 297.758 63.0895)" fill="white"/>
<rect x="297.758" y="63.0895" width="6.18183" height="5.15153" transform="rotate(90 297.758 63.0895)" fill="white"/>
<rect x="297.758" y="63.0895" width="6.18183" height="5.15153" transform="rotate(90 297.758 63.0895)" fill="white"/>
<rect x="297.758" y="63.0895" width="6.18183" height="5.15153" transform="rotate(90 297.758 63.0895)" fill="white"/>
<rect x="297.758" y="63.0895" width="6.18183" height="5.15153" transform="rotate(90 297.758 63.0895)" fill="white"/>
<rect x="297.758" y="63.0895" width="6.18183" height="5.15153" transform="rotate(90 297.758 63.0895)" fill="white"/>
<rect x="297.758" y="63.0895" width="6.18183" height="5.15153" transform="rotate(90 297.758 63.0895)" fill="white"/>
<rect x="297.758" y="63.0895" width="6.18183" height="5.15153" transform="rotate(90 297.758 63.0895)" fill="white"/>
<rect x="356.485" y="63.0895" width="6.18183" height="6.18183" transform="rotate(90 356.485 63.0895)" fill="white"/>
<rect x="356.485" y="63.0895" width="6.18183" height="6.18183" transform="rotate(90 356.485 63.0895)" fill="white"/>
<rect x="356.485" y="63.0895" width="6.18183" height="6.18183" transform="rotate(90 356.485 63.0895)" fill="white"/>
<rect x="356.485" y="63.0895" width="6.18183" height="6.18183" transform="rotate(90 356.485 63.0895)" fill="white"/>
<rect x="356.485" y="63.0895" width="6.18183" height="6.18183" transform="rotate(90 356.485 63.0895)" fill="white"/>
<rect x="356.485" y="63.0895" width="6.18183" height="6.18183" transform="rotate(90 356.485 63.0895)" fill="white"/>
<rect x="356.485" y="63.0895" width="6.18183" height="6.18183" transform="rotate(90 356.485 63.0895)" fill="white"/>
<rect x="356.485" y="63.0895" width="6.18183" height="6.18183" transform="rotate(90 356.485 63.0895)" fill="white"/>
<rect x="356.485" y="63.0895" width="6.18183" height="6.18183" transform="rotate(90 356.485 63.0895)" fill="white"/>
<rect x="356.485" y="63.0895" width="6.18183" height="6.18183" transform="rotate(90 356.485 63.0895)" fill="white"/>
<rect x="356.485" y="63.0895" width="6.18183" height="6.18183" transform="rotate(90 356.485 63.0895)" fill="white"/>
<rect x="356.485" y="63.0895" width="6.18183" height="6.18183" transform="rotate(90 356.485 63.0895)" fill="white"/>
<rect x="356.485" y="63.0895" width="6.18183" height="6.18183" transform="rotate(90 356.485 63.0895)" fill="white"/>
<rect x="356.485" y="63.0895" width="6.18183" height="6.18183" transform="rotate(90 356.485 63.0895)" fill="white"/>
<rect x="356.485" y="63.0895" width="6.18183" height="6.18183" transform="rotate(90 356.485 63.0895)" fill="white"/>
<rect x="356.485" y="63.0895" width="6.18183" height="6.18183" transform="rotate(90 356.485 63.0895)" fill="white"/>
<rect x="356.485" y="63.0895" width="6.18183" height="6.18183" transform="rotate(90 356.485 63.0895)" fill="white"/>
<rect x="356.485" y="63.0895" width="6.18183" height="6.18183" transform="rotate(90 356.485 63.0895)" fill="white"/>
<rect x="356.485" y="63.0895" width="6.18183" height="6.18183" transform="rotate(90 356.485 63.0895)" fill="white"/>
<rect x="356.485" y="63.0895" width="6.18183" height="6.18183" transform="rotate(90 356.485 63.0895)" fill="white"/>
<rect x="356.485" y="63.0895" width="6.18183" height="6.18183" transform="rotate(90 356.485 63.0895)" fill="white"/>
<rect x="356.485" y="63.0895" width="6.18183" height="6.18183" transform="rotate(90 356.485 63.0895)" fill="white"/>
<rect x="356.485" y="63.0895" width="6.18183" height="6.18183" transform="rotate(90 356.485 63.0895)" fill="white"/>
<rect x="356.485" y="63.0895" width="6.18183" height="6.18183" transform="rotate(90 356.485 63.0895)" fill="white"/>
<rect x="356.485" y="63.0895" width="6.18183" height="6.18183" transform="rotate(90 356.485 63.0895)" fill="white"/>
<rect x="356.485" y="63.0895" width="6.18183" height="6.18183" transform="rotate(90 356.485 63.0895)" fill="white"/>
<rect x="356.485" y="63.0895" width="6.18183" height="6.18183" transform="rotate(90 356.485 63.0895)" fill="white"/>
<rect x="356.485" y="63.0895" width="6.18183" height="6.18183" transform="rotate(90 356.485 63.0895)" fill="white"/>
<rect x="420.364" y="63.0895" width="6.18183" height="6.18183" transform="rotate(90 420.364 63.0895)" fill="white"/>
<rect x="420.364" y="63.0895" width="6.18183" height="6.18183" transform="rotate(90 420.364 63.0895)" fill="white"/>
<rect x="420.364" y="63.0895" width="6.18183" height="6.18183" transform="rotate(90 420.364 63.0895)" fill="white"/>
<rect x="420.364" y="63.0895" width="6.18183" height="6.18183" transform="rotate(90 420.364 63.0895)" fill="white"/>
<rect x="420.364" y="63.0895" width="6.18183" height="6.18183" transform="rotate(90 420.364 63.0895)" fill="white"/>
<rect x="420.364" y="63.0895" width="6.18183" height="6.18183" transform="rotate(90 420.364 63.0895)" fill="white"/>
<rect x="420.364" y="63.0895" width="6.18183" height="6.18183" transform="rotate(90 420.364 63.0895)" fill="white"/>
<rect x="420.364" y="63.0895" width="6.18183" height="6.18183" transform="rotate(90 420.364 63.0895)" fill="white"/>
<rect x="420.364" y="63.0895" width="6.18183" height="6.18183" transform="rotate(90 420.364 63.0895)" fill="white"/>
<rect x="420.364" y="63.0895" width="6.18183" height="6.18183" transform="rotate(90 420.364 63.0895)" fill="white"/>
<rect x="420.364" y="63.0895" width="6.18183" height="6.18183" transform="rotate(90 420.364 63.0895)" fill="white"/>
<rect x="420.364" y="63.0895" width="6.18183" height="6.18183" transform="rotate(90 420.364 63.0895)" fill="white"/>
<rect x="420.364" y="63.0895" width="6.18183" height="6.18183" transform="rotate(90 420.364 63.0895)" fill="white"/>
<rect x="420.364" y="63.0895" width="6.18183" height="6.18183" transform="rotate(90 420.364 63.0895)" fill="white"/>
<rect x="420.364" y="63.0895" width="6.18183" height="6.18183" transform="rotate(90 420.364 63.0895)" fill="white"/>
<rect x="420.364" y="63.0895" width="6.18183" height="6.18183" transform="rotate(90 420.364 63.0895)" fill="white"/>
<rect x="420.364" y="63.0895" width="6.18183" height="6.18183" transform="rotate(90 420.364 63.0895)" fill="white"/>
<rect x="420.364" y="63.0895" width="6.18183" height="6.18183" transform="rotate(90 420.364 63.0895)" fill="white"/>
<rect x="420.364" y="63.0895" width="6.18183" height="6.18183" transform="rotate(90 420.364 63.0895)" fill="white"/>
<rect x="420.364" y="63.0895" width="6.18183" height="6.18183" transform="rotate(90 420.364 63.0895)" fill="white"/>
<rect x="420.364" y="63.0895" width="6.18183" height="6.18183" transform="rotate(90 420.364 63.0895)" fill="white"/>
<rect x="420.364" y="63.0895" width="6.18183" height="6.18183" transform="rotate(90 420.364 63.0895)" fill="white"/>
<rect x="420.364" y="63.0895" width="6.18183" height="6.18183" transform="rotate(90 420.364 63.0895)" fill="white"/>
<rect x="420.364" y="63.0895" width="6.18183" height="6.18183" transform="rotate(90 420.364 63.0895)" fill="white"/>
<rect x="420.364" y="63.0895" width="6.18183" height="6.18183" transform="rotate(90 420.364 63.0895)" fill="white"/>
<rect x="420.364" y="63.0895" width="6.18183" height="6.18183" transform="rotate(90 420.364 63.0895)" fill="white"/>
<rect x="420.364" y="63.0895" width="6.18183" height="6.18183" transform="rotate(90 420.364 63.0895)" fill="white"/>
<rect x="420.364" y="63.0895" width="6.18183" height="6.18183" transform="rotate(90 420.364 63.0895)" fill="white"/>
<rect x="356.485" y="126.97" width="6.18183" height="6.18183" transform="rotate(90 356.485 126.97)" fill="white"/>
<rect x="356.485" y="126.97" width="6.18183" height="6.18183" transform="rotate(90 356.485 126.97)" fill="white"/>
<rect x="356.485" y="126.97" width="6.18183" height="6.18183" transform="rotate(90 356.485 126.97)" fill="white"/>
<rect x="356.485" y="126.97" width="6.18183" height="6.18183" transform="rotate(90 356.485 126.97)" fill="white"/>
<rect x="356.485" y="126.97" width="6.18183" height="6.18183" transform="rotate(90 356.485 126.97)" fill="white"/>
<rect x="356.485" y="126.97" width="6.18183" height="6.18183" transform="rotate(90 356.485 126.97)" fill="white"/>
<rect x="356.485" y="126.97" width="6.18183" height="6.18183" transform="rotate(90 356.485 126.97)" fill="white"/>
<rect x="356.485" y="126.97" width="6.18183" height="6.18183" transform="rotate(90 356.485 126.97)" fill="white"/>
<rect x="356.485" y="126.97" width="6.18183" height="6.18183" transform="rotate(90 356.485 126.97)" fill="white"/>
<rect x="356.485" y="126.97" width="6.18183" height="6.18183" transform="rotate(90 356.485 126.97)" fill="white"/>
<rect x="356.485" y="126.97" width="6.18183" height="6.18183" transform="rotate(90 356.485 126.97)" fill="white"/>
<rect x="356.485" y="126.97" width="6.18183" height="6.18183" transform="rotate(90 356.485 126.97)" fill="white"/>
<rect x="356.485" y="126.97" width="6.18183" height="6.18183" transform="rotate(90 356.485 126.97)" fill="white"/>
<rect x="356.485" y="126.97" width="6.18183" height="6.18183" transform="rotate(90 356.485 126.97)" fill="white"/>
<rect x="356.485" y="126.97" width="6.18183" height="6.18183" transform="rotate(90 356.485 126.97)" fill="white"/>
<rect x="356.485" y="126.97" width="6.18183" height="6.18183" transform="rotate(90 356.485 126.97)" fill="white"/>
<rect x="356.485" y="126.97" width="6.18183" height="6.18183" transform="rotate(90 356.485 126.97)" fill="white"/>
<rect x="356.485" y="126.97" width="6.18183" height="6.18183" transform="rotate(90 356.485 126.97)" fill="white"/>
<rect x="356.485" y="126.97" width="6.18183" height="6.18183" transform="rotate(90 356.485 126.97)" fill="white"/>
<rect x="356.485" y="126.97" width="6.18183" height="6.18183" transform="rotate(90 356.485 126.97)" fill="white"/>
<rect x="356.485" y="126.97" width="6.18183" height="6.18183" transform="rotate(90 356.485 126.97)" fill="white"/>
<rect x="356.485" y="126.97" width="6.18183" height="6.18183" transform="rotate(90 356.485 126.97)" fill="white"/>
<rect x="356.485" y="126.97" width="6.18183" height="6.18183" transform="rotate(90 356.485 126.97)" fill="white"/>
<rect x="356.485" y="126.97" width="6.18183" height="6.18183" transform="rotate(90 356.485 126.97)" fill="white"/>
<rect x="356.485" y="126.97" width="6.18183" height="6.18183" transform="rotate(90 356.485 126.97)" fill="white"/>
<rect x="356.485" y="126.97" width="6.18183" height="6.18183" transform="rotate(90 356.485 126.97)" fill="white"/>
<rect x="356.485" y="126.97" width="6.18183" height="6.18183" transform="rotate(90 356.485 126.97)" fill="white"/>
<rect x="356.485" y="126.97" width="6.18183" height="6.18183" transform="rotate(90 356.485 126.97)" fill="white"/>
<rect x="297.758" y="126.97" width="6.18183" height="5.15153" transform="rotate(90 297.758 126.97)" fill="white"/>
<rect x="297.758" y="126.97" width="6.18183" height="5.15153" transform="rotate(90 297.758 126.97)" fill="white"/>
<rect x="297.758" y="126.97" width="6.18183" height="5.15153" transform="rotate(90 297.758 126.97)" fill="white"/>
<rect x="297.758" y="126.97" width="6.18183" height="5.15153" transform="rotate(90 297.758 126.97)" fill="white"/>
<rect x="297.758" y="126.97" width="6.18183" height="5.15153" transform="rotate(90 297.758 126.97)" fill="white"/>
<rect x="297.758" y="126.97" width="6.18183" height="5.15153" transform="rotate(90 297.758 126.97)" fill="white"/>
<rect x="297.758" y="126.97" width="6.18183" height="5.15153" transform="rotate(90 297.758 126.97)" fill="white"/>
<rect x="297.758" y="126.97" width="6.18183" height="5.15153" transform="rotate(90 297.758 126.97)" fill="white"/>
<rect x="297.758" y="126.97" width="6.18183" height="5.15153" transform="rotate(90 297.758 126.97)" fill="white"/>
<rect x="297.758" y="126.97" width="6.18183" height="5.15153" transform="rotate(90 297.758 126.97)" fill="white"/>
<rect x="297.758" y="126.97" width="6.18183" height="5.15153" transform="rotate(90 297.758 126.97)" fill="white"/>
<rect x="297.758" y="126.97" width="6.18183" height="5.15153" transform="rotate(90 297.758 126.97)" fill="white"/>
<rect x="297.758" y="126.97" width="6.18183" height="5.15153" transform="rotate(90 297.758 126.97)" fill="white"/>
<rect x="297.758" y="126.97" width="6.18183" height="5.15153" transform="rotate(90 297.758 126.97)" fill="white"/>
<rect x="297.758" y="126.97" width="6.18183" height="5.15153" transform="rotate(90 297.758 126.97)" fill="white"/>
<rect x="297.758" y="126.97" width="6.18183" height="5.15153" transform="rotate(90 297.758 126.97)" fill="white"/>
<rect x="297.758" y="126.97" width="6.18183" height="5.15153" transform="rotate(90 297.758 126.97)" fill="white"/>
<rect x="297.758" y="126.97" width="6.18183" height="5.15153" transform="rotate(90 297.758 126.97)" fill="white"/>
<rect x="297.758" y="126.97" width="6.18183" height="5.15153" transform="rotate(90 297.758 126.97)" fill="white"/>
<rect x="297.758" y="126.97" width="6.18183" height="5.15153" transform="rotate(90 297.758 126.97)" fill="white"/>
<rect x="297.758" y="126.97" width="6.18183" height="5.15153" transform="rotate(90 297.758 126.97)" fill="white"/>
<rect x="297.758" y="126.97" width="6.18183" height="5.15153" transform="rotate(90 297.758 126.97)" fill="white"/>
<rect x="297.758" y="126.97" width="6.18183" height="5.15153" transform="rotate(90 297.758 126.97)" fill="white"/>
<rect x="297.758" y="126.97" width="6.18183" height="5.15153" transform="rotate(90 297.758 126.97)" fill="white"/>
<rect x="297.758" y="126.97" width="6.18183" height="5.15153" transform="rotate(90 297.758 126.97)" fill="white"/>
<rect x="297.758" y="126.97" width="6.18183" height="5.15153" transform="rotate(90 297.758 126.97)" fill="white"/>
<rect x="297.758" y="126.97" width="6.18183" height="5.15153" transform="rotate(90 297.758 126.97)" fill="white"/>
<rect x="297.758" y="126.97" width="6.18183" height="5.15153" transform="rotate(90 297.758 126.97)" fill="white"/>
<rect x="240.061" y="126.97" width="6.18183" height="6.18183" transform="rotate(90 240.061 126.97)" fill="white"/>
<rect x="240.061" y="126.97" width="6.18183" height="6.18183" transform="rotate(90 240.061 126.97)" fill="white"/>
<rect x="240.061" y="126.97" width="6.18183" height="6.18183" transform="rotate(90 240.061 126.97)" fill="white"/>
<rect x="240.061" y="126.97" width="6.18183" height="6.18183" transform="rotate(90 240.061 126.97)" fill="white"/>
<rect x="240.061" y="126.97" width="6.18183" height="6.18183" transform="rotate(90 240.061 126.97)" fill="white"/>
<rect x="240.061" y="126.97" width="6.18183" height="6.18183" transform="rotate(90 240.061 126.97)" fill="white"/>
<rect x="240.061" y="126.97" width="6.18183" height="6.18183" transform="rotate(90 240.061 126.97)" fill="white"/>
<rect x="240.061" y="126.97" width="6.18183" height="6.18183" transform="rotate(90 240.061 126.97)" fill="white"/>
<rect x="240.061" y="126.97" width="6.18183" height="6.18183" transform="rotate(90 240.061 126.97)" fill="white"/>
<rect x="240.061" y="126.97" width="6.18183" height="6.18183" transform="rotate(90 240.061 126.97)" fill="white"/>
<rect x="240.061" y="126.97" width="6.18183" height="6.18183" transform="rotate(90 240.061 126.97)" fill="white"/>
<rect x="240.061" y="126.97" width="6.18183" height="6.18183" transform="rotate(90 240.061 126.97)" fill="white"/>
<rect x="240.061" y="126.97" width="6.18183" height="6.18183" transform="rotate(90 240.061 126.97)" fill="white"/>
<rect x="240.061" y="126.97" width="6.18183" height="6.18183" transform="rotate(90 240.061 126.97)" fill="white"/>
<rect x="240.061" y="126.97" width="6.18183" height="6.18183" transform="rotate(90 240.061 126.97)" fill="white"/>
<rect x="240.061" y="126.97" width="6.18183" height="6.18183" transform="rotate(90 240.061 126.97)" fill="white"/>
<rect x="240.061" y="126.97" width="6.18183" height="6.18183" transform="rotate(90 240.061 126.97)" fill="white"/>
<rect x="240.061" y="126.97" width="6.18183" height="6.18183" transform="rotate(90 240.061 126.97)" fill="white"/>
<rect x="240.061" y="126.97" width="6.18183" height="6.18183" transform="rotate(90 240.061 126.97)" fill="white"/>
<rect x="240.061" y="126.97" width="6.18183" height="6.18183" transform="rotate(90 240.061 126.97)" fill="white"/>
<rect x="240.061" y="126.97" width="6.18183" height="6.18183" transform="rotate(90 240.061 126.97)" fill="white"/>
<rect x="240.061" y="126.97" width="6.18183" height="6.18183" transform="rotate(90 240.061 126.97)" fill="white"/>
<rect x="240.061" y="126.97" width="6.18183" height="6.18183" transform="rotate(90 240.061 126.97)" fill="white"/>
<rect x="240.061" y="126.97" width="6.18183" height="6.18183" transform="rotate(90 240.061 126.97)" fill="white"/>
<rect x="240.061" y="126.97" width="6.18183" height="6.18183" transform="rotate(90 240.061 126.97)" fill="white"/>
<rect x="240.061" y="126.97" width="6.18183" height="6.18183" transform="rotate(90 240.061 126.97)" fill="white"/>
<rect x="240.061" y="126.97" width="6.18183" height="6.18183" transform="rotate(90 240.061 126.97)" fill="white"/>
<rect x="240.061" y="126.97" width="6.18183" height="6.18183" transform="rotate(90 240.061 126.97)" fill="white"/>
<rect x="183.394" y="123.879" width="12.3637" height="12.3637" transform="rotate(90 183.394 123.879)" fill="white"/>
<rect x="183.394" y="123.879" width="12.3637" height="12.3637" transform="rotate(90 183.394 123.879)" fill="white"/>
<rect x="183.394" y="123.879" width="12.3637" height="12.3637" transform="rotate(90 183.394 123.879)" fill="white"/>
<rect x="183.394" y="123.879" width="12.3637" height="12.3637" transform="rotate(90 183.394 123.879)" fill="white"/>
<rect x="183.394" y="123.879" width="12.3637" height="12.3637" transform="rotate(90 183.394 123.879)" fill="white"/>
<rect x="183.394" y="123.879" width="12.3637" height="12.3637" transform="rotate(90 183.394 123.879)" fill="white"/>
<rect x="183.394" y="123.879" width="12.3637" height="12.3637" transform="rotate(90 183.394 123.879)" fill="white"/>
<rect x="183.394" y="123.879" width="12.3637" height="12.3637" transform="rotate(90 183.394 123.879)" fill="white"/>
<rect x="183.394" y="123.879" width="12.3637" height="12.3637" transform="rotate(90 183.394 123.879)" fill="white"/>
<rect x="183.394" y="123.879" width="12.3637" height="12.3637" transform="rotate(90 183.394 123.879)" fill="white"/>
<rect x="183.394" y="123.879" width="12.3637" height="12.3637" transform="rotate(90 183.394 123.879)" fill="white"/>
<rect x="183.394" y="123.879" width="12.3637" height="12.3637" transform="rotate(90 183.394 123.879)" fill="white"/>
<rect x="183.394" y="123.879" width="12.3637" height="12.3637" transform="rotate(90 183.394 123.879)" fill="white"/>
<rect x="183.394" y="123.879" width="12.3637" height="12.3637" transform="rotate(90 183.394 123.879)" fill="white"/>
<rect x="183.394" y="123.879" width="12.3637" height="12.3637" transform="rotate(90 183.394 123.879)" fill="white"/>
<rect x="183.394" y="123.879" width="12.3637" height="12.3637" transform="rotate(90 183.394 123.879)" fill="white"/>
<rect x="183.394" y="123.879" width="12.3637" height="12.3637" transform="rotate(90 183.394 123.879)" fill="white"/>
<rect x="183.394" y="123.879" width="12.3637" height="12.3637" transform="rotate(90 183.394 123.879)" fill="white"/>
<rect x="183.394" y="123.879" width="12.3637" height="12.3637" transform="rotate(90 183.394 123.879)" fill="white"/>
<rect x="183.394" y="123.879" width="12.3637" height="12.3637" transform="rotate(90 183.394 123.879)" fill="white"/>
<rect x="183.394" y="123.879" width="12.3637" height="12.3637" transform="rotate(90 183.394 123.879)" fill="white"/>
<rect x="183.394" y="123.879" width="12.3637" height="12.3637" transform="rotate(90 183.394 123.879)" fill="white"/>
<rect x="183.394" y="123.879" width="12.3637" height="12.3637" transform="rotate(90 183.394 123.879)" fill="white"/>
<rect x="183.394" y="123.879" width="12.3637" height="12.3637" transform="rotate(90 183.394 123.879)" fill="white"/>
<rect x="183.394" y="123.879" width="12.3637" height="12.3637" transform="rotate(90 183.394 123.879)" fill="white"/>
<rect x="183.394" y="123.879" width="12.3637" height="12.3637" transform="rotate(90 183.394 123.879)" fill="white"/>
<rect x="183.394" y="123.879" width="12.3637" height="12.3637" transform="rotate(90 183.394 123.879)" fill="white"/>
<rect x="183.394" y="123.879" width="12.3637" height="12.3637" transform="rotate(90 183.394 123.879)" fill="white"/>
<rect x="420.364" y="126.97" width="6.18183" height="6.18183" transform="rotate(90 420.364 126.97)" fill="white"/>
<rect x="420.364" y="126.97" width="6.18183" height="6.18183" transform="rotate(90 420.364 126.97)" fill="white"/>
<rect x="420.364" y="126.97" width="6.18183" height="6.18183" transform="rotate(90 420.364 126.97)" fill="white"/>
<rect x="420.364" y="126.97" width="6.18183" height="6.18183" transform="rotate(90 420.364 126.97)" fill="white"/>
<rect x="420.364" y="126.97" width="6.18183" height="6.18183" transform="rotate(90 420.364 126.97)" fill="white"/>
<rect x="420.364" y="126.97" width="6.18183" height="6.18183" transform="rotate(90 420.364 126.97)" fill="white"/>
<rect x="420.364" y="126.97" width="6.18183" height="6.18183" transform="rotate(90 420.364 126.97)" fill="white"/>
<rect x="420.364" y="126.97" width="6.18183" height="6.18183" transform="rotate(90 420.364 126.97)" fill="white"/>
<rect x="420.364" y="126.97" width="6.18183" height="6.18183" transform="rotate(90 420.364 126.97)" fill="white"/>
<rect x="420.364" y="126.97" width="6.18183" height="6.18183" transform="rotate(90 420.364 126.97)" fill="white"/>
<rect x="420.364" y="126.97" width="6.18183" height="6.18183" transform="rotate(90 420.364 126.97)" fill="white"/>
<rect x="420.364" y="126.97" width="6.18183" height="6.18183" transform="rotate(90 420.364 126.97)" fill="white"/>
<rect x="420.364" y="126.97" width="6.18183" height="6.18183" transform="rotate(90 420.364 126.97)" fill="white"/>
<rect x="420.364" y="126.97" width="6.18183" height="6.18183" transform="rotate(90 420.364 126.97)" fill="white"/>
<rect x="420.364" y="126.97" width="6.18183" height="6.18183" transform="rotate(90 420.364 126.97)" fill="white"/>
<rect x="420.364" y="126.97" width="6.18183" height="6.18183" transform="rotate(90 420.364 126.97)" fill="white"/>
<rect x="420.364" y="126.97" width="6.18183" height="6.18183" transform="rotate(90 420.364 126.97)" fill="white"/>
<rect x="420.364" y="126.97" width="6.18183" height="6.18183" transform="rotate(90 420.364 126.97)" fill="white"/>
<rect x="420.364" y="126.97" width="6.18183" height="6.18183" transform="rotate(90 420.364 126.97)" fill="white"/>
<rect x="420.364" y="126.97" width="6.18183" height="6.18183" transform="rotate(90 420.364 126.97)" fill="white"/>
<rect x="420.364" y="126.97" width="6.18183" height="6.18183" transform="rotate(90 420.364 126.97)" fill="white"/>
<rect x="420.364" y="126.97" width="6.18183" height="6.18183" transform="rotate(90 420.364 126.97)" fill="white"/>
<rect x="420.364" y="126.97" width="6.18183" height="6.18183" transform="rotate(90 420.364 126.97)" fill="white"/>
<rect x="420.364" y="126.97" width="6.18183" height="6.18183" transform="rotate(90 420.364 126.97)" fill="white"/>
<rect x="420.364" y="126.97" width="6.18183" height="6.18183" transform="rotate(90 420.364 126.97)" fill="white"/>
<rect x="420.364" y="126.97" width="6.18183" height="6.18183" transform="rotate(90 420.364 126.97)" fill="white"/>
<rect x="420.364" y="126.97" width="6.18183" height="6.18183" transform="rotate(90 420.364 126.97)" fill="white"/>
<rect x="420.364" y="126.97" width="6.18183" height="6.18183" transform="rotate(90 420.364 126.97)" fill="white"/>
<rect x="122.606" y="63.0895" width="6.18183" height="6.18183" transform="rotate(90 122.606 63.0895)" fill="white"/>
<rect x="122.606" y="63.0895" width="6.18183" height="6.18183" transform="rotate(90 122.606 63.0895)" fill="white"/>
<rect x="122.606" y="63.0895" width="6.18183" height="6.18183" transform="rotate(90 122.606 63.0895)" fill="white"/>
<rect x="122.606" y="63.0895" width="6.18183" height="6.18183" transform="rotate(90 122.606 63.0895)" fill="white"/>
<rect x="122.606" y="63.0895" width="6.18183" height="6.18183" transform="rotate(90 122.606 63.0895)" fill="white"/>
<rect x="122.606" y="63.0895" width="6.18183" height="6.18183" transform="rotate(90 122.606 63.0895)" fill="white"/>
<rect x="122.606" y="63.0895" width="6.18183" height="6.18183" transform="rotate(90 122.606 63.0895)" fill="white"/>
<rect x="122.606" y="63.0895" width="6.18183" height="6.18183" transform="rotate(90 122.606 63.0895)" fill="white"/>
<rect x="122.606" y="63.0895" width="6.18183" height="6.18183" transform="rotate(90 122.606 63.0895)" fill="white"/>
<rect x="122.606" y="63.0895" width="6.18183" height="6.18183" transform="rotate(90 122.606 63.0895)" fill="white"/>
<rect x="122.606" y="63.0895" width="6.18183" height="6.18183" transform="rotate(90 122.606 63.0895)" fill="white"/>
<rect x="122.606" y="63.0895" width="6.18183" height="6.18183" transform="rotate(90 122.606 63.0895)" fill="white"/>
<rect x="122.606" y="63.0895" width="6.18183" height="6.18183" transform="rotate(90 122.606 63.0895)" fill="white"/>
<rect x="122.606" y="63.0895" width="6.18183" height="6.18183" transform="rotate(90 122.606 63.0895)" fill="white"/>
<rect x="122.606" y="63.0895" width="6.18183" height="6.18183" transform="rotate(90 122.606 63.0895)" fill="white"/>
<rect x="122.606" y="63.0895" width="6.18183" height="6.18183" transform="rotate(90 122.606 63.0895)" fill="white"/>
<rect x="122.606" y="63.0895" width="6.18183" height="6.18183" transform="rotate(90 122.606 63.0895)" fill="white"/>
<rect x="122.606" y="63.0895" width="6.18183" height="6.18183" transform="rotate(90 122.606 63.0895)" fill="white"/>
<rect x="122.606" y="63.0895" width="6.18183" height="6.18183" transform="rotate(90 122.606 63.0895)" fill="white"/>
<rect x="122.606" y="63.0895" width="6.18183" height="6.18183" transform="rotate(90 122.606 63.0895)" fill="white"/>
<rect x="122.606" y="63.0895" width="6.18183" height="6.18183" transform="rotate(90 122.606 63.0895)" fill="white"/>
<rect x="122.606" y="63.0895" width="6.18183" height="6.18183" transform="rotate(90 122.606 63.0895)" fill="white"/>
<rect x="122.606" y="63.0895" width="6.18183" height="6.18183" transform="rotate(90 122.606 63.0895)" fill="white"/>
<rect x="122.606" y="63.0895" width="6.18183" height="6.18183" transform="rotate(90 122.606 63.0895)" fill="white"/>
<rect x="122.606" y="63.0895" width="6.18183" height="6.18183" transform="rotate(90 122.606 63.0895)" fill="white"/>
<rect x="122.606" y="63.0895" width="6.18183" height="6.18183" transform="rotate(90 122.606 63.0895)" fill="white"/>
<rect x="122.606" y="63.0895" width="6.18183" height="6.18183" transform="rotate(90 122.606 63.0895)" fill="white"/>
<rect x="122.606" y="63.0895" width="6.18183" height="6.18183" transform="rotate(90 122.606 63.0895)" fill="white"/>
<rect x="181.333" y="0.241821" width="6.18183" height="6.18183" transform="rotate(90 181.333 0.241821)" fill="white"/>
<rect x="181.333" y="0.241821" width="6.18183" height="6.18183" transform="rotate(90 181.333 0.241821)" fill="white"/>
<rect x="181.333" y="0.241821" width="6.18183" height="6.18183" transform="rotate(90 181.333 0.241821)" fill="white"/>
<rect x="181.333" y="0.241821" width="6.18183" height="6.18183" transform="rotate(90 181.333 0.241821)" fill="white"/>
<rect x="181.333" y="0.241821" width="6.18183" height="6.18183" transform="rotate(90 181.333 0.241821)" fill="white"/>
<rect x="181.333" y="0.241821" width="6.18183" height="6.18183" transform="rotate(90 181.333 0.241821)" fill="white"/>
<rect x="181.333" y="0.241821" width="6.18183" height="6.18183" transform="rotate(90 181.333 0.241821)" fill="white"/>
<rect x="181.333" y="0.241821" width="6.18183" height="6.18183" transform="rotate(90 181.333 0.241821)" fill="white"/>
<rect x="181.333" y="0.241821" width="6.18183" height="6.18183" transform="rotate(90 181.333 0.241821)" fill="white"/>
<rect x="181.333" y="0.241821" width="6.18183" height="6.18183" transform="rotate(90 181.333 0.241821)" fill="white"/>
<rect x="181.333" y="0.241821" width="6.18183" height="6.18183" transform="rotate(90 181.333 0.241821)" fill="white"/>
<rect x="181.333" y="0.241821" width="6.18183" height="6.18183" transform="rotate(90 181.333 0.241821)" fill="white"/>
<rect x="181.333" y="0.241821" width="6.18183" height="6.18183" transform="rotate(90 181.333 0.241821)" fill="white"/>
<rect x="181.333" y="0.241821" width="6.18183" height="6.18183" transform="rotate(90 181.333 0.241821)" fill="white"/>
<rect x="181.333" y="0.241821" width="6.18183" height="6.18183" transform="rotate(90 181.333 0.241821)" fill="white"/>
<rect x="181.333" y="0.241821" width="6.18183" height="6.18183" transform="rotate(90 181.333 0.241821)" fill="white"/>
<rect x="181.333" y="0.241821" width="6.18183" height="6.18183" transform="rotate(90 181.333 0.241821)" fill="white"/>
<rect x="181.333" y="0.241821" width="6.18183" height="6.18183" transform="rotate(90 181.333 0.241821)" fill="white"/>
<rect x="181.333" y="0.241821" width="6.18183" height="6.18183" transform="rotate(90 181.333 0.241821)" fill="white"/>
<rect x="181.333" y="0.241821" width="6.18183" height="6.18183" transform="rotate(90 181.333 0.241821)" fill="white"/>
<rect x="181.333" y="0.241821" width="6.18183" height="6.18183" transform="rotate(90 181.333 0.241821)" fill="white"/>
<rect x="181.333" y="0.241821" width="6.18183" height="6.18183" transform="rotate(90 181.333 0.241821)" fill="white"/>
<rect x="181.333" y="0.241821" width="6.18183" height="6.18183" transform="rotate(90 181.333 0.241821)" fill="white"/>
<rect x="181.333" y="0.241821" width="6.18183" height="6.18183" transform="rotate(90 181.333 0.241821)" fill="white"/>
<rect x="181.333" y="0.241821" width="6.18183" height="6.18183" transform="rotate(90 181.333 0.241821)" fill="white"/>
<rect x="181.333" y="0.241821" width="6.18183" height="6.18183" transform="rotate(90 181.333 0.241821)" fill="white"/>
<rect x="181.333" y="0.241821" width="6.18183" height="6.18183" transform="rotate(90 181.333 0.241821)" fill="white"/>
<rect x="181.333" y="0.241821" width="6.18183" height="6.18183" transform="rotate(90 181.333 0.241821)" fill="white"/>
<rect x="238" y="0.241821" width="6.18183" height="6.18183" transform="rotate(90 238 0.241821)" fill="white"/>
<rect x="238" y="0.241821" width="6.18183" height="6.18183" transform="rotate(90 238 0.241821)" fill="white"/>
<rect x="238" y="0.241821" width="6.18183" height="6.18183" transform="rotate(90 238 0.241821)" fill="white"/>
<rect x="238" y="0.241821" width="6.18183" height="6.18183" transform="rotate(90 238 0.241821)" fill="white"/>
<rect x="238" y="0.241821" width="6.18183" height="6.18183" transform="rotate(90 238 0.241821)" fill="white"/>
<rect x="238" y="0.241821" width="6.18183" height="6.18183" transform="rotate(90 238 0.241821)" fill="white"/>
<rect x="238" y="0.241821" width="6.18183" height="6.18183" transform="rotate(90 238 0.241821)" fill="white"/>
<rect x="238" y="0.241821" width="6.18183" height="6.18183" transform="rotate(90 238 0.241821)" fill="white"/>
<rect x="238" y="0.241821" width="6.18183" height="6.18183" transform="rotate(90 238 0.241821)" fill="white"/>
<rect x="238" y="0.241821" width="6.18183" height="6.18183" transform="rotate(90 238 0.241821)" fill="white"/>
<rect x="238" y="0.241821" width="6.18183" height="6.18183" transform="rotate(90 238 0.241821)" fill="white"/>
<rect x="238" y="0.241821" width="6.18183" height="6.18183" transform="rotate(90 238 0.241821)" fill="white"/>
<rect x="238" y="0.241821" width="6.18183" height="6.18183" transform="rotate(90 238 0.241821)" fill="white"/>
<rect x="238" y="0.241821" width="6.18183" height="6.18183" transform="rotate(90 238 0.241821)" fill="white"/>
<rect x="238" y="0.241821" width="6.18183" height="6.18183" transform="rotate(90 238 0.241821)" fill="white"/>
<rect x="238" y="0.241821" width="6.18183" height="6.18183" transform="rotate(90 238 0.241821)" fill="white"/>
<rect x="238" y="0.241821" width="6.18183" height="6.18183" transform="rotate(90 238 0.241821)" fill="white"/>
<rect x="238" y="0.241821" width="6.18183" height="6.18183" transform="rotate(90 238 0.241821)" fill="white"/>
<rect x="238" y="0.241821" width="6.18183" height="6.18183" transform="rotate(90 238 0.241821)" fill="white"/>
<rect x="238" y="0.241821" width="6.18183" height="6.18183" transform="rotate(90 238 0.241821)" fill="white"/>
<rect x="238" y="0.241821" width="6.18183" height="6.18183" transform="rotate(90 238 0.241821)" fill="white"/>
<rect x="238" y="0.241821" width="6.18183" height="6.18183" transform="rotate(90 238 0.241821)" fill="white"/>
<rect x="238" y="0.241821" width="6.18183" height="6.18183" transform="rotate(90 238 0.241821)" fill="white"/>
<rect x="238" y="0.241821" width="6.18183" height="6.18183" transform="rotate(90 238 0.241821)" fill="white"/>
<rect x="238" y="0.241821" width="6.18183" height="6.18183" transform="rotate(90 238 0.241821)" fill="white"/>
<rect x="238" y="0.241821" width="6.18183" height="6.18183" transform="rotate(90 238 0.241821)" fill="white"/>
<rect x="238" y="0.241821" width="6.18183" height="6.18183" transform="rotate(90 238 0.241821)" fill="white"/>
<rect x="238" y="0.241821" width="6.18183" height="6.18183" transform="rotate(90 238 0.241821)" fill="white"/>
<rect x="122.606" y="126.97" width="6.18183" height="6.18183" transform="rotate(90 122.606 126.97)" fill="white"/>
<rect x="122.606" y="126.97" width="6.18183" height="6.18183" transform="rotate(90 122.606 126.97)" fill="white"/>
<rect x="122.606" y="126.97" width="6.18183" height="6.18183" transform="rotate(90 122.606 126.97)" fill="white"/>
<rect x="122.606" y="126.97" width="6.18183" height="6.18183" transform="rotate(90 122.606 126.97)" fill="white"/>
<rect x="122.606" y="126.97" width="6.18183" height="6.18183" transform="rotate(90 122.606 126.97)" fill="white"/>
<rect x="122.606" y="126.97" width="6.18183" height="6.18183" transform="rotate(90 122.606 126.97)" fill="white"/>
<rect x="122.606" y="126.97" width="6.18183" height="6.18183" transform="rotate(90 122.606 126.97)" fill="white"/>
<rect x="122.606" y="126.97" width="6.18183" height="6.18183" transform="rotate(90 122.606 126.97)" fill="white"/>
<rect x="122.606" y="126.97" width="6.18183" height="6.18183" transform="rotate(90 122.606 126.97)" fill="white"/>
<rect x="122.606" y="126.97" width="6.18183" height="6.18183" transform="rotate(90 122.606 126.97)" fill="white"/>
<rect x="122.606" y="126.97" width="6.18183" height="6.18183" transform="rotate(90 122.606 126.97)" fill="white"/>
<rect x="122.606" y="126.97" width="6.18183" height="6.18183" transform="rotate(90 122.606 126.97)" fill="white"/>
<rect x="122.606" y="126.97" width="6.18183" height="6.18183" transform="rotate(90 122.606 126.97)" fill="white"/>
<rect x="122.606" y="126.97" width="6.18183" height="6.18183" transform="rotate(90 122.606 126.97)" fill="white"/>
<rect x="122.606" y="126.97" width="6.18183" height="6.18183" transform="rotate(90 122.606 126.97)" fill="white"/>
<rect x="122.606" y="126.97" width="6.18183" height="6.18183" transform="rotate(90 122.606 126.97)" fill="white"/>
<rect x="122.606" y="126.97" width="6.18183" height="6.18183" transform="rotate(90 122.606 126.97)" fill="white"/>
<rect x="122.606" y="126.97" width="6.18183" height="6.18183" transform="rotate(90 122.606 126.97)" fill="white"/>
<rect x="122.606" y="126.97" width="6.18183" height="6.18183" transform="rotate(90 122.606 126.97)" fill="white"/>
<rect x="122.606" y="126.97" width="6.18183" height="6.18183" transform="rotate(90 122.606 126.97)" fill="white"/>
<rect x="122.606" y="126.97" width="6.18183" height="6.18183" transform="rotate(90 122.606 126.97)" fill="white"/>
<rect x="122.606" y="126.97" width="6.18183" height="6.18183" transform="rotate(90 122.606 126.97)" fill="white"/>
<rect x="122.606" y="126.97" width="6.18183" height="6.18183" transform="rotate(90 122.606 126.97)" fill="white"/>
<rect x="122.606" y="126.97" width="6.18183" height="6.18183" transform="rotate(90 122.606 126.97)" fill="white"/>
<rect x="122.606" y="126.97" width="6.18183" height="6.18183" transform="rotate(90 122.606 126.97)" fill="white"/>
<rect x="122.606" y="126.97" width="6.18183" height="6.18183" transform="rotate(90 122.606 126.97)" fill="white"/>
<rect x="122.606" y="126.97" width="6.18183" height="6.18183" transform="rotate(90 122.606 126.97)" fill="white"/>
<rect x="122.606" y="126.97" width="6.18183" height="6.18183" transform="rotate(90 122.606 126.97)" fill="white"/>
<rect x="63.8784" y="126.97" width="6.18183" height="5.15153" transform="rotate(90 63.8784 126.97)" fill="white"/>
<rect x="63.8784" y="126.97" width="6.18183" height="5.15153" transform="rotate(90 63.8784 126.97)" fill="white"/>
<rect x="63.8784" y="126.97" width="6.18183" height="5.15153" transform="rotate(90 63.8784 126.97)" fill="white"/>
<rect x="63.8784" y="126.97" width="6.18183" height="5.15153" transform="rotate(90 63.8784 126.97)" fill="white"/>
<rect x="63.8784" y="126.97" width="6.18183" height="5.15153" transform="rotate(90 63.8784 126.97)" fill="white"/>
<rect x="63.8784" y="126.97" width="6.18183" height="5.15153" transform="rotate(90 63.8784 126.97)" fill="white"/>
<rect x="63.8784" y="126.97" width="6.18183" height="5.15153" transform="rotate(90 63.8784 126.97)" fill="white"/>
<rect x="63.8784" y="126.97" width="6.18183" height="5.15153" transform="rotate(90 63.8784 126.97)" fill="white"/>
<rect x="63.8784" y="126.97" width="6.18183" height="5.15153" transform="rotate(90 63.8784 126.97)" fill="white"/>
<rect x="63.8784" y="126.97" width="6.18183" height="5.15153" transform="rotate(90 63.8784 126.97)" fill="white"/>
<rect x="63.8784" y="126.97" width="6.18183" height="5.15153" transform="rotate(90 63.8784 126.97)" fill="white"/>
<rect x="63.8784" y="126.97" width="6.18183" height="5.15153" transform="rotate(90 63.8784 126.97)" fill="white"/>
<rect x="63.8784" y="126.97" width="6.18183" height="5.15153" transform="rotate(90 63.8784 126.97)" fill="white"/>
<rect x="63.8784" y="126.97" width="6.18183" height="5.15153" transform="rotate(90 63.8784 126.97)" fill="white"/>
<rect x="63.8784" y="126.97" width="6.18183" height="5.15153" transform="rotate(90 63.8784 126.97)" fill="white"/>
<rect x="63.8784" y="126.97" width="6.18183" height="5.15153" transform="rotate(90 63.8784 126.97)" fill="white"/>
<rect x="63.8784" y="126.97" width="6.18183" height="5.15153" transform="rotate(90 63.8784 126.97)" fill="white"/>
<rect x="63.8784" y="126.97" width="6.18183" height="5.15153" transform="rotate(90 63.8784 126.97)" fill="white"/>
<rect x="63.8784" y="126.97" width="6.18183" height="5.15153" transform="rotate(90 63.8784 126.97)" fill="white"/>
<rect x="63.8784" y="126.97" width="6.18183" height="5.15153" transform="rotate(90 63.8784 126.97)" fill="white"/>
<rect x="63.8784" y="126.97" width="6.18183" height="5.15153" transform="rotate(90 63.8784 126.97)" fill="white"/>
<rect x="63.8784" y="126.97" width="6.18183" height="5.15153" transform="rotate(90 63.8784 126.97)" fill="white"/>
<rect x="63.8784" y="126.97" width="6.18183" height="5.15153" transform="rotate(90 63.8784 126.97)" fill="white"/>
<rect x="63.8784" y="126.97" width="6.18183" height="5.15153" transform="rotate(90 63.8784 126.97)" fill="white"/>
<rect x="63.8784" y="126.97" width="6.18183" height="5.15153" transform="rotate(90 63.8784 126.97)" fill="white"/>
<rect x="63.8784" y="126.97" width="6.18183" height="5.15153" transform="rotate(90 63.8784 126.97)" fill="white"/>
<rect x="63.8784" y="126.97" width="6.18183" height="5.15153" transform="rotate(90 63.8784 126.97)" fill="white"/>
<rect x="63.8784" y="126.97" width="6.18183" height="5.15153" transform="rotate(90 63.8784 126.97)" fill="white"/>
<rect x="6.18176" y="126.97" width="6.18183" height="6.18183" transform="rotate(90 6.18176 126.97)" fill="white"/>
<rect x="6.18176" y="126.97" width="6.18183" height="6.18183" transform="rotate(90 6.18176 126.97)" fill="white"/>
<rect x="6.18176" y="126.97" width="6.18183" height="6.18183" transform="rotate(90 6.18176 126.97)" fill="white"/>
<rect x="6.18176" y="126.97" width="6.18183" height="6.18183" transform="rotate(90 6.18176 126.97)" fill="white"/>
<rect x="6.18176" y="126.97" width="6.18183" height="6.18183" transform="rotate(90 6.18176 126.97)" fill="white"/>
<rect x="6.18176" y="126.97" width="6.18183" height="6.18183" transform="rotate(90 6.18176 126.97)" fill="white"/>
<rect x="6.18176" y="126.97" width="6.18183" height="6.18183" transform="rotate(90 6.18176 126.97)" fill="white"/>
<rect x="6.18176" y="126.97" width="6.18183" height="6.18183" transform="rotate(90 6.18176 126.97)" fill="white"/>
<rect x="6.18176" y="126.97" width="6.18183" height="6.18183" transform="rotate(90 6.18176 126.97)" fill="white"/>
<rect x="6.18176" y="126.97" width="6.18183" height="6.18183" transform="rotate(90 6.18176 126.97)" fill="white"/>
<rect x="6.18176" y="126.97" width="6.18183" height="6.18183" transform="rotate(90 6.18176 126.97)" fill="white"/>
<rect x="6.18176" y="126.97" width="6.18183" height="6.18183" transform="rotate(90 6.18176 126.97)" fill="white"/>
<rect x="6.18176" y="126.97" width="6.18183" height="6.18183" transform="rotate(90 6.18176 126.97)" fill="white"/>
<rect x="6.18176" y="126.97" width="6.18183" height="6.18183" transform="rotate(90 6.18176 126.97)" fill="white"/>
<rect x="6.18176" y="126.97" width="6.18183" height="6.18183" transform="rotate(90 6.18176 126.97)" fill="white"/>
<rect x="6.18176" y="126.97" width="6.18183" height="6.18183" transform="rotate(90 6.18176 126.97)" fill="white"/>
<rect x="6.18176" y="126.97" width="6.18183" height="6.18183" transform="rotate(90 6.18176 126.97)" fill="white"/>
<rect x="6.18176" y="126.97" width="6.18183" height="6.18183" transform="rotate(90 6.18176 126.97)" fill="white"/>
<rect x="6.18176" y="126.97" width="6.18183" height="6.18183" transform="rotate(90 6.18176 126.97)" fill="white"/>
<rect x="6.18176" y="126.97" width="6.18183" height="6.18183" transform="rotate(90 6.18176 126.97)" fill="white"/>
<rect x="6.18176" y="126.97" width="6.18183" height="6.18183" transform="rotate(90 6.18176 126.97)" fill="white"/>
<rect x="6.18176" y="126.97" width="6.18183" height="6.18183" transform="rotate(90 6.18176 126.97)" fill="white"/>
<rect x="6.18176" y="126.97" width="6.18183" height="6.18183" transform="rotate(90 6.18176 126.97)" fill="white"/>
<rect x="6.18176" y="126.97" width="6.18183" height="6.18183" transform="rotate(90 6.18176 126.97)" fill="white"/>
<rect x="6.18176" y="126.97" width="6.18183" height="6.18183" transform="rotate(90 6.18176 126.97)" fill="white"/>
<rect x="6.18176" y="126.97" width="6.18183" height="6.18183" transform="rotate(90 6.18176 126.97)" fill="white"/>
<rect x="6.18176" y="126.97" width="6.18183" height="6.18183" transform="rotate(90 6.18176 126.97)" fill="white"/>
<rect x="6.18176" y="126.97" width="6.18183" height="6.18183" transform="rotate(90 6.18176 126.97)" fill="white"/>
<rect x="63.8784" y="0.241821" width="6.18183" height="5.15153" transform="rotate(90 63.8784 0.241821)" fill="white"/>
<rect x="63.8784" y="0.241821" width="6.18183" height="5.15153" transform="rotate(90 63.8784 0.241821)" fill="white"/>
<rect x="63.8784" y="0.241821" width="6.18183" height="5.15153" transform="rotate(90 63.8784 0.241821)" fill="white"/>
<rect x="63.8784" y="0.241821" width="6.18183" height="5.15153" transform="rotate(90 63.8784 0.241821)" fill="white"/>
<rect x="63.8784" y="0.241821" width="6.18183" height="5.15153" transform="rotate(90 63.8784 0.241821)" fill="white"/>
<rect x="63.8784" y="0.241821" width="6.18183" height="5.15153" transform="rotate(90 63.8784 0.241821)" fill="white"/>
<rect x="63.8784" y="0.241821" width="6.18183" height="5.15153" transform="rotate(90 63.8784 0.241821)" fill="white"/>
<rect x="63.8784" y="0.241821" width="6.18183" height="5.15153" transform="rotate(90 63.8784 0.241821)" fill="white"/>
<rect x="63.8784" y="0.241821" width="6.18183" height="5.15153" transform="rotate(90 63.8784 0.241821)" fill="white"/>
<rect x="63.8784" y="0.241821" width="6.18183" height="5.15153" transform="rotate(90 63.8784 0.241821)" fill="white"/>
<rect x="63.8784" y="0.241821" width="6.18183" height="5.15153" transform="rotate(90 63.8784 0.241821)" fill="white"/>
<rect x="63.8784" y="0.241821" width="6.18183" height="5.15153" transform="rotate(90 63.8784 0.241821)" fill="white"/>
<rect x="63.8784" y="0.241821" width="6.18183" height="5.15153" transform="rotate(90 63.8784 0.241821)" fill="white"/>
<rect x="63.8784" y="0.241821" width="6.18183" height="5.15153" transform="rotate(90 63.8784 0.241821)" fill="white"/>
<rect x="63.8784" y="0.241821" width="6.18183" height="5.15153" transform="rotate(90 63.8784 0.241821)" fill="white"/>
<rect x="63.8784" y="0.241821" width="6.18183" height="5.15153" transform="rotate(90 63.8784 0.241821)" fill="white"/>
<rect x="63.8784" y="0.241821" width="6.18183" height="5.15153" transform="rotate(90 63.8784 0.241821)" fill="white"/>
<rect x="63.8784" y="0.241821" width="6.18183" height="5.15153" transform="rotate(90 63.8784 0.241821)" fill="white"/>
<rect x="63.8784" y="0.241821" width="6.18183" height="5.15153" transform="rotate(90 63.8784 0.241821)" fill="white"/>
<rect x="63.8784" y="0.241821" width="6.18183" height="5.15153" transform="rotate(90 63.8784 0.241821)" fill="white"/>
<rect x="63.8784" y="0.241821" width="6.18183" height="5.15153" transform="rotate(90 63.8784 0.241821)" fill="white"/>
<rect x="63.8784" y="0.241821" width="6.18183" height="5.15153" transform="rotate(90 63.8784 0.241821)" fill="white"/>
<rect x="63.8784" y="0.241821" width="6.18183" height="5.15153" transform="rotate(90 63.8784 0.241821)" fill="white"/>
<rect x="63.8784" y="0.241821" width="6.18183" height="5.15153" transform="rotate(90 63.8784 0.241821)" fill="white"/>
<rect x="63.8784" y="0.241821" width="6.18183" height="5.15153" transform="rotate(90 63.8784 0.241821)" fill="white"/>
<rect x="63.8784" y="0.241821" width="6.18183" height="5.15153" transform="rotate(90 63.8784 0.241821)" fill="white"/>
<rect x="63.8784" y="0.241821" width="6.18183" height="5.15153" transform="rotate(90 63.8784 0.241821)" fill="white"/>
<rect x="63.8784" y="0.241821" width="6.18183" height="5.15153" transform="rotate(90 63.8784 0.241821)" fill="white"/>
<rect x="6.18176" y="0.241821" width="6.18183" height="6.18183" transform="rotate(90 6.18176 0.241821)" fill="white"/>
<rect x="6.18176" y="0.241821" width="6.18183" height="6.18183" transform="rotate(90 6.18176 0.241821)" fill="white"/>
<rect x="6.18176" y="0.241821" width="6.18183" height="6.18183" transform="rotate(90 6.18176 0.241821)" fill="white"/>
<rect x="6.18176" y="0.241821" width="6.18183" height="6.18183" transform="rotate(90 6.18176 0.241821)" fill="white"/>
<rect x="6.18176" y="0.241821" width="6.18183" height="6.18183" transform="rotate(90 6.18176 0.241821)" fill="white"/>
<rect x="6.18176" y="0.241821" width="6.18183" height="6.18183" transform="rotate(90 6.18176 0.241821)" fill="white"/>
<rect x="6.18176" y="0.241821" width="6.18183" height="6.18183" transform="rotate(90 6.18176 0.241821)" fill="white"/>
<rect x="6.18176" y="0.241821" width="6.18183" height="6.18183" transform="rotate(90 6.18176 0.241821)" fill="white"/>
<rect x="6.18176" y="0.241821" width="6.18183" height="6.18183" transform="rotate(90 6.18176 0.241821)" fill="white"/>
<rect x="6.18176" y="0.241821" width="6.18183" height="6.18183" transform="rotate(90 6.18176 0.241821)" fill="white"/>
<rect x="6.18176" y="0.241821" width="6.18183" height="6.18183" transform="rotate(90 6.18176 0.241821)" fill="white"/>
<rect x="6.18176" y="0.241821" width="6.18183" height="6.18183" transform="rotate(90 6.18176 0.241821)" fill="white"/>
<rect x="6.18176" y="0.241821" width="6.18183" height="6.18183" transform="rotate(90 6.18176 0.241821)" fill="white"/>
<rect x="6.18176" y="0.241821" width="6.18183" height="6.18183" transform="rotate(90 6.18176 0.241821)" fill="white"/>
<rect x="6.18176" y="0.241821" width="6.18183" height="6.18183" transform="rotate(90 6.18176 0.241821)" fill="white"/>
<rect x="6.18176" y="0.241821" width="6.18183" height="6.18183" transform="rotate(90 6.18176 0.241821)" fill="white"/>
<rect x="6.18176" y="0.241821" width="6.18183" height="6.18183" transform="rotate(90 6.18176 0.241821)" fill="white"/>
<rect x="6.18176" y="0.241821" width="6.18183" height="6.18183" transform="rotate(90 6.18176 0.241821)" fill="white"/>
<rect x="6.18176" y="0.241821" width="6.18183" height="6.18183" transform="rotate(90 6.18176 0.241821)" fill="white"/>
<rect x="6.18176" y="0.241821" width="6.18183" height="6.18183" transform="rotate(90 6.18176 0.241821)" fill="white"/>
<rect x="6.18176" y="0.241821" width="6.18183" height="6.18183" transform="rotate(90 6.18176 0.241821)" fill="white"/>
<rect x="6.18176" y="0.241821" width="6.18183" height="6.18183" transform="rotate(90 6.18176 0.241821)" fill="white"/>
<rect x="6.18176" y="0.241821" width="6.18183" height="6.18183" transform="rotate(90 6.18176 0.241821)" fill="white"/>
<rect x="6.18176" y="0.241821" width="6.18183" height="6.18183" transform="rotate(90 6.18176 0.241821)" fill="white"/>
<rect x="6.18176" y="0.241821" width="6.18183" height="6.18183" transform="rotate(90 6.18176 0.241821)" fill="white"/>
<rect x="6.18176" y="0.241821" width="6.18183" height="6.18183" transform="rotate(90 6.18176 0.241821)" fill="white"/>
<rect x="6.18176" y="0.241821" width="6.18183" height="6.18183" transform="rotate(90 6.18176 0.241821)" fill="white"/>
<rect x="6.18176" y="0.241821" width="6.18183" height="6.18183" transform="rotate(90 6.18176 0.241821)" fill="white"/>
<rect x="6.18176" y="63.0895" width="6.18183" height="6.18183" transform="rotate(90 6.18176 63.0895)" fill="white"/>
<rect x="6.18176" y="63.0895" width="6.18183" height="6.18183" transform="rotate(90 6.18176 63.0895)" fill="white"/>
<rect x="6.18176" y="63.0895" width="6.18183" height="6.18183" transform="rotate(90 6.18176 63.0895)" fill="white"/>
<rect x="6.18176" y="63.0895" width="6.18183" height="6.18183" transform="rotate(90 6.18176 63.0895)" fill="white"/>
<rect x="6.18176" y="63.0895" width="6.18183" height="6.18183" transform="rotate(90 6.18176 63.0895)" fill="white"/>
<rect x="6.18176" y="63.0895" width="6.18183" height="6.18183" transform="rotate(90 6.18176 63.0895)" fill="white"/>
<rect x="6.18176" y="63.0895" width="6.18183" height="6.18183" transform="rotate(90 6.18176 63.0895)" fill="white"/>
<rect x="6.18176" y="63.0895" width="6.18183" height="6.18183" transform="rotate(90 6.18176 63.0895)" fill="white"/>
<rect x="6.18176" y="63.0895" width="6.18183" height="6.18183" transform="rotate(90 6.18176 63.0895)" fill="white"/>
<rect x="6.18176" y="63.0895" width="6.18183" height="6.18183" transform="rotate(90 6.18176 63.0895)" fill="white"/>
<rect x="6.18176" y="63.0895" width="6.18183" height="6.18183" transform="rotate(90 6.18176 63.0895)" fill="white"/>
<rect x="6.18176" y="63.0895" width="6.18183" height="6.18183" transform="rotate(90 6.18176 63.0895)" fill="white"/>
<rect x="6.18176" y="63.0895" width="6.18183" height="6.18183" transform="rotate(90 6.18176 63.0895)" fill="white"/>
<rect x="6.18176" y="63.0895" width="6.18183" height="6.18183" transform="rotate(90 6.18176 63.0895)" fill="white"/>
<rect x="6.18176" y="63.0895" width="6.18183" height="6.18183" transform="rotate(90 6.18176 63.0895)" fill="white"/>
<rect x="6.18176" y="63.0895" width="6.18183" height="6.18183" transform="rotate(90 6.18176 63.0895)" fill="white"/>
<rect x="6.18176" y="63.0895" width="6.18183" height="6.18183" transform="rotate(90 6.18176 63.0895)" fill="white"/>
<rect x="6.18176" y="63.0895" width="6.18183" height="6.18183" transform="rotate(90 6.18176 63.0895)" fill="white"/>
<rect x="6.18176" y="63.0895" width="6.18183" height="6.18183" transform="rotate(90 6.18176 63.0895)" fill="white"/>
<rect x="6.18176" y="63.0895" width="6.18183" height="6.18183" transform="rotate(90 6.18176 63.0895)" fill="white"/>
<rect x="6.18176" y="63.0895" width="6.18183" height="6.18183" transform="rotate(90 6.18176 63.0895)" fill="white"/>
<rect x="6.18176" y="63.0895" width="6.18183" height="6.18183" transform="rotate(90 6.18176 63.0895)" fill="white"/>
<rect x="6.18176" y="63.0895" width="6.18183" height="6.18183" transform="rotate(90 6.18176 63.0895)" fill="white"/>
<rect x="6.18176" y="63.0895" width="6.18183" height="6.18183" transform="rotate(90 6.18176 63.0895)" fill="white"/>
<rect x="6.18176" y="63.0895" width="6.18183" height="6.18183" transform="rotate(90 6.18176 63.0895)" fill="white"/>
<rect x="6.18176" y="63.0895" width="6.18183" height="6.18183" transform="rotate(90 6.18176 63.0895)" fill="white"/>
<rect x="6.18176" y="63.0895" width="6.18183" height="6.18183" transform="rotate(90 6.18176 63.0895)" fill="white"/>
<rect x="6.18176" y="63.0895" width="6.18183" height="6.18183" transform="rotate(90 6.18176 63.0895)" fill="white"/>
<rect x="68" y="59.9984" width="12.3637" height="13.394" transform="rotate(90 68 59.9984)" fill="white"/>
<rect x="68" y="59.9984" width="12.3637" height="13.394" transform="rotate(90 68 59.9984)" fill="white"/>
<rect x="68" y="59.9984" width="12.3637" height="13.394" transform="rotate(90 68 59.9984)" fill="white"/>
<rect x="68" y="59.9984" width="12.3637" height="13.394" transform="rotate(90 68 59.9984)" fill="white"/>
<rect x="68" y="59.9984" width="12.3637" height="13.394" transform="rotate(90 68 59.9984)" fill="white"/>
<rect x="68" y="59.9984" width="12.3637" height="13.394" transform="rotate(90 68 59.9984)" fill="white"/>
<rect x="68" y="59.9984" width="12.3637" height="13.394" transform="rotate(90 68 59.9984)" fill="white"/>
<rect x="68" y="59.9984" width="12.3637" height="13.394" transform="rotate(90 68 59.9984)" fill="white"/>
<rect x="68" y="59.9984" width="12.3637" height="13.394" transform="rotate(90 68 59.9984)" fill="white"/>
<rect x="68" y="59.9984" width="12.3637" height="13.394" transform="rotate(90 68 59.9984)" fill="white"/>
<rect x="68" y="59.9984" width="12.3637" height="13.394" transform="rotate(90 68 59.9984)" fill="white"/>
<rect x="68" y="59.9984" width="12.3637" height="13.394" transform="rotate(90 68 59.9984)" fill="white"/>
<rect x="68" y="59.9984" width="12.3637" height="13.394" transform="rotate(90 68 59.9984)" fill="white"/>
<rect x="68" y="59.9984" width="12.3637" height="13.394" transform="rotate(90 68 59.9984)" fill="white"/>
<rect x="68" y="59.9984" width="12.3637" height="13.394" transform="rotate(90 68 59.9984)" fill="white"/>
<rect x="68" y="59.9984" width="12.3637" height="13.394" transform="rotate(90 68 59.9984)" fill="white"/>
<rect x="68" y="59.9984" width="12.3637" height="13.394" transform="rotate(90 68 59.9984)" fill="white"/>
<rect x="68" y="59.9984" width="12.3637" height="13.394" transform="rotate(90 68 59.9984)" fill="white"/>
<rect x="68" y="59.9984" width="12.3637" height="13.394" transform="rotate(90 68 59.9984)" fill="white"/>
<rect x="68" y="59.9984" width="12.3637" height="13.394" transform="rotate(90 68 59.9984)" fill="white"/>
<rect x="68" y="59.9984" width="12.3637" height="13.394" transform="rotate(90 68 59.9984)" fill="white"/>
<rect x="68" y="59.9984" width="12.3637" height="13.394" transform="rotate(90 68 59.9984)" fill="white"/>
<rect x="68" y="59.9984" width="12.3637" height="13.394" transform="rotate(90 68 59.9984)" fill="white"/>
<rect x="68" y="59.9984" width="12.3637" height="13.394" transform="rotate(90 68 59.9984)" fill="white"/>
<rect x="68" y="59.9984" width="12.3637" height="13.394" transform="rotate(90 68 59.9984)" fill="white"/>
<rect x="68" y="59.9984" width="12.3637" height="13.394" transform="rotate(90 68 59.9984)" fill="white"/>
<rect x="68" y="59.9984" width="12.3637" height="13.394" transform="rotate(90 68 59.9984)" fill="white"/>
<rect x="68" y="59.9984" width="12.3637" height="13.394" transform="rotate(90 68 59.9984)" fill="white"/>
<path d="M413.152 7.45508L423.455 7.45508L423.455 2.30355L408 2.30355L413.152 7.45508Z" fill="white"/>
</svg>
