<svg width="333" height="721" viewBox="0 0 333 721" fill="none" xmlns="http://www.w3.org/2000/svg">
<rect x="0.0195312" y="113.914" width="10.5152" height="10.5152" fill="white"/>
<rect x="0.0195312" y="113.914" width="10.5152" height="10.5152" fill="white"/>
<rect x="0.0195312" y="113.914" width="10.5152" height="10.5152" fill="white"/>
<rect x="0.0195312" y="113.914" width="10.5152" height="10.5152" fill="white"/>
<rect x="0.0195312" y="113.914" width="10.5152" height="10.5152" fill="white"/>
<rect x="0.0195312" y="113.914" width="10.5152" height="10.5152" fill="white"/>
<rect x="0.0195312" y="113.914" width="10.5152" height="10.5152" fill="white"/>
<rect x="0.0195312" y="113.914" width="10.5152" height="10.5152" fill="white"/>
<rect x="0.0195312" y="113.914" width="10.5152" height="10.5152" fill="white"/>
<rect x="0.0195312" y="113.914" width="10.5152" height="10.5152" fill="white"/>
<rect x="0.0195312" y="113.914" width="10.5152" height="10.5152" fill="white"/>
<rect x="0.0195312" y="113.914" width="10.5152" height="10.5152" fill="white"/>
<rect x="0.0195312" y="113.914" width="10.5152" height="10.5152" fill="white"/>
<rect x="0.0195312" y="113.914" width="10.5152" height="10.5152" fill="white"/>
<rect x="0.0195312" y="113.914" width="10.5152" height="10.5152" fill="white"/>
<rect x="0.0195312" y="113.914" width="10.5152" height="10.5152" fill="white"/>
<rect x="0.0195312" y="113.914" width="10.5152" height="10.5152" fill="white"/>
<rect x="0.0195312" y="113.914" width="10.5152" height="10.5152" fill="white"/>
<rect x="0.0195312" y="113.914" width="10.5152" height="10.5152" fill="white"/>
<rect x="0.0195312" y="113.914" width="10.5152" height="10.5152" fill="white"/>
<rect x="0.0195312" y="113.914" width="10.5152" height="10.5152" fill="white"/>
<rect x="0.0195312" y="113.914" width="10.5152" height="10.5152" fill="white"/>
<rect x="0.0195312" y="113.914" width="10.5152" height="10.5152" fill="white"/>
<rect x="0.0195312" y="113.914" width="10.5152" height="10.5152" fill="white"/>
<rect x="0.0195312" y="113.914" width="10.5152" height="10.5152" fill="white"/>
<rect x="0.0195312" y="113.914" width="10.5152" height="10.5152" fill="white"/>
<rect x="0.0195312" y="113.914" width="10.5152" height="10.5152" fill="white"/>
<rect x="0.0195312" y="113.914" width="10.5152" height="10.5152" fill="white"/>
<rect x="0.0195312" y="213.808" width="10.5152" height="8.76263" fill="white"/>
<rect x="0.0195312" y="213.808" width="10.5152" height="8.76263" fill="white"/>
<rect x="0.0195312" y="213.808" width="10.5152" height="8.76263" fill="white"/>
<rect x="0.0195312" y="213.808" width="10.5152" height="8.76263" fill="white"/>
<rect x="0.0195312" y="213.808" width="10.5152" height="8.76263" fill="white"/>
<rect x="0.0195312" y="213.808" width="10.5152" height="8.76263" fill="white"/>
<rect x="0.0195312" y="213.808" width="10.5152" height="8.76263" fill="white"/>
<rect x="0.0195312" y="213.808" width="10.5152" height="8.76263" fill="white"/>
<rect x="0.0195312" y="213.808" width="10.5152" height="8.76263" fill="white"/>
<rect x="0.0195312" y="213.808" width="10.5152" height="8.76263" fill="white"/>
<rect x="0.0195312" y="213.808" width="10.5152" height="8.76263" fill="white"/>
<rect x="0.0195312" y="213.808" width="10.5152" height="8.76263" fill="white"/>
<rect x="0.0195312" y="213.808" width="10.5152" height="8.76263" fill="white"/>
<rect x="0.0195312" y="213.808" width="10.5152" height="8.76263" fill="white"/>
<rect x="0.0195312" y="213.808" width="10.5152" height="8.76263" fill="white"/>
<rect x="0.0195312" y="213.808" width="10.5152" height="8.76263" fill="white"/>
<rect x="0.0195312" y="213.808" width="10.5152" height="8.76263" fill="white"/>
<rect x="0.0195312" y="213.808" width="10.5152" height="8.76263" fill="white"/>
<rect x="0.0195312" y="213.808" width="10.5152" height="8.76263" fill="white"/>
<rect x="0.0195312" y="213.808" width="10.5152" height="8.76263" fill="white"/>
<rect x="0.0195312" y="213.808" width="10.5152" height="8.76263" fill="white"/>
<rect x="0.0195312" y="213.808" width="10.5152" height="8.76263" fill="white"/>
<rect x="0.0195312" y="213.808" width="10.5152" height="8.76263" fill="white"/>
<rect x="0.0195312" y="213.808" width="10.5152" height="8.76263" fill="white"/>
<rect x="0.0195312" y="213.808" width="10.5152" height="8.76263" fill="white"/>
<rect x="0.0195312" y="213.808" width="10.5152" height="8.76263" fill="white"/>
<rect x="0.0195312" y="213.808" width="10.5152" height="8.76263" fill="white"/>
<rect x="0.0195312" y="213.808" width="10.5152" height="8.76263" fill="white"/>
<rect x="0.0195312" y="511.737" width="10.5152" height="10.5152" fill="white"/>
<rect x="0.0195312" y="511.737" width="10.5152" height="10.5152" fill="white"/>
<rect x="0.0195312" y="511.737" width="10.5152" height="10.5152" fill="white"/>
<rect x="0.0195312" y="511.737" width="10.5152" height="10.5152" fill="white"/>
<rect x="0.0195312" y="511.737" width="10.5152" height="10.5152" fill="white"/>
<rect x="0.0195312" y="511.737" width="10.5152" height="10.5152" fill="white"/>
<rect x="0.0195312" y="511.737" width="10.5152" height="10.5152" fill="white"/>
<rect x="0.0195312" y="511.737" width="10.5152" height="10.5152" fill="white"/>
<rect x="0.0195312" y="511.737" width="10.5152" height="10.5152" fill="white"/>
<rect x="0.0195312" y="511.737" width="10.5152" height="10.5152" fill="white"/>
<rect x="0.0195312" y="511.737" width="10.5152" height="10.5152" fill="white"/>
<rect x="0.0195312" y="511.737" width="10.5152" height="10.5152" fill="white"/>
<rect x="0.0195312" y="511.737" width="10.5152" height="10.5152" fill="white"/>
<rect x="0.0195312" y="511.737" width="10.5152" height="10.5152" fill="white"/>
<rect x="0.0195312" y="511.737" width="10.5152" height="10.5152" fill="white"/>
<rect x="0.0195312" y="511.737" width="10.5152" height="10.5152" fill="white"/>
<rect x="0.0195312" y="511.737" width="10.5152" height="10.5152" fill="white"/>
<rect x="0.0195312" y="511.737" width="10.5152" height="10.5152" fill="white"/>
<rect x="0.0195312" y="511.737" width="10.5152" height="10.5152" fill="white"/>
<rect x="0.0195312" y="511.737" width="10.5152" height="10.5152" fill="white"/>
<rect x="0.0195312" y="511.737" width="10.5152" height="10.5152" fill="white"/>
<rect x="0.0195312" y="511.737" width="10.5152" height="10.5152" fill="white"/>
<rect x="0.0195312" y="511.737" width="10.5152" height="10.5152" fill="white"/>
<rect x="0.0195312" y="511.737" width="10.5152" height="10.5152" fill="white"/>
<rect x="0.0195312" y="511.737" width="10.5152" height="10.5152" fill="white"/>
<rect x="0.0195312" y="511.737" width="10.5152" height="10.5152" fill="white"/>
<rect x="0.0195312" y="511.737" width="10.5152" height="10.5152" fill="white"/>
<rect x="0.0195312" y="511.737" width="10.5152" height="10.5152" fill="white"/>
<rect x="106.922" y="411.844" width="10.5152" height="10.5152" fill="white"/>
<rect x="106.922" y="411.844" width="10.5152" height="10.5152" fill="white"/>
<rect x="106.922" y="411.844" width="10.5152" height="10.5152" fill="white"/>
<rect x="106.922" y="411.844" width="10.5152" height="10.5152" fill="white"/>
<rect x="106.922" y="411.844" width="10.5152" height="10.5152" fill="white"/>
<rect x="106.922" y="411.844" width="10.5152" height="10.5152" fill="white"/>
<rect x="106.922" y="411.844" width="10.5152" height="10.5152" fill="white"/>
<rect x="106.922" y="411.844" width="10.5152" height="10.5152" fill="white"/>
<rect x="106.922" y="411.844" width="10.5152" height="10.5152" fill="white"/>
<rect x="106.922" y="411.844" width="10.5152" height="10.5152" fill="white"/>
<rect x="106.922" y="411.844" width="10.5152" height="10.5152" fill="white"/>
<rect x="106.922" y="411.844" width="10.5152" height="10.5152" fill="white"/>
<rect x="106.922" y="411.844" width="10.5152" height="10.5152" fill="white"/>
<rect x="106.922" y="411.844" width="10.5152" height="10.5152" fill="white"/>
<rect x="106.922" y="411.844" width="10.5152" height="10.5152" fill="white"/>
<rect x="106.922" y="411.844" width="10.5152" height="10.5152" fill="white"/>
<rect x="106.922" y="411.844" width="10.5152" height="10.5152" fill="white"/>
<rect x="106.922" y="411.844" width="10.5152" height="10.5152" fill="white"/>
<rect x="106.922" y="411.844" width="10.5152" height="10.5152" fill="white"/>
<rect x="106.922" y="411.844" width="10.5152" height="10.5152" fill="white"/>
<rect x="106.922" y="411.844" width="10.5152" height="10.5152" fill="white"/>
<rect x="106.922" y="411.844" width="10.5152" height="10.5152" fill="white"/>
<rect x="106.922" y="411.844" width="10.5152" height="10.5152" fill="white"/>
<rect x="106.922" y="411.844" width="10.5152" height="10.5152" fill="white"/>
<rect x="106.922" y="411.844" width="10.5152" height="10.5152" fill="white"/>
<rect x="106.922" y="411.844" width="10.5152" height="10.5152" fill="white"/>
<rect x="106.922" y="411.844" width="10.5152" height="10.5152" fill="white"/>
<rect x="106.922" y="411.844" width="10.5152" height="10.5152" fill="white"/>
<rect x="106.922" y="311.949" width="10.5152" height="10.5152" fill="white"/>
<rect x="106.922" y="311.949" width="10.5152" height="10.5152" fill="white"/>
<rect x="106.922" y="311.949" width="10.5152" height="10.5152" fill="white"/>
<rect x="106.922" y="311.949" width="10.5152" height="10.5152" fill="white"/>
<rect x="106.922" y="311.949" width="10.5152" height="10.5152" fill="white"/>
<rect x="106.922" y="311.949" width="10.5152" height="10.5152" fill="white"/>
<rect x="106.922" y="311.949" width="10.5152" height="10.5152" fill="white"/>
<rect x="106.922" y="311.949" width="10.5152" height="10.5152" fill="white"/>
<rect x="106.922" y="311.949" width="10.5152" height="10.5152" fill="white"/>
<rect x="106.922" y="311.949" width="10.5152" height="10.5152" fill="white"/>
<rect x="106.922" y="311.949" width="10.5152" height="10.5152" fill="white"/>
<rect x="106.922" y="311.949" width="10.5152" height="10.5152" fill="white"/>
<rect x="106.922" y="311.949" width="10.5152" height="10.5152" fill="white"/>
<rect x="106.922" y="311.949" width="10.5152" height="10.5152" fill="white"/>
<rect x="106.922" y="311.949" width="10.5152" height="10.5152" fill="white"/>
<rect x="106.922" y="311.949" width="10.5152" height="10.5152" fill="white"/>
<rect x="106.922" y="311.949" width="10.5152" height="10.5152" fill="white"/>
<rect x="106.922" y="311.949" width="10.5152" height="10.5152" fill="white"/>
<rect x="106.922" y="311.949" width="10.5152" height="10.5152" fill="white"/>
<rect x="106.922" y="311.949" width="10.5152" height="10.5152" fill="white"/>
<rect x="106.922" y="311.949" width="10.5152" height="10.5152" fill="white"/>
<rect x="106.922" y="311.949" width="10.5152" height="10.5152" fill="white"/>
<rect x="106.922" y="311.949" width="10.5152" height="10.5152" fill="white"/>
<rect x="106.922" y="311.949" width="10.5152" height="10.5152" fill="white"/>
<rect x="106.922" y="311.949" width="10.5152" height="10.5152" fill="white"/>
<rect x="106.922" y="311.949" width="10.5152" height="10.5152" fill="white"/>
<rect x="106.922" y="311.949" width="10.5152" height="10.5152" fill="white"/>
<rect x="106.922" y="311.949" width="10.5152" height="10.5152" fill="white"/>
<rect x="106.922" y="213.808" width="10.5152" height="8.76263" fill="white"/>
<rect x="106.922" y="213.808" width="10.5152" height="8.76263" fill="white"/>
<rect x="106.922" y="213.808" width="10.5152" height="8.76263" fill="white"/>
<rect x="106.922" y="213.808" width="10.5152" height="8.76263" fill="white"/>
<rect x="106.922" y="213.808" width="10.5152" height="8.76263" fill="white"/>
<rect x="106.922" y="213.808" width="10.5152" height="8.76263" fill="white"/>
<rect x="106.922" y="213.808" width="10.5152" height="8.76263" fill="white"/>
<rect x="106.922" y="213.808" width="10.5152" height="8.76263" fill="white"/>
<rect x="106.922" y="213.808" width="10.5152" height="8.76263" fill="white"/>
<rect x="106.922" y="213.808" width="10.5152" height="8.76263" fill="white"/>
<rect x="106.922" y="213.808" width="10.5152" height="8.76263" fill="white"/>
<rect x="106.922" y="213.808" width="10.5152" height="8.76263" fill="white"/>
<rect x="106.922" y="213.808" width="10.5152" height="8.76263" fill="white"/>
<rect x="106.922" y="213.808" width="10.5152" height="8.76263" fill="white"/>
<rect x="106.922" y="213.808" width="10.5152" height="8.76263" fill="white"/>
<rect x="106.922" y="213.808" width="10.5152" height="8.76263" fill="white"/>
<rect x="106.922" y="213.808" width="10.5152" height="8.76263" fill="white"/>
<rect x="106.922" y="213.808" width="10.5152" height="8.76263" fill="white"/>
<rect x="106.922" y="213.808" width="10.5152" height="8.76263" fill="white"/>
<rect x="106.922" y="213.808" width="10.5152" height="8.76263" fill="white"/>
<rect x="106.922" y="213.808" width="10.5152" height="8.76263" fill="white"/>
<rect x="106.922" y="213.808" width="10.5152" height="8.76263" fill="white"/>
<rect x="106.922" y="213.808" width="10.5152" height="8.76263" fill="white"/>
<rect x="106.922" y="213.808" width="10.5152" height="8.76263" fill="white"/>
<rect x="106.922" y="213.808" width="10.5152" height="8.76263" fill="white"/>
<rect x="106.922" y="213.808" width="10.5152" height="8.76263" fill="white"/>
<rect x="106.922" y="213.808" width="10.5152" height="8.76263" fill="white"/>
<rect x="106.922" y="213.808" width="10.5152" height="8.76263" fill="white"/>
<rect x="106.922" y="113.914" width="10.5152" height="10.5152" fill="white"/>
<rect x="106.922" y="113.914" width="10.5152" height="10.5152" fill="white"/>
<rect x="106.922" y="113.914" width="10.5152" height="10.5152" fill="white"/>
<rect x="106.922" y="113.914" width="10.5152" height="10.5152" fill="white"/>
<rect x="106.922" y="113.914" width="10.5152" height="10.5152" fill="white"/>
<rect x="106.922" y="113.914" width="10.5152" height="10.5152" fill="white"/>
<rect x="106.922" y="113.914" width="10.5152" height="10.5152" fill="white"/>
<rect x="106.922" y="113.914" width="10.5152" height="10.5152" fill="white"/>
<rect x="106.922" y="113.914" width="10.5152" height="10.5152" fill="white"/>
<rect x="106.922" y="113.914" width="10.5152" height="10.5152" fill="white"/>
<rect x="106.922" y="113.914" width="10.5152" height="10.5152" fill="white"/>
<rect x="106.922" y="113.914" width="10.5152" height="10.5152" fill="white"/>
<rect x="106.922" y="113.914" width="10.5152" height="10.5152" fill="white"/>
<rect x="106.922" y="113.914" width="10.5152" height="10.5152" fill="white"/>
<rect x="106.922" y="113.914" width="10.5152" height="10.5152" fill="white"/>
<rect x="106.922" y="113.914" width="10.5152" height="10.5152" fill="white"/>
<rect x="106.922" y="113.914" width="10.5152" height="10.5152" fill="white"/>
<rect x="106.922" y="113.914" width="10.5152" height="10.5152" fill="white"/>
<rect x="106.922" y="113.914" width="10.5152" height="10.5152" fill="white"/>
<rect x="106.922" y="113.914" width="10.5152" height="10.5152" fill="white"/>
<rect x="106.922" y="113.914" width="10.5152" height="10.5152" fill="white"/>
<rect x="106.922" y="113.914" width="10.5152" height="10.5152" fill="white"/>
<rect x="106.922" y="113.914" width="10.5152" height="10.5152" fill="white"/>
<rect x="106.922" y="113.914" width="10.5152" height="10.5152" fill="white"/>
<rect x="106.922" y="113.914" width="10.5152" height="10.5152" fill="white"/>
<rect x="106.922" y="113.914" width="10.5152" height="10.5152" fill="white"/>
<rect x="106.922" y="113.914" width="10.5152" height="10.5152" fill="white"/>
<rect x="106.922" y="113.914" width="10.5152" height="10.5152" fill="white"/>
<rect x="106.922" y="5.25781" width="10.5152" height="10.5152" fill="white"/>
<rect x="106.922" y="5.25781" width="10.5152" height="10.5152" fill="white"/>
<rect x="106.922" y="5.25781" width="10.5152" height="10.5152" fill="white"/>
<rect x="106.922" y="5.25781" width="10.5152" height="10.5152" fill="white"/>
<rect x="106.922" y="5.25781" width="10.5152" height="10.5152" fill="white"/>
<rect x="106.922" y="5.25781" width="10.5152" height="10.5152" fill="white"/>
<rect x="106.922" y="5.25781" width="10.5152" height="10.5152" fill="white"/>
<rect x="106.922" y="5.25781" width="10.5152" height="10.5152" fill="white"/>
<rect x="106.922" y="5.25781" width="10.5152" height="10.5152" fill="white"/>
<rect x="106.922" y="5.25781" width="10.5152" height="10.5152" fill="white"/>
<rect x="106.922" y="5.25781" width="10.5152" height="10.5152" fill="white"/>
<rect x="106.922" y="5.25781" width="10.5152" height="10.5152" fill="white"/>
<rect x="106.922" y="5.25781" width="10.5152" height="10.5152" fill="white"/>
<rect x="106.922" y="5.25781" width="10.5152" height="10.5152" fill="white"/>
<rect x="106.922" y="5.25781" width="10.5152" height="10.5152" fill="white"/>
<rect x="106.922" y="5.25781" width="10.5152" height="10.5152" fill="white"/>
<rect x="106.922" y="5.25781" width="10.5152" height="10.5152" fill="white"/>
<rect x="106.922" y="5.25781" width="10.5152" height="10.5152" fill="white"/>
<rect x="106.922" y="5.25781" width="10.5152" height="10.5152" fill="white"/>
<rect x="106.922" y="5.25781" width="10.5152" height="10.5152" fill="white"/>
<rect x="106.922" y="5.25781" width="10.5152" height="10.5152" fill="white"/>
<rect x="106.922" y="5.25781" width="10.5152" height="10.5152" fill="white"/>
<rect x="106.922" y="5.25781" width="10.5152" height="10.5152" fill="white"/>
<rect x="106.922" y="5.25781" width="10.5152" height="10.5152" fill="white"/>
<rect x="106.922" y="5.25781" width="10.5152" height="10.5152" fill="white"/>
<rect x="106.922" y="5.25781" width="10.5152" height="10.5152" fill="white"/>
<rect x="106.922" y="5.25781" width="10.5152" height="10.5152" fill="white"/>
<rect x="106.922" y="5.25781" width="10.5152" height="10.5152" fill="white"/>
<rect x="215.582" y="113.914" width="10.5152" height="10.5152" fill="white"/>
<rect x="215.582" y="113.914" width="10.5152" height="10.5152" fill="white"/>
<rect x="215.582" y="113.914" width="10.5152" height="10.5152" fill="white"/>
<rect x="215.582" y="113.914" width="10.5152" height="10.5152" fill="white"/>
<rect x="215.582" y="113.914" width="10.5152" height="10.5152" fill="white"/>
<rect x="215.582" y="113.914" width="10.5152" height="10.5152" fill="white"/>
<rect x="215.582" y="113.914" width="10.5152" height="10.5152" fill="white"/>
<rect x="215.582" y="113.914" width="10.5152" height="10.5152" fill="white"/>
<rect x="215.582" y="113.914" width="10.5152" height="10.5152" fill="white"/>
<rect x="215.582" y="113.914" width="10.5152" height="10.5152" fill="white"/>
<rect x="215.582" y="113.914" width="10.5152" height="10.5152" fill="white"/>
<rect x="215.582" y="113.914" width="10.5152" height="10.5152" fill="white"/>
<rect x="215.582" y="113.914" width="10.5152" height="10.5152" fill="white"/>
<rect x="215.582" y="113.914" width="10.5152" height="10.5152" fill="white"/>
<rect x="215.582" y="113.914" width="10.5152" height="10.5152" fill="white"/>
<rect x="215.582" y="113.914" width="10.5152" height="10.5152" fill="white"/>
<rect x="215.582" y="113.914" width="10.5152" height="10.5152" fill="white"/>
<rect x="215.582" y="113.914" width="10.5152" height="10.5152" fill="white"/>
<rect x="215.582" y="113.914" width="10.5152" height="10.5152" fill="white"/>
<rect x="215.582" y="113.914" width="10.5152" height="10.5152" fill="white"/>
<rect x="215.582" y="113.914" width="10.5152" height="10.5152" fill="white"/>
<rect x="215.582" y="113.914" width="10.5152" height="10.5152" fill="white"/>
<rect x="215.582" y="113.914" width="10.5152" height="10.5152" fill="white"/>
<rect x="215.582" y="113.914" width="10.5152" height="10.5152" fill="white"/>
<rect x="215.582" y="113.914" width="10.5152" height="10.5152" fill="white"/>
<rect x="215.582" y="113.914" width="10.5152" height="10.5152" fill="white"/>
<rect x="215.582" y="113.914" width="10.5152" height="10.5152" fill="white"/>
<rect x="215.582" y="113.914" width="10.5152" height="10.5152" fill="white"/>
<rect x="215.582" y="213.808" width="10.5152" height="8.76263" fill="white"/>
<rect x="215.582" y="213.808" width="10.5152" height="8.76263" fill="white"/>
<rect x="215.582" y="213.808" width="10.5152" height="8.76263" fill="white"/>
<rect x="215.582" y="213.808" width="10.5152" height="8.76263" fill="white"/>
<rect x="215.582" y="213.808" width="10.5152" height="8.76263" fill="white"/>
<rect x="215.582" y="213.808" width="10.5152" height="8.76263" fill="white"/>
<rect x="215.582" y="213.808" width="10.5152" height="8.76263" fill="white"/>
<rect x="215.582" y="213.808" width="10.5152" height="8.76263" fill="white"/>
<rect x="215.582" y="213.808" width="10.5152" height="8.76263" fill="white"/>
<rect x="215.582" y="213.808" width="10.5152" height="8.76263" fill="white"/>
<rect x="215.582" y="213.808" width="10.5152" height="8.76263" fill="white"/>
<rect x="215.582" y="213.808" width="10.5152" height="8.76263" fill="white"/>
<rect x="215.582" y="213.808" width="10.5152" height="8.76263" fill="white"/>
<rect x="215.582" y="213.808" width="10.5152" height="8.76263" fill="white"/>
<rect x="215.582" y="213.808" width="10.5152" height="8.76263" fill="white"/>
<rect x="215.582" y="213.808" width="10.5152" height="8.76263" fill="white"/>
<rect x="215.582" y="213.808" width="10.5152" height="8.76263" fill="white"/>
<rect x="215.582" y="213.808" width="10.5152" height="8.76263" fill="white"/>
<rect x="215.582" y="213.808" width="10.5152" height="8.76263" fill="white"/>
<rect x="215.582" y="213.808" width="10.5152" height="8.76263" fill="white"/>
<rect x="215.582" y="213.808" width="10.5152" height="8.76263" fill="white"/>
<rect x="215.582" y="213.808" width="10.5152" height="8.76263" fill="white"/>
<rect x="215.582" y="213.808" width="10.5152" height="8.76263" fill="white"/>
<rect x="215.582" y="213.808" width="10.5152" height="8.76263" fill="white"/>
<rect x="215.582" y="213.808" width="10.5152" height="8.76263" fill="white"/>
<rect x="215.582" y="213.808" width="10.5152" height="8.76263" fill="white"/>
<rect x="215.582" y="213.808" width="10.5152" height="8.76263" fill="white"/>
<rect x="215.582" y="213.808" width="10.5152" height="8.76263" fill="white"/>
<rect x="215.582" y="311.949" width="10.5152" height="10.5152" fill="white"/>
<rect x="215.582" y="311.949" width="10.5152" height="10.5152" fill="white"/>
<rect x="215.582" y="311.949" width="10.5152" height="10.5152" fill="white"/>
<rect x="215.582" y="311.949" width="10.5152" height="10.5152" fill="white"/>
<rect x="215.582" y="311.949" width="10.5152" height="10.5152" fill="white"/>
<rect x="215.582" y="311.949" width="10.5152" height="10.5152" fill="white"/>
<rect x="215.582" y="311.949" width="10.5152" height="10.5152" fill="white"/>
<rect x="215.582" y="311.949" width="10.5152" height="10.5152" fill="white"/>
<rect x="215.582" y="311.949" width="10.5152" height="10.5152" fill="white"/>
<rect x="215.582" y="311.949" width="10.5152" height="10.5152" fill="white"/>
<rect x="215.582" y="311.949" width="10.5152" height="10.5152" fill="white"/>
<rect x="215.582" y="311.949" width="10.5152" height="10.5152" fill="white"/>
<rect x="215.582" y="311.949" width="10.5152" height="10.5152" fill="white"/>
<rect x="215.582" y="311.949" width="10.5152" height="10.5152" fill="white"/>
<rect x="215.582" y="311.949" width="10.5152" height="10.5152" fill="white"/>
<rect x="215.582" y="311.949" width="10.5152" height="10.5152" fill="white"/>
<rect x="215.582" y="311.949" width="10.5152" height="10.5152" fill="white"/>
<rect x="215.582" y="311.949" width="10.5152" height="10.5152" fill="white"/>
<rect x="215.582" y="311.949" width="10.5152" height="10.5152" fill="white"/>
<rect x="215.582" y="311.949" width="10.5152" height="10.5152" fill="white"/>
<rect x="215.582" y="311.949" width="10.5152" height="10.5152" fill="white"/>
<rect x="215.582" y="311.949" width="10.5152" height="10.5152" fill="white"/>
<rect x="215.582" y="311.949" width="10.5152" height="10.5152" fill="white"/>
<rect x="215.582" y="311.949" width="10.5152" height="10.5152" fill="white"/>
<rect x="215.582" y="311.949" width="10.5152" height="10.5152" fill="white"/>
<rect x="215.582" y="311.949" width="10.5152" height="10.5152" fill="white"/>
<rect x="215.582" y="311.949" width="10.5152" height="10.5152" fill="white"/>
<rect x="215.582" y="311.949" width="10.5152" height="10.5152" fill="white"/>
<rect x="210.324" y="408.338" width="21.0303" height="21.0303" fill="white"/>
<rect x="210.324" y="408.338" width="21.0303" height="21.0303" fill="white"/>
<rect x="210.324" y="408.338" width="21.0303" height="21.0303" fill="white"/>
<rect x="210.324" y="408.338" width="21.0303" height="21.0303" fill="white"/>
<rect x="210.324" y="408.338" width="21.0303" height="21.0303" fill="white"/>
<rect x="210.324" y="408.338" width="21.0303" height="21.0303" fill="white"/>
<rect x="210.324" y="408.338" width="21.0303" height="21.0303" fill="white"/>
<rect x="210.324" y="408.338" width="21.0303" height="21.0303" fill="white"/>
<rect x="210.324" y="408.338" width="21.0303" height="21.0303" fill="white"/>
<rect x="210.324" y="408.338" width="21.0303" height="21.0303" fill="white"/>
<rect x="210.324" y="408.338" width="21.0303" height="21.0303" fill="white"/>
<rect x="210.324" y="408.338" width="21.0303" height="21.0303" fill="white"/>
<rect x="210.324" y="408.338" width="21.0303" height="21.0303" fill="white"/>
<rect x="210.324" y="408.338" width="21.0303" height="21.0303" fill="white"/>
<rect x="210.324" y="408.338" width="21.0303" height="21.0303" fill="white"/>
<rect x="210.324" y="408.338" width="21.0303" height="21.0303" fill="white"/>
<rect x="210.324" y="408.338" width="21.0303" height="21.0303" fill="white"/>
<rect x="210.324" y="408.338" width="21.0303" height="21.0303" fill="white"/>
<rect x="210.324" y="408.338" width="21.0303" height="21.0303" fill="white"/>
<rect x="210.324" y="408.338" width="21.0303" height="21.0303" fill="white"/>
<rect x="210.324" y="408.338" width="21.0303" height="21.0303" fill="white"/>
<rect x="210.324" y="408.338" width="21.0303" height="21.0303" fill="white"/>
<rect x="210.324" y="408.338" width="21.0303" height="21.0303" fill="white"/>
<rect x="210.324" y="408.338" width="21.0303" height="21.0303" fill="white"/>
<rect x="210.324" y="408.338" width="21.0303" height="21.0303" fill="white"/>
<rect x="210.324" y="408.338" width="21.0303" height="21.0303" fill="white"/>
<rect x="210.324" y="408.338" width="21.0303" height="21.0303" fill="white"/>
<rect x="210.324" y="408.338" width="21.0303" height="21.0303" fill="white"/>
<rect x="215.582" y="5.25781" width="10.5152" height="10.5152" fill="white"/>
<rect x="215.582" y="5.25781" width="10.5152" height="10.5152" fill="white"/>
<rect x="215.582" y="5.25781" width="10.5152" height="10.5152" fill="white"/>
<rect x="215.582" y="5.25781" width="10.5152" height="10.5152" fill="white"/>
<rect x="215.582" y="5.25781" width="10.5152" height="10.5152" fill="white"/>
<rect x="215.582" y="5.25781" width="10.5152" height="10.5152" fill="white"/>
<rect x="215.582" y="5.25781" width="10.5152" height="10.5152" fill="white"/>
<rect x="215.582" y="5.25781" width="10.5152" height="10.5152" fill="white"/>
<rect x="215.582" y="5.25781" width="10.5152" height="10.5152" fill="white"/>
<rect x="215.582" y="5.25781" width="10.5152" height="10.5152" fill="white"/>
<rect x="215.582" y="5.25781" width="10.5152" height="10.5152" fill="white"/>
<rect x="215.582" y="5.25781" width="10.5152" height="10.5152" fill="white"/>
<rect x="215.582" y="5.25781" width="10.5152" height="10.5152" fill="white"/>
<rect x="215.582" y="5.25781" width="10.5152" height="10.5152" fill="white"/>
<rect x="215.582" y="5.25781" width="10.5152" height="10.5152" fill="white"/>
<rect x="215.582" y="5.25781" width="10.5152" height="10.5152" fill="white"/>
<rect x="215.582" y="5.25781" width="10.5152" height="10.5152" fill="white"/>
<rect x="215.582" y="5.25781" width="10.5152" height="10.5152" fill="white"/>
<rect x="215.582" y="5.25781" width="10.5152" height="10.5152" fill="white"/>
<rect x="215.582" y="5.25781" width="10.5152" height="10.5152" fill="white"/>
<rect x="215.582" y="5.25781" width="10.5152" height="10.5152" fill="white"/>
<rect x="215.582" y="5.25781" width="10.5152" height="10.5152" fill="white"/>
<rect x="215.582" y="5.25781" width="10.5152" height="10.5152" fill="white"/>
<rect x="215.582" y="5.25781" width="10.5152" height="10.5152" fill="white"/>
<rect x="215.582" y="5.25781" width="10.5152" height="10.5152" fill="white"/>
<rect x="215.582" y="5.25781" width="10.5152" height="10.5152" fill="white"/>
<rect x="215.582" y="5.25781" width="10.5152" height="10.5152" fill="white"/>
<rect x="215.582" y="5.25781" width="10.5152" height="10.5152" fill="white"/>
<rect x="106.922" y="511.737" width="10.5152" height="10.5152" fill="white"/>
<rect x="106.922" y="511.737" width="10.5152" height="10.5152" fill="white"/>
<rect x="106.922" y="511.737" width="10.5152" height="10.5152" fill="white"/>
<rect x="106.922" y="511.737" width="10.5152" height="10.5152" fill="white"/>
<rect x="106.922" y="511.737" width="10.5152" height="10.5152" fill="white"/>
<rect x="106.922" y="511.737" width="10.5152" height="10.5152" fill="white"/>
<rect x="106.922" y="511.737" width="10.5152" height="10.5152" fill="white"/>
<rect x="106.922" y="511.737" width="10.5152" height="10.5152" fill="white"/>
<rect x="106.922" y="511.737" width="10.5152" height="10.5152" fill="white"/>
<rect x="106.922" y="511.737" width="10.5152" height="10.5152" fill="white"/>
<rect x="106.922" y="511.737" width="10.5152" height="10.5152" fill="white"/>
<rect x="106.922" y="511.737" width="10.5152" height="10.5152" fill="white"/>
<rect x="106.922" y="511.737" width="10.5152" height="10.5152" fill="white"/>
<rect x="106.922" y="511.737" width="10.5152" height="10.5152" fill="white"/>
<rect x="106.922" y="511.737" width="10.5152" height="10.5152" fill="white"/>
<rect x="106.922" y="511.737" width="10.5152" height="10.5152" fill="white"/>
<rect x="106.922" y="511.737" width="10.5152" height="10.5152" fill="white"/>
<rect x="106.922" y="511.737" width="10.5152" height="10.5152" fill="white"/>
<rect x="106.922" y="511.737" width="10.5152" height="10.5152" fill="white"/>
<rect x="106.922" y="511.737" width="10.5152" height="10.5152" fill="white"/>
<rect x="106.922" y="511.737" width="10.5152" height="10.5152" fill="white"/>
<rect x="106.922" y="511.737" width="10.5152" height="10.5152" fill="white"/>
<rect x="106.922" y="511.737" width="10.5152" height="10.5152" fill="white"/>
<rect x="106.922" y="511.737" width="10.5152" height="10.5152" fill="white"/>
<rect x="106.922" y="511.737" width="10.5152" height="10.5152" fill="white"/>
<rect x="106.922" y="511.737" width="10.5152" height="10.5152" fill="white"/>
<rect x="106.922" y="511.737" width="10.5152" height="10.5152" fill="white"/>
<rect x="106.922" y="511.737" width="10.5152" height="10.5152" fill="white"/>
<rect x="0.0195312" y="411.843" width="10.5152" height="10.5152" fill="white"/>
<rect x="0.0195312" y="411.843" width="10.5152" height="10.5152" fill="white"/>
<rect x="0.0195312" y="411.843" width="10.5152" height="10.5152" fill="white"/>
<rect x="0.0195312" y="411.843" width="10.5152" height="10.5152" fill="white"/>
<rect x="0.0195312" y="411.843" width="10.5152" height="10.5152" fill="white"/>
<rect x="0.0195312" y="411.843" width="10.5152" height="10.5152" fill="white"/>
<rect x="0.0195312" y="411.843" width="10.5152" height="10.5152" fill="white"/>
<rect x="0.0195312" y="411.843" width="10.5152" height="10.5152" fill="white"/>
<rect x="0.0195312" y="411.843" width="10.5152" height="10.5152" fill="white"/>
<rect x="0.0195312" y="411.843" width="10.5152" height="10.5152" fill="white"/>
<rect x="0.0195312" y="411.843" width="10.5152" height="10.5152" fill="white"/>
<rect x="0.0195312" y="411.843" width="10.5152" height="10.5152" fill="white"/>
<rect x="0.0195312" y="411.843" width="10.5152" height="10.5152" fill="white"/>
<rect x="0.0195312" y="411.843" width="10.5152" height="10.5152" fill="white"/>
<rect x="0.0195312" y="411.843" width="10.5152" height="10.5152" fill="white"/>
<rect x="0.0195312" y="411.843" width="10.5152" height="10.5152" fill="white"/>
<rect x="0.0195312" y="411.843" width="10.5152" height="10.5152" fill="white"/>
<rect x="0.0195312" y="411.843" width="10.5152" height="10.5152" fill="white"/>
<rect x="0.0195312" y="411.843" width="10.5152" height="10.5152" fill="white"/>
<rect x="0.0195312" y="411.843" width="10.5152" height="10.5152" fill="white"/>
<rect x="0.0195312" y="411.843" width="10.5152" height="10.5152" fill="white"/>
<rect x="0.0195312" y="411.843" width="10.5152" height="10.5152" fill="white"/>
<rect x="0.0195312" y="411.843" width="10.5152" height="10.5152" fill="white"/>
<rect x="0.0195312" y="411.843" width="10.5152" height="10.5152" fill="white"/>
<rect x="0.0195312" y="411.843" width="10.5152" height="10.5152" fill="white"/>
<rect x="0.0195312" y="411.843" width="10.5152" height="10.5152" fill="white"/>
<rect x="0.0195312" y="411.843" width="10.5152" height="10.5152" fill="white"/>
<rect x="0.0195312" y="411.843" width="10.5152" height="10.5152" fill="white"/>
<rect x="0.0195312" y="315.455" width="10.5152" height="10.5152" fill="white"/>
<rect x="0.0195312" y="315.455" width="10.5152" height="10.5152" fill="white"/>
<rect x="0.0195312" y="315.455" width="10.5152" height="10.5152" fill="white"/>
<rect x="0.0195312" y="315.455" width="10.5152" height="10.5152" fill="white"/>
<rect x="0.0195312" y="315.455" width="10.5152" height="10.5152" fill="white"/>
<rect x="0.0195312" y="315.455" width="10.5152" height="10.5152" fill="white"/>
<rect x="0.0195312" y="315.455" width="10.5152" height="10.5152" fill="white"/>
<rect x="0.0195312" y="315.455" width="10.5152" height="10.5152" fill="white"/>
<rect x="0.0195312" y="315.455" width="10.5152" height="10.5152" fill="white"/>
<rect x="0.0195312" y="315.455" width="10.5152" height="10.5152" fill="white"/>
<rect x="0.0195312" y="315.455" width="10.5152" height="10.5152" fill="white"/>
<rect x="0.0195312" y="315.455" width="10.5152" height="10.5152" fill="white"/>
<rect x="0.0195312" y="315.455" width="10.5152" height="10.5152" fill="white"/>
<rect x="0.0195312" y="315.455" width="10.5152" height="10.5152" fill="white"/>
<rect x="0.0195312" y="315.455" width="10.5152" height="10.5152" fill="white"/>
<rect x="0.0195312" y="315.455" width="10.5152" height="10.5152" fill="white"/>
<rect x="0.0195312" y="315.455" width="10.5152" height="10.5152" fill="white"/>
<rect x="0.0195312" y="315.455" width="10.5152" height="10.5152" fill="white"/>
<rect x="0.0195312" y="315.455" width="10.5152" height="10.5152" fill="white"/>
<rect x="0.0195312" y="315.455" width="10.5152" height="10.5152" fill="white"/>
<rect x="0.0195312" y="315.455" width="10.5152" height="10.5152" fill="white"/>
<rect x="0.0195312" y="315.455" width="10.5152" height="10.5152" fill="white"/>
<rect x="0.0195312" y="315.455" width="10.5152" height="10.5152" fill="white"/>
<rect x="0.0195312" y="315.455" width="10.5152" height="10.5152" fill="white"/>
<rect x="0.0195312" y="315.455" width="10.5152" height="10.5152" fill="white"/>
<rect x="0.0195312" y="315.455" width="10.5152" height="10.5152" fill="white"/>
<rect x="0.0195312" y="315.455" width="10.5152" height="10.5152" fill="white"/>
<rect x="0.0195312" y="315.455" width="10.5152" height="10.5152" fill="white"/>
<rect x="215.582" y="511.737" width="10.5152" height="10.5152" fill="white"/>
<rect x="215.582" y="511.737" width="10.5152" height="10.5152" fill="white"/>
<rect x="215.582" y="511.737" width="10.5152" height="10.5152" fill="white"/>
<rect x="215.582" y="511.737" width="10.5152" height="10.5152" fill="white"/>
<rect x="215.582" y="511.737" width="10.5152" height="10.5152" fill="white"/>
<rect x="215.582" y="511.737" width="10.5152" height="10.5152" fill="white"/>
<rect x="215.582" y="511.737" width="10.5152" height="10.5152" fill="white"/>
<rect x="215.582" y="511.737" width="10.5152" height="10.5152" fill="white"/>
<rect x="215.582" y="511.737" width="10.5152" height="10.5152" fill="white"/>
<rect x="215.582" y="511.737" width="10.5152" height="10.5152" fill="white"/>
<rect x="215.582" y="511.737" width="10.5152" height="10.5152" fill="white"/>
<rect x="215.582" y="511.737" width="10.5152" height="10.5152" fill="white"/>
<rect x="215.582" y="511.737" width="10.5152" height="10.5152" fill="white"/>
<rect x="215.582" y="511.737" width="10.5152" height="10.5152" fill="white"/>
<rect x="215.582" y="511.737" width="10.5152" height="10.5152" fill="white"/>
<rect x="215.582" y="511.737" width="10.5152" height="10.5152" fill="white"/>
<rect x="215.582" y="511.737" width="10.5152" height="10.5152" fill="white"/>
<rect x="215.582" y="511.737" width="10.5152" height="10.5152" fill="white"/>
<rect x="215.582" y="511.737" width="10.5152" height="10.5152" fill="white"/>
<rect x="215.582" y="511.737" width="10.5152" height="10.5152" fill="white"/>
<rect x="215.582" y="511.737" width="10.5152" height="10.5152" fill="white"/>
<rect x="215.582" y="511.737" width="10.5152" height="10.5152" fill="white"/>
<rect x="215.582" y="511.737" width="10.5152" height="10.5152" fill="white"/>
<rect x="215.582" y="511.737" width="10.5152" height="10.5152" fill="white"/>
<rect x="215.582" y="511.737" width="10.5152" height="10.5152" fill="white"/>
<rect x="215.582" y="511.737" width="10.5152" height="10.5152" fill="white"/>
<rect x="215.582" y="511.737" width="10.5152" height="10.5152" fill="white"/>
<rect x="215.582" y="511.737" width="10.5152" height="10.5152" fill="white"/>
<rect x="215.582" y="611.631" width="10.5152" height="8.76263" fill="white"/>
<rect x="215.582" y="611.631" width="10.5152" height="8.76263" fill="white"/>
<rect x="215.582" y="611.631" width="10.5152" height="8.76263" fill="white"/>
<rect x="215.582" y="611.631" width="10.5152" height="8.76263" fill="white"/>
<rect x="215.582" y="611.631" width="10.5152" height="8.76263" fill="white"/>
<rect x="215.582" y="611.631" width="10.5152" height="8.76263" fill="white"/>
<rect x="215.582" y="611.631" width="10.5152" height="8.76263" fill="white"/>
<rect x="215.582" y="611.631" width="10.5152" height="8.76263" fill="white"/>
<rect x="215.582" y="611.631" width="10.5152" height="8.76263" fill="white"/>
<rect x="215.582" y="611.631" width="10.5152" height="8.76263" fill="white"/>
<rect x="215.582" y="611.631" width="10.5152" height="8.76263" fill="white"/>
<rect x="215.582" y="611.631" width="10.5152" height="8.76263" fill="white"/>
<rect x="215.582" y="611.631" width="10.5152" height="8.76263" fill="white"/>
<rect x="215.582" y="611.631" width="10.5152" height="8.76263" fill="white"/>
<rect x="215.582" y="611.631" width="10.5152" height="8.76263" fill="white"/>
<rect x="215.582" y="611.631" width="10.5152" height="8.76263" fill="white"/>
<rect x="215.582" y="611.631" width="10.5152" height="8.76263" fill="white"/>
<rect x="215.582" y="611.631" width="10.5152" height="8.76263" fill="white"/>
<rect x="215.582" y="611.631" width="10.5152" height="8.76263" fill="white"/>
<rect x="215.582" y="611.631" width="10.5152" height="8.76263" fill="white"/>
<rect x="215.582" y="611.631" width="10.5152" height="8.76263" fill="white"/>
<rect x="215.582" y="611.631" width="10.5152" height="8.76263" fill="white"/>
<rect x="215.582" y="611.631" width="10.5152" height="8.76263" fill="white"/>
<rect x="215.582" y="611.631" width="10.5152" height="8.76263" fill="white"/>
<rect x="215.582" y="611.631" width="10.5152" height="8.76263" fill="white"/>
<rect x="215.582" y="611.631" width="10.5152" height="8.76263" fill="white"/>
<rect x="215.582" y="611.631" width="10.5152" height="8.76263" fill="white"/>
<rect x="215.582" y="611.631" width="10.5152" height="8.76263" fill="white"/>
<rect x="215.582" y="709.772" width="10.5152" height="10.5152" fill="white"/>
<rect x="215.582" y="709.772" width="10.5152" height="10.5152" fill="white"/>
<rect x="215.582" y="709.772" width="10.5152" height="10.5152" fill="white"/>
<rect x="215.582" y="709.772" width="10.5152" height="10.5152" fill="white"/>
<rect x="215.582" y="709.772" width="10.5152" height="10.5152" fill="white"/>
<rect x="215.582" y="709.772" width="10.5152" height="10.5152" fill="white"/>
<rect x="215.582" y="709.772" width="10.5152" height="10.5152" fill="white"/>
<rect x="215.582" y="709.772" width="10.5152" height="10.5152" fill="white"/>
<rect x="215.582" y="709.772" width="10.5152" height="10.5152" fill="white"/>
<rect x="215.582" y="709.772" width="10.5152" height="10.5152" fill="white"/>
<rect x="215.582" y="709.772" width="10.5152" height="10.5152" fill="white"/>
<rect x="215.582" y="709.772" width="10.5152" height="10.5152" fill="white"/>
<rect x="215.582" y="709.772" width="10.5152" height="10.5152" fill="white"/>
<rect x="215.582" y="709.772" width="10.5152" height="10.5152" fill="white"/>
<rect x="215.582" y="709.772" width="10.5152" height="10.5152" fill="white"/>
<rect x="215.582" y="709.772" width="10.5152" height="10.5152" fill="white"/>
<rect x="215.582" y="709.772" width="10.5152" height="10.5152" fill="white"/>
<rect x="215.582" y="709.772" width="10.5152" height="10.5152" fill="white"/>
<rect x="215.582" y="709.772" width="10.5152" height="10.5152" fill="white"/>
<rect x="215.582" y="709.772" width="10.5152" height="10.5152" fill="white"/>
<rect x="215.582" y="709.772" width="10.5152" height="10.5152" fill="white"/>
<rect x="215.582" y="709.772" width="10.5152" height="10.5152" fill="white"/>
<rect x="215.582" y="709.772" width="10.5152" height="10.5152" fill="white"/>
<rect x="215.582" y="709.772" width="10.5152" height="10.5152" fill="white"/>
<rect x="215.582" y="709.772" width="10.5152" height="10.5152" fill="white"/>
<rect x="215.582" y="709.772" width="10.5152" height="10.5152" fill="white"/>
<rect x="215.582" y="709.772" width="10.5152" height="10.5152" fill="white"/>
<rect x="215.582" y="709.772" width="10.5152" height="10.5152" fill="white"/>
<rect x="0.0195312" y="611.631" width="10.5152" height="8.76263" fill="white"/>
<rect x="0.0195312" y="611.631" width="10.5152" height="8.76263" fill="white"/>
<rect x="0.0195312" y="611.631" width="10.5152" height="8.76263" fill="white"/>
<rect x="0.0195312" y="611.631" width="10.5152" height="8.76263" fill="white"/>
<rect x="0.0195312" y="611.631" width="10.5152" height="8.76263" fill="white"/>
<rect x="0.0195312" y="611.631" width="10.5152" height="8.76263" fill="white"/>
<rect x="0.0195312" y="611.631" width="10.5152" height="8.76263" fill="white"/>
<rect x="0.0195312" y="611.631" width="10.5152" height="8.76263" fill="white"/>
<rect x="0.0195312" y="611.631" width="10.5152" height="8.76263" fill="white"/>
<rect x="0.0195312" y="611.631" width="10.5152" height="8.76263" fill="white"/>
<rect x="0.0195312" y="611.631" width="10.5152" height="8.76263" fill="white"/>
<rect x="0.0195312" y="611.631" width="10.5152" height="8.76263" fill="white"/>
<rect x="0.0195312" y="611.631" width="10.5152" height="8.76263" fill="white"/>
<rect x="0.0195312" y="611.631" width="10.5152" height="8.76263" fill="white"/>
<rect x="0.0195312" y="611.631" width="10.5152" height="8.76263" fill="white"/>
<rect x="0.0195312" y="611.631" width="10.5152" height="8.76263" fill="white"/>
<rect x="0.0195312" y="611.631" width="10.5152" height="8.76263" fill="white"/>
<rect x="0.0195312" y="611.631" width="10.5152" height="8.76263" fill="white"/>
<rect x="0.0195312" y="611.631" width="10.5152" height="8.76263" fill="white"/>
<rect x="0.0195312" y="611.631" width="10.5152" height="8.76263" fill="white"/>
<rect x="0.0195312" y="611.631" width="10.5152" height="8.76263" fill="white"/>
<rect x="0.0195312" y="611.631" width="10.5152" height="8.76263" fill="white"/>
<rect x="0.0195312" y="611.631" width="10.5152" height="8.76263" fill="white"/>
<rect x="0.0195312" y="611.631" width="10.5152" height="8.76263" fill="white"/>
<rect x="0.0195312" y="611.631" width="10.5152" height="8.76263" fill="white"/>
<rect x="0.0195312" y="611.631" width="10.5152" height="8.76263" fill="white"/>
<rect x="0.0195312" y="611.631" width="10.5152" height="8.76263" fill="white"/>
<rect x="0.0195312" y="611.631" width="10.5152" height="8.76263" fill="white"/>
<rect x="0.0195312" y="709.772" width="10.5152" height="10.5152" fill="white"/>
<rect x="0.0195312" y="709.772" width="10.5152" height="10.5152" fill="white"/>
<rect x="0.0195312" y="709.772" width="10.5152" height="10.5152" fill="white"/>
<rect x="0.0195312" y="709.772" width="10.5152" height="10.5152" fill="white"/>
<rect x="0.0195312" y="709.772" width="10.5152" height="10.5152" fill="white"/>
<rect x="0.0195312" y="709.772" width="10.5152" height="10.5152" fill="white"/>
<rect x="0.0195312" y="709.772" width="10.5152" height="10.5152" fill="white"/>
<rect x="0.0195312" y="709.772" width="10.5152" height="10.5152" fill="white"/>
<rect x="0.0195312" y="709.772" width="10.5152" height="10.5152" fill="white"/>
<rect x="0.0195312" y="709.772" width="10.5152" height="10.5152" fill="white"/>
<rect x="0.0195312" y="709.772" width="10.5152" height="10.5152" fill="white"/>
<rect x="0.0195312" y="709.772" width="10.5152" height="10.5152" fill="white"/>
<rect x="0.0195312" y="709.772" width="10.5152" height="10.5152" fill="white"/>
<rect x="0.0195312" y="709.772" width="10.5152" height="10.5152" fill="white"/>
<rect x="0.0195312" y="709.772" width="10.5152" height="10.5152" fill="white"/>
<rect x="0.0195312" y="709.772" width="10.5152" height="10.5152" fill="white"/>
<rect x="0.0195312" y="709.772" width="10.5152" height="10.5152" fill="white"/>
<rect x="0.0195312" y="709.772" width="10.5152" height="10.5152" fill="white"/>
<rect x="0.0195312" y="709.772" width="10.5152" height="10.5152" fill="white"/>
<rect x="0.0195312" y="709.772" width="10.5152" height="10.5152" fill="white"/>
<rect x="0.0195312" y="709.772" width="10.5152" height="10.5152" fill="white"/>
<rect x="0.0195312" y="709.772" width="10.5152" height="10.5152" fill="white"/>
<rect x="0.0195312" y="709.772" width="10.5152" height="10.5152" fill="white"/>
<rect x="0.0195312" y="709.772" width="10.5152" height="10.5152" fill="white"/>
<rect x="0.0195312" y="709.772" width="10.5152" height="10.5152" fill="white"/>
<rect x="0.0195312" y="709.772" width="10.5152" height="10.5152" fill="white"/>
<rect x="0.0195312" y="709.772" width="10.5152" height="10.5152" fill="white"/>
<rect x="0.0195312" y="709.772" width="10.5152" height="10.5152" fill="white"/>
<rect x="106.922" y="709.772" width="10.5152" height="10.5152" fill="white"/>
<rect x="106.922" y="709.772" width="10.5152" height="10.5152" fill="white"/>
<rect x="106.922" y="709.772" width="10.5152" height="10.5152" fill="white"/>
<rect x="106.922" y="709.772" width="10.5152" height="10.5152" fill="white"/>
<rect x="106.922" y="709.772" width="10.5152" height="10.5152" fill="white"/>
<rect x="106.922" y="709.772" width="10.5152" height="10.5152" fill="white"/>
<rect x="106.922" y="709.772" width="10.5152" height="10.5152" fill="white"/>
<rect x="106.922" y="709.772" width="10.5152" height="10.5152" fill="white"/>
<rect x="106.922" y="709.772" width="10.5152" height="10.5152" fill="white"/>
<rect x="106.922" y="709.772" width="10.5152" height="10.5152" fill="white"/>
<rect x="106.922" y="709.772" width="10.5152" height="10.5152" fill="white"/>
<rect x="106.922" y="709.772" width="10.5152" height="10.5152" fill="white"/>
<rect x="106.922" y="709.772" width="10.5152" height="10.5152" fill="white"/>
<rect x="106.922" y="709.772" width="10.5152" height="10.5152" fill="white"/>
<rect x="106.922" y="709.772" width="10.5152" height="10.5152" fill="white"/>
<rect x="106.922" y="709.772" width="10.5152" height="10.5152" fill="white"/>
<rect x="106.922" y="709.772" width="10.5152" height="10.5152" fill="white"/>
<rect x="106.922" y="709.772" width="10.5152" height="10.5152" fill="white"/>
<rect x="106.922" y="709.772" width="10.5152" height="10.5152" fill="white"/>
<rect x="106.922" y="709.772" width="10.5152" height="10.5152" fill="white"/>
<rect x="106.922" y="709.772" width="10.5152" height="10.5152" fill="white"/>
<rect x="106.922" y="709.772" width="10.5152" height="10.5152" fill="white"/>
<rect x="106.922" y="709.772" width="10.5152" height="10.5152" fill="white"/>
<rect x="106.922" y="709.772" width="10.5152" height="10.5152" fill="white"/>
<rect x="106.922" y="709.772" width="10.5152" height="10.5152" fill="white"/>
<rect x="106.922" y="709.772" width="10.5152" height="10.5152" fill="white"/>
<rect x="106.922" y="709.772" width="10.5152" height="10.5152" fill="white"/>
<rect x="106.922" y="709.772" width="10.5152" height="10.5152" fill="white"/>
<rect x="101.664" y="604.621" width="21.0303" height="22.7828" fill="white"/>
<rect x="101.664" y="604.621" width="21.0303" height="22.7828" fill="white"/>
<rect x="101.664" y="604.621" width="21.0303" height="22.7828" fill="white"/>
<rect x="101.664" y="604.621" width="21.0303" height="22.7828" fill="white"/>
<rect x="101.664" y="604.621" width="21.0303" height="22.7828" fill="white"/>
<rect x="101.664" y="604.621" width="21.0303" height="22.7828" fill="white"/>
<rect x="101.664" y="604.621" width="21.0303" height="22.7828" fill="white"/>
<rect x="101.664" y="604.621" width="21.0303" height="22.7828" fill="white"/>
<rect x="101.664" y="604.621" width="21.0303" height="22.7828" fill="white"/>
<rect x="101.664" y="604.621" width="21.0303" height="22.7828" fill="white"/>
<rect x="101.664" y="604.621" width="21.0303" height="22.7828" fill="white"/>
<rect x="101.664" y="604.621" width="21.0303" height="22.7828" fill="white"/>
<rect x="101.664" y="604.621" width="21.0303" height="22.7828" fill="white"/>
<rect x="101.664" y="604.621" width="21.0303" height="22.7828" fill="white"/>
<rect x="101.664" y="604.621" width="21.0303" height="22.7828" fill="white"/>
<rect x="101.664" y="604.621" width="21.0303" height="22.7828" fill="white"/>
<rect x="101.664" y="604.621" width="21.0303" height="22.7828" fill="white"/>
<rect x="101.664" y="604.621" width="21.0303" height="22.7828" fill="white"/>
<rect x="101.664" y="604.621" width="21.0303" height="22.7828" fill="white"/>
<rect x="101.664" y="604.621" width="21.0303" height="22.7828" fill="white"/>
<rect x="101.664" y="604.621" width="21.0303" height="22.7828" fill="white"/>
<rect x="101.664" y="604.621" width="21.0303" height="22.7828" fill="white"/>
<rect x="101.664" y="604.621" width="21.0303" height="22.7828" fill="white"/>
<rect x="101.664" y="604.621" width="21.0303" height="22.7828" fill="white"/>
<rect x="101.664" y="604.621" width="21.0303" height="22.7828" fill="white"/>
<rect x="101.664" y="604.621" width="21.0303" height="22.7828" fill="white"/>
<rect x="101.664" y="604.621" width="21.0303" height="22.7828" fill="white"/>
<rect x="101.664" y="604.621" width="21.0303" height="22.7828" fill="white"/>
<path d="M12.2891 17.5255L12.2891 0.000207901L3.52644 0.000207797L3.52644 26.2881L12.2891 17.5255Z" fill="white"/>
</svg>
