<svg width="14" height="16" viewBox="0 0 14 16" fill="none" xmlns="http://www.w3.org/2000/svg">
<path d="M13.23 11.0044C12.2733 11.0044 11.3478 10.8267 10.4844 10.5067C10.2122 10.4 9.90889 10.48 9.69889 10.72L8.47778 12.4711C6.27667 11.2711 4.21556 9.00444 3.11889 6.4L4.63556 4.92444C4.84556 4.67556 4.90778 4.32889 4.82222 4.01778C4.53444 3.03111 4.38667 1.97333 4.38667 0.88C4.38667 0.4 4.03667 0 3.61667 0H0.925556C0.505556 0 0 0.213333 0 0.88C0 9.13778 6.01222 16 13.23 16C13.7822 16 14 15.44 14 14.9511V11.8844C14 11.4044 13.65 11.0044 13.23 11.0044Z" fill="#343434"/>
</svg>
