<svg width="725" height="1427" viewBox="0 0 725 1427" fill="none" xmlns="http://www.w3.org/2000/svg">
<rect width="725" height="600" fill="#0028C8"/>
<path d="M136.763 78.04H154.288V86.8072H128L136.763 78.04Z" fill="white"/>
<rect x="142.02" y="192.013" width="10.5152" height="10.5206" fill="white"/>
<rect x="142.02" y="192.013" width="10.5152" height="10.5206" fill="white"/>
<rect x="142.02" y="192.013" width="10.5152" height="10.5206" fill="white"/>
<rect x="142.02" y="192.013" width="10.5152" height="10.5206" fill="white"/>
<rect x="142.02" y="192.013" width="10.5152" height="10.5206" fill="white"/>
<rect x="142.02" y="192.013" width="10.5152" height="10.5206" fill="white"/>
<rect x="142.02" y="192.013" width="10.5152" height="10.5206" fill="white"/>
<rect x="142.02" y="192.013" width="10.5152" height="10.5206" fill="white"/>
<rect x="142.02" y="192.013" width="10.5152" height="10.5206" fill="white"/>
<rect x="142.02" y="192.013" width="10.5152" height="10.5206" fill="white"/>
<rect x="142.02" y="192.013" width="10.5152" height="10.5206" fill="white"/>
<rect x="142.02" y="192.013" width="10.5152" height="10.5206" fill="white"/>
<rect x="142.02" y="192.013" width="10.5152" height="10.5206" fill="white"/>
<rect x="142.02" y="192.013" width="10.5152" height="10.5206" fill="white"/>
<rect x="142.02" y="192.013" width="10.5152" height="10.5206" fill="white"/>
<rect x="142.02" y="192.013" width="10.5152" height="10.5206" fill="white"/>
<rect x="142.02" y="192.013" width="10.5152" height="10.5206" fill="white"/>
<rect x="142.02" y="192.013" width="10.5152" height="10.5206" fill="white"/>
<rect x="142.02" y="192.013" width="10.5152" height="10.5206" fill="white"/>
<rect x="142.02" y="192.013" width="10.5152" height="10.5206" fill="white"/>
<rect x="142.02" y="192.013" width="10.5152" height="10.5206" fill="white"/>
<rect x="142.02" y="192.013" width="10.5152" height="10.5206" fill="white"/>
<rect x="142.02" y="192.013" width="10.5152" height="10.5206" fill="white"/>
<rect x="142.02" y="192.013" width="10.5152" height="10.5206" fill="white"/>
<rect x="142.02" y="192.013" width="10.5152" height="10.5206" fill="white"/>
<rect x="142.02" y="192.013" width="10.5152" height="10.5206" fill="white"/>
<rect x="142.02" y="192.013" width="10.5152" height="10.5206" fill="white"/>
<rect x="142.02" y="192.013" width="10.5152" height="10.5206" fill="white"/>
<rect x="142.02" y="291.957" width="10.5152" height="8.76713" fill="white"/>
<rect x="142.02" y="291.957" width="10.5152" height="8.76713" fill="white"/>
<rect x="142.02" y="291.957" width="10.5152" height="8.76713" fill="white"/>
<rect x="142.02" y="291.957" width="10.5152" height="8.76713" fill="white"/>
<rect x="142.02" y="291.957" width="10.5152" height="8.76713" fill="white"/>
<rect x="142.02" y="291.957" width="10.5152" height="8.76713" fill="white"/>
<rect x="142.02" y="291.957" width="10.5152" height="8.76713" fill="white"/>
<rect x="142.02" y="291.957" width="10.5152" height="8.76713" fill="white"/>
<rect x="142.02" y="291.957" width="10.5152" height="8.76713" fill="white"/>
<rect x="142.02" y="291.957" width="10.5152" height="8.76713" fill="white"/>
<rect x="142.02" y="291.957" width="10.5152" height="8.76713" fill="white"/>
<rect x="142.02" y="291.957" width="10.5152" height="8.76713" fill="white"/>
<rect x="142.02" y="291.957" width="10.5152" height="8.76713" fill="white"/>
<rect x="142.02" y="291.957" width="10.5152" height="8.76713" fill="white"/>
<rect x="142.02" y="291.957" width="10.5152" height="8.76713" fill="white"/>
<rect x="142.02" y="291.957" width="10.5152" height="8.76713" fill="white"/>
<rect x="142.02" y="291.957" width="10.5152" height="8.76713" fill="white"/>
<rect x="142.02" y="291.957" width="10.5152" height="8.76713" fill="white"/>
<rect x="142.02" y="291.957" width="10.5152" height="8.76713" fill="white"/>
<rect x="142.02" y="291.957" width="10.5152" height="8.76713" fill="white"/>
<rect x="142.02" y="291.957" width="10.5152" height="8.76713" fill="white"/>
<rect x="142.02" y="291.957" width="10.5152" height="8.76713" fill="white"/>
<rect x="142.02" y="291.957" width="10.5152" height="8.76713" fill="white"/>
<rect x="142.02" y="291.957" width="10.5152" height="8.76713" fill="white"/>
<rect x="142.02" y="291.957" width="10.5152" height="8.76713" fill="white"/>
<rect x="142.02" y="291.957" width="10.5152" height="8.76713" fill="white"/>
<rect x="142.02" y="291.957" width="10.5152" height="8.76713" fill="white"/>
<rect x="142.02" y="291.957" width="10.5152" height="8.76713" fill="white"/>
<rect x="142.02" y="590.04" width="10.5152" height="10.5206" fill="white"/>
<rect x="142.02" y="590.04" width="10.5152" height="10.5206" fill="white"/>
<rect x="142.02" y="590.04" width="10.5152" height="10.5206" fill="white"/>
<rect x="142.02" y="590.04" width="10.5152" height="10.5206" fill="white"/>
<rect x="142.02" y="590.04" width="10.5152" height="10.5206" fill="white"/>
<rect x="142.02" y="590.04" width="10.5152" height="10.5206" fill="white"/>
<rect x="142.02" y="590.04" width="10.5152" height="10.5206" fill="white"/>
<rect x="142.02" y="590.04" width="10.5152" height="10.5206" fill="white"/>
<rect x="142.02" y="590.04" width="10.5152" height="10.5206" fill="white"/>
<rect x="142.02" y="590.04" width="10.5152" height="10.5206" fill="white"/>
<rect x="142.02" y="590.04" width="10.5152" height="10.5206" fill="white"/>
<rect x="142.02" y="590.04" width="10.5152" height="10.5206" fill="white"/>
<rect x="142.02" y="590.04" width="10.5152" height="10.5206" fill="white"/>
<rect x="142.02" y="590.04" width="10.5152" height="10.5206" fill="white"/>
<rect x="142.02" y="590.04" width="10.5152" height="10.5206" fill="white"/>
<rect x="142.02" y="590.04" width="10.5152" height="10.5206" fill="white"/>
<rect x="142.02" y="590.04" width="10.5152" height="10.5206" fill="white"/>
<rect x="142.02" y="590.04" width="10.5152" height="10.5206" fill="white"/>
<rect x="142.02" y="590.04" width="10.5152" height="10.5206" fill="white"/>
<rect x="142.02" y="590.04" width="10.5152" height="10.5206" fill="white"/>
<rect x="142.02" y="590.04" width="10.5152" height="10.5206" fill="white"/>
<rect x="142.02" y="590.04" width="10.5152" height="10.5206" fill="white"/>
<rect x="142.02" y="590.04" width="10.5152" height="10.5206" fill="white"/>
<rect x="142.02" y="590.04" width="10.5152" height="10.5206" fill="white"/>
<rect x="142.02" y="590.04" width="10.5152" height="10.5206" fill="white"/>
<rect x="142.02" y="590.04" width="10.5152" height="10.5206" fill="white"/>
<rect x="142.02" y="590.04" width="10.5152" height="10.5206" fill="white"/>
<rect x="142.02" y="590.04" width="10.5152" height="10.5206" fill="white"/>
<rect x="248.922" y="490.096" width="10.5152" height="10.5206" fill="white"/>
<rect x="248.922" y="490.096" width="10.5152" height="10.5206" fill="white"/>
<rect x="248.922" y="490.096" width="10.5152" height="10.5206" fill="white"/>
<rect x="248.922" y="490.096" width="10.5152" height="10.5206" fill="white"/>
<rect x="248.922" y="490.096" width="10.5152" height="10.5206" fill="white"/>
<rect x="248.922" y="490.096" width="10.5152" height="10.5206" fill="white"/>
<rect x="248.922" y="490.096" width="10.5152" height="10.5206" fill="white"/>
<rect x="248.922" y="490.096" width="10.5152" height="10.5206" fill="white"/>
<rect x="248.922" y="490.096" width="10.5152" height="10.5206" fill="white"/>
<rect x="248.922" y="490.096" width="10.5152" height="10.5206" fill="white"/>
<rect x="248.922" y="490.096" width="10.5152" height="10.5206" fill="white"/>
<rect x="248.922" y="490.096" width="10.5152" height="10.5206" fill="white"/>
<rect x="248.922" y="490.096" width="10.5152" height="10.5206" fill="white"/>
<rect x="248.922" y="490.096" width="10.5152" height="10.5206" fill="white"/>
<rect x="248.922" y="490.096" width="10.5152" height="10.5206" fill="white"/>
<rect x="248.922" y="490.096" width="10.5152" height="10.5206" fill="white"/>
<rect x="248.922" y="490.096" width="10.5152" height="10.5206" fill="white"/>
<rect x="248.922" y="490.096" width="10.5152" height="10.5206" fill="white"/>
<rect x="248.922" y="490.096" width="10.5152" height="10.5206" fill="white"/>
<rect x="248.922" y="490.096" width="10.5152" height="10.5206" fill="white"/>
<rect x="248.922" y="490.096" width="10.5152" height="10.5206" fill="white"/>
<rect x="248.922" y="490.096" width="10.5152" height="10.5206" fill="white"/>
<rect x="248.922" y="490.096" width="10.5152" height="10.5206" fill="white"/>
<rect x="248.922" y="490.096" width="10.5152" height="10.5206" fill="white"/>
<rect x="248.922" y="490.096" width="10.5152" height="10.5206" fill="white"/>
<rect x="248.922" y="490.096" width="10.5152" height="10.5206" fill="white"/>
<rect x="248.922" y="490.096" width="10.5152" height="10.5206" fill="white"/>
<rect x="248.922" y="490.096" width="10.5152" height="10.5206" fill="white"/>
<rect x="248.922" y="390.149" width="10.5152" height="10.5206" fill="white"/>
<rect x="248.922" y="390.149" width="10.5152" height="10.5206" fill="white"/>
<rect x="248.922" y="390.149" width="10.5152" height="10.5206" fill="white"/>
<rect x="248.922" y="390.149" width="10.5152" height="10.5206" fill="white"/>
<rect x="248.922" y="390.149" width="10.5152" height="10.5206" fill="white"/>
<rect x="248.922" y="390.149" width="10.5152" height="10.5206" fill="white"/>
<rect x="248.922" y="390.149" width="10.5152" height="10.5206" fill="white"/>
<rect x="248.922" y="390.149" width="10.5152" height="10.5206" fill="white"/>
<rect x="248.922" y="390.149" width="10.5152" height="10.5206" fill="white"/>
<rect x="248.922" y="390.149" width="10.5152" height="10.5206" fill="white"/>
<rect x="248.922" y="390.149" width="10.5152" height="10.5206" fill="white"/>
<rect x="248.922" y="390.149" width="10.5152" height="10.5206" fill="white"/>
<rect x="248.922" y="390.149" width="10.5152" height="10.5206" fill="white"/>
<rect x="248.922" y="390.149" width="10.5152" height="10.5206" fill="white"/>
<rect x="248.922" y="390.149" width="10.5152" height="10.5206" fill="white"/>
<rect x="248.922" y="390.149" width="10.5152" height="10.5206" fill="white"/>
<rect x="248.922" y="390.149" width="10.5152" height="10.5206" fill="white"/>
<rect x="248.922" y="390.149" width="10.5152" height="10.5206" fill="white"/>
<rect x="248.922" y="390.149" width="10.5152" height="10.5206" fill="white"/>
<rect x="248.922" y="390.149" width="10.5152" height="10.5206" fill="white"/>
<rect x="248.922" y="390.149" width="10.5152" height="10.5206" fill="white"/>
<rect x="248.922" y="390.149" width="10.5152" height="10.5206" fill="white"/>
<rect x="248.922" y="390.149" width="10.5152" height="10.5206" fill="white"/>
<rect x="248.922" y="390.149" width="10.5152" height="10.5206" fill="white"/>
<rect x="248.922" y="390.149" width="10.5152" height="10.5206" fill="white"/>
<rect x="248.922" y="390.149" width="10.5152" height="10.5206" fill="white"/>
<rect x="248.922" y="390.149" width="10.5152" height="10.5206" fill="white"/>
<rect x="248.922" y="390.149" width="10.5152" height="10.5206" fill="white"/>
<rect x="248.922" y="291.958" width="10.5152" height="8.76713" fill="white"/>
<rect x="248.922" y="291.958" width="10.5152" height="8.76713" fill="white"/>
<rect x="248.922" y="291.958" width="10.5152" height="8.76713" fill="white"/>
<rect x="248.922" y="291.958" width="10.5152" height="8.76713" fill="white"/>
<rect x="248.922" y="291.958" width="10.5152" height="8.76713" fill="white"/>
<rect x="248.922" y="291.958" width="10.5152" height="8.76713" fill="white"/>
<rect x="248.922" y="291.958" width="10.5152" height="8.76713" fill="white"/>
<rect x="248.922" y="291.958" width="10.5152" height="8.76713" fill="white"/>
<rect x="248.922" y="291.958" width="10.5152" height="8.76713" fill="white"/>
<rect x="248.922" y="291.958" width="10.5152" height="8.76713" fill="white"/>
<rect x="248.922" y="291.958" width="10.5152" height="8.76713" fill="white"/>
<rect x="248.922" y="291.958" width="10.5152" height="8.76713" fill="white"/>
<rect x="248.922" y="291.958" width="10.5152" height="8.76713" fill="white"/>
<rect x="248.922" y="291.958" width="10.5152" height="8.76713" fill="white"/>
<rect x="248.922" y="291.958" width="10.5152" height="8.76713" fill="white"/>
<rect x="248.922" y="291.958" width="10.5152" height="8.76713" fill="white"/>
<rect x="248.922" y="291.958" width="10.5152" height="8.76713" fill="white"/>
<rect x="248.922" y="291.958" width="10.5152" height="8.76713" fill="white"/>
<rect x="248.922" y="291.958" width="10.5152" height="8.76713" fill="white"/>
<rect x="248.922" y="291.958" width="10.5152" height="8.76713" fill="white"/>
<rect x="248.922" y="291.958" width="10.5152" height="8.76713" fill="white"/>
<rect x="248.922" y="291.958" width="10.5152" height="8.76713" fill="white"/>
<rect x="248.922" y="291.958" width="10.5152" height="8.76713" fill="white"/>
<rect x="248.922" y="291.958" width="10.5152" height="8.76713" fill="white"/>
<rect x="248.922" y="291.958" width="10.5152" height="8.76713" fill="white"/>
<rect x="248.922" y="291.958" width="10.5152" height="8.76713" fill="white"/>
<rect x="248.922" y="291.958" width="10.5152" height="8.76713" fill="white"/>
<rect x="248.922" y="291.958" width="10.5152" height="8.76713" fill="white"/>
<rect x="248.922" y="192.013" width="10.5152" height="10.5206" fill="white"/>
<rect x="248.922" y="192.013" width="10.5152" height="10.5206" fill="white"/>
<rect x="248.922" y="192.013" width="10.5152" height="10.5206" fill="white"/>
<rect x="248.922" y="192.013" width="10.5152" height="10.5206" fill="white"/>
<rect x="248.922" y="192.013" width="10.5152" height="10.5206" fill="white"/>
<rect x="248.922" y="192.013" width="10.5152" height="10.5206" fill="white"/>
<rect x="248.922" y="192.013" width="10.5152" height="10.5206" fill="white"/>
<rect x="248.922" y="192.013" width="10.5152" height="10.5206" fill="white"/>
<rect x="248.922" y="192.013" width="10.5152" height="10.5206" fill="white"/>
<rect x="248.922" y="192.013" width="10.5152" height="10.5206" fill="white"/>
<rect x="248.922" y="192.013" width="10.5152" height="10.5206" fill="white"/>
<rect x="248.922" y="192.013" width="10.5152" height="10.5206" fill="white"/>
<rect x="248.922" y="192.013" width="10.5152" height="10.5206" fill="white"/>
<rect x="248.922" y="192.013" width="10.5152" height="10.5206" fill="white"/>
<rect x="248.922" y="192.013" width="10.5152" height="10.5206" fill="white"/>
<rect x="248.922" y="192.013" width="10.5152" height="10.5206" fill="white"/>
<rect x="248.922" y="192.013" width="10.5152" height="10.5206" fill="white"/>
<rect x="248.922" y="192.013" width="10.5152" height="10.5206" fill="white"/>
<rect x="248.922" y="192.013" width="10.5152" height="10.5206" fill="white"/>
<rect x="248.922" y="192.013" width="10.5152" height="10.5206" fill="white"/>
<rect x="248.922" y="192.013" width="10.5152" height="10.5206" fill="white"/>
<rect x="248.922" y="192.013" width="10.5152" height="10.5206" fill="white"/>
<rect x="248.922" y="192.013" width="10.5152" height="10.5206" fill="white"/>
<rect x="248.922" y="192.013" width="10.5152" height="10.5206" fill="white"/>
<rect x="248.922" y="192.013" width="10.5152" height="10.5206" fill="white"/>
<rect x="248.922" y="192.013" width="10.5152" height="10.5206" fill="white"/>
<rect x="248.922" y="192.013" width="10.5152" height="10.5206" fill="white"/>
<rect x="248.922" y="192.013" width="10.5152" height="10.5206" fill="white"/>
<rect x="248.922" y="83.3008" width="10.5152" height="10.5206" fill="white"/>
<rect x="248.922" y="83.3008" width="10.5152" height="10.5206" fill="white"/>
<rect x="248.922" y="83.3008" width="10.5152" height="10.5206" fill="white"/>
<rect x="248.922" y="83.3008" width="10.5152" height="10.5206" fill="white"/>
<rect x="248.922" y="83.3008" width="10.5152" height="10.5206" fill="white"/>
<rect x="248.922" y="83.3008" width="10.5152" height="10.5206" fill="white"/>
<rect x="248.922" y="83.3008" width="10.5152" height="10.5206" fill="white"/>
<rect x="248.922" y="83.3008" width="10.5152" height="10.5206" fill="white"/>
<rect x="248.922" y="83.3008" width="10.5152" height="10.5206" fill="white"/>
<rect x="248.922" y="83.3008" width="10.5152" height="10.5206" fill="white"/>
<rect x="248.922" y="83.3008" width="10.5152" height="10.5206" fill="white"/>
<rect x="248.922" y="83.3008" width="10.5152" height="10.5206" fill="white"/>
<rect x="248.922" y="83.3008" width="10.5152" height="10.5206" fill="white"/>
<rect x="248.922" y="83.3008" width="10.5152" height="10.5206" fill="white"/>
<rect x="248.922" y="83.3008" width="10.5152" height="10.5206" fill="white"/>
<rect x="248.922" y="83.3008" width="10.5152" height="10.5206" fill="white"/>
<rect x="248.922" y="83.3008" width="10.5152" height="10.5206" fill="white"/>
<rect x="248.922" y="83.3008" width="10.5152" height="10.5206" fill="white"/>
<rect x="248.922" y="83.3008" width="10.5152" height="10.5206" fill="white"/>
<rect x="248.922" y="83.3008" width="10.5152" height="10.5206" fill="white"/>
<rect x="248.922" y="83.3008" width="10.5152" height="10.5206" fill="white"/>
<rect x="248.922" y="83.3008" width="10.5152" height="10.5206" fill="white"/>
<rect x="248.922" y="83.3008" width="10.5152" height="10.5206" fill="white"/>
<rect x="248.922" y="83.3008" width="10.5152" height="10.5206" fill="white"/>
<rect x="248.922" y="83.3008" width="10.5152" height="10.5206" fill="white"/>
<rect x="248.922" y="83.3008" width="10.5152" height="10.5206" fill="white"/>
<rect x="248.922" y="83.3008" width="10.5152" height="10.5206" fill="white"/>
<rect x="248.922" y="83.3008" width="10.5152" height="10.5206" fill="white"/>
<rect x="357.582" y="192.013" width="10.5152" height="10.5206" fill="white"/>
<rect x="357.582" y="192.013" width="10.5152" height="10.5206" fill="white"/>
<rect x="357.582" y="192.013" width="10.5152" height="10.5206" fill="white"/>
<rect x="357.582" y="192.013" width="10.5152" height="10.5206" fill="white"/>
<rect x="357.582" y="192.013" width="10.5152" height="10.5206" fill="white"/>
<rect x="357.582" y="192.013" width="10.5152" height="10.5206" fill="white"/>
<rect x="357.582" y="192.013" width="10.5152" height="10.5206" fill="white"/>
<rect x="357.582" y="192.013" width="10.5152" height="10.5206" fill="white"/>
<rect x="357.582" y="192.013" width="10.5152" height="10.5206" fill="white"/>
<rect x="357.582" y="192.013" width="10.5152" height="10.5206" fill="white"/>
<rect x="357.582" y="192.013" width="10.5152" height="10.5206" fill="white"/>
<rect x="357.582" y="192.013" width="10.5152" height="10.5206" fill="white"/>
<rect x="357.582" y="192.013" width="10.5152" height="10.5206" fill="white"/>
<rect x="357.582" y="192.013" width="10.5152" height="10.5206" fill="white"/>
<rect x="357.582" y="192.013" width="10.5152" height="10.5206" fill="white"/>
<rect x="357.582" y="192.013" width="10.5152" height="10.5206" fill="white"/>
<rect x="357.582" y="192.013" width="10.5152" height="10.5206" fill="white"/>
<rect x="357.582" y="192.013" width="10.5152" height="10.5206" fill="white"/>
<rect x="357.582" y="192.013" width="10.5152" height="10.5206" fill="white"/>
<rect x="357.582" y="192.013" width="10.5152" height="10.5206" fill="white"/>
<rect x="357.582" y="192.013" width="10.5152" height="10.5206" fill="white"/>
<rect x="357.582" y="192.013" width="10.5152" height="10.5206" fill="white"/>
<rect x="357.582" y="192.013" width="10.5152" height="10.5206" fill="white"/>
<rect x="357.582" y="192.013" width="10.5152" height="10.5206" fill="white"/>
<rect x="357.582" y="192.013" width="10.5152" height="10.5206" fill="white"/>
<rect x="357.582" y="192.013" width="10.5152" height="10.5206" fill="white"/>
<rect x="357.582" y="192.013" width="10.5152" height="10.5206" fill="white"/>
<rect x="357.582" y="192.013" width="10.5152" height="10.5206" fill="white"/>
<rect x="357.582" y="291.958" width="10.5152" height="8.76713" fill="white"/>
<rect x="357.582" y="291.958" width="10.5152" height="8.76713" fill="white"/>
<rect x="357.582" y="291.958" width="10.5152" height="8.76713" fill="white"/>
<rect x="357.582" y="291.958" width="10.5152" height="8.76713" fill="white"/>
<rect x="357.582" y="291.958" width="10.5152" height="8.76713" fill="white"/>
<rect x="357.582" y="291.958" width="10.5152" height="8.76713" fill="white"/>
<rect x="357.582" y="291.958" width="10.5152" height="8.76713" fill="white"/>
<rect x="357.582" y="291.958" width="10.5152" height="8.76713" fill="white"/>
<rect x="357.582" y="291.958" width="10.5152" height="8.76713" fill="white"/>
<rect x="357.582" y="291.958" width="10.5152" height="8.76713" fill="white"/>
<rect x="357.582" y="291.958" width="10.5152" height="8.76713" fill="white"/>
<rect x="357.582" y="291.958" width="10.5152" height="8.76713" fill="white"/>
<rect x="357.582" y="291.958" width="10.5152" height="8.76713" fill="white"/>
<rect x="357.582" y="291.958" width="10.5152" height="8.76713" fill="white"/>
<rect x="357.582" y="291.958" width="10.5152" height="8.76713" fill="white"/>
<rect x="357.582" y="291.958" width="10.5152" height="8.76713" fill="white"/>
<rect x="357.582" y="291.958" width="10.5152" height="8.76713" fill="white"/>
<rect x="357.582" y="291.958" width="10.5152" height="8.76713" fill="white"/>
<rect x="357.582" y="291.958" width="10.5152" height="8.76713" fill="white"/>
<rect x="357.582" y="291.958" width="10.5152" height="8.76713" fill="white"/>
<rect x="357.582" y="291.958" width="10.5152" height="8.76713" fill="white"/>
<rect x="357.582" y="291.958" width="10.5152" height="8.76713" fill="white"/>
<rect x="357.582" y="291.958" width="10.5152" height="8.76713" fill="white"/>
<rect x="357.582" y="291.958" width="10.5152" height="8.76713" fill="white"/>
<rect x="357.582" y="291.958" width="10.5152" height="8.76713" fill="white"/>
<rect x="357.582" y="291.958" width="10.5152" height="8.76713" fill="white"/>
<rect x="357.582" y="291.958" width="10.5152" height="8.76713" fill="white"/>
<rect x="357.582" y="291.958" width="10.5152" height="8.76713" fill="white"/>
<rect x="357.582" y="390.149" width="10.5152" height="10.5206" fill="white"/>
<rect x="357.582" y="390.149" width="10.5152" height="10.5206" fill="white"/>
<rect x="357.582" y="390.149" width="10.5152" height="10.5206" fill="white"/>
<rect x="357.582" y="390.149" width="10.5152" height="10.5206" fill="white"/>
<rect x="357.582" y="390.149" width="10.5152" height="10.5206" fill="white"/>
<rect x="357.582" y="390.149" width="10.5152" height="10.5206" fill="white"/>
<rect x="357.582" y="390.149" width="10.5152" height="10.5206" fill="white"/>
<rect x="357.582" y="390.149" width="10.5152" height="10.5206" fill="white"/>
<rect x="357.582" y="390.149" width="10.5152" height="10.5206" fill="white"/>
<rect x="357.582" y="390.149" width="10.5152" height="10.5206" fill="white"/>
<rect x="357.582" y="390.149" width="10.5152" height="10.5206" fill="white"/>
<rect x="357.582" y="390.149" width="10.5152" height="10.5206" fill="white"/>
<rect x="357.582" y="390.149" width="10.5152" height="10.5206" fill="white"/>
<rect x="357.582" y="390.149" width="10.5152" height="10.5206" fill="white"/>
<rect x="357.582" y="390.149" width="10.5152" height="10.5206" fill="white"/>
<rect x="357.582" y="390.149" width="10.5152" height="10.5206" fill="white"/>
<rect x="357.582" y="390.149" width="10.5152" height="10.5206" fill="white"/>
<rect x="357.582" y="390.149" width="10.5152" height="10.5206" fill="white"/>
<rect x="357.582" y="390.149" width="10.5152" height="10.5206" fill="white"/>
<rect x="357.582" y="390.149" width="10.5152" height="10.5206" fill="white"/>
<rect x="357.582" y="390.149" width="10.5152" height="10.5206" fill="white"/>
<rect x="357.582" y="390.149" width="10.5152" height="10.5206" fill="white"/>
<rect x="357.582" y="390.149" width="10.5152" height="10.5206" fill="white"/>
<rect x="357.582" y="390.149" width="10.5152" height="10.5206" fill="white"/>
<rect x="357.582" y="390.149" width="10.5152" height="10.5206" fill="white"/>
<rect x="357.582" y="390.149" width="10.5152" height="10.5206" fill="white"/>
<rect x="357.582" y="390.149" width="10.5152" height="10.5206" fill="white"/>
<rect x="357.582" y="390.149" width="10.5152" height="10.5206" fill="white"/>
<rect x="352.324" y="486.588" width="21.0303" height="21.0411" fill="white"/>
<rect x="352.324" y="486.588" width="21.0303" height="21.0411" fill="white"/>
<rect x="352.324" y="486.588" width="21.0303" height="21.0411" fill="white"/>
<rect x="352.324" y="486.588" width="21.0303" height="21.0411" fill="white"/>
<rect x="352.324" y="486.588" width="21.0303" height="21.0411" fill="white"/>
<rect x="352.324" y="486.588" width="21.0303" height="21.0411" fill="white"/>
<rect x="352.324" y="486.588" width="21.0303" height="21.0411" fill="white"/>
<rect x="352.324" y="486.588" width="21.0303" height="21.0411" fill="white"/>
<rect x="352.324" y="486.588" width="21.0303" height="21.0411" fill="white"/>
<rect x="352.324" y="486.588" width="21.0303" height="21.0411" fill="white"/>
<rect x="352.324" y="486.588" width="21.0303" height="21.0411" fill="white"/>
<rect x="352.324" y="486.588" width="21.0303" height="21.0411" fill="white"/>
<rect x="352.324" y="486.588" width="21.0303" height="21.0411" fill="white"/>
<rect x="352.324" y="486.588" width="21.0303" height="21.0411" fill="white"/>
<rect x="352.324" y="486.588" width="21.0303" height="21.0411" fill="white"/>
<rect x="352.324" y="486.588" width="21.0303" height="21.0411" fill="white"/>
<rect x="352.324" y="486.588" width="21.0303" height="21.0411" fill="white"/>
<rect x="352.324" y="486.588" width="21.0303" height="21.0411" fill="white"/>
<rect x="352.324" y="486.588" width="21.0303" height="21.0411" fill="white"/>
<rect x="352.324" y="486.588" width="21.0303" height="21.0411" fill="white"/>
<rect x="352.324" y="486.588" width="21.0303" height="21.0411" fill="white"/>
<rect x="352.324" y="486.588" width="21.0303" height="21.0411" fill="white"/>
<rect x="352.324" y="486.588" width="21.0303" height="21.0411" fill="white"/>
<rect x="352.324" y="486.588" width="21.0303" height="21.0411" fill="white"/>
<rect x="352.324" y="486.588" width="21.0303" height="21.0411" fill="white"/>
<rect x="352.324" y="486.588" width="21.0303" height="21.0411" fill="white"/>
<rect x="352.324" y="486.588" width="21.0303" height="21.0411" fill="white"/>
<rect x="352.324" y="486.588" width="21.0303" height="21.0411" fill="white"/>
<rect x="357.582" y="83.3008" width="10.5152" height="10.5206" fill="white"/>
<rect x="357.582" y="83.3008" width="10.5152" height="10.5206" fill="white"/>
<rect x="357.582" y="83.3008" width="10.5152" height="10.5206" fill="white"/>
<rect x="357.582" y="83.3008" width="10.5152" height="10.5206" fill="white"/>
<rect x="357.582" y="83.3008" width="10.5152" height="10.5206" fill="white"/>
<rect x="357.582" y="83.3008" width="10.5152" height="10.5206" fill="white"/>
<rect x="357.582" y="83.3008" width="10.5152" height="10.5206" fill="white"/>
<rect x="357.582" y="83.3008" width="10.5152" height="10.5206" fill="white"/>
<rect x="357.582" y="83.3008" width="10.5152" height="10.5206" fill="white"/>
<rect x="357.582" y="83.3008" width="10.5152" height="10.5206" fill="white"/>
<rect x="357.582" y="83.3008" width="10.5152" height="10.5206" fill="white"/>
<rect x="357.582" y="83.3008" width="10.5152" height="10.5206" fill="white"/>
<rect x="357.582" y="83.3008" width="10.5152" height="10.5206" fill="white"/>
<rect x="357.582" y="83.3008" width="10.5152" height="10.5206" fill="white"/>
<rect x="357.582" y="83.3008" width="10.5152" height="10.5206" fill="white"/>
<rect x="357.582" y="83.3008" width="10.5152" height="10.5206" fill="white"/>
<rect x="357.582" y="83.3008" width="10.5152" height="10.5206" fill="white"/>
<rect x="357.582" y="83.3008" width="10.5152" height="10.5206" fill="white"/>
<rect x="357.582" y="83.3008" width="10.5152" height="10.5206" fill="white"/>
<rect x="357.582" y="83.3008" width="10.5152" height="10.5206" fill="white"/>
<rect x="357.582" y="83.3008" width="10.5152" height="10.5206" fill="white"/>
<rect x="357.582" y="83.3008" width="10.5152" height="10.5206" fill="white"/>
<rect x="357.582" y="83.3008" width="10.5152" height="10.5206" fill="white"/>
<rect x="357.582" y="83.3008" width="10.5152" height="10.5206" fill="white"/>
<rect x="357.582" y="83.3008" width="10.5152" height="10.5206" fill="white"/>
<rect x="357.582" y="83.3008" width="10.5152" height="10.5206" fill="white"/>
<rect x="357.582" y="83.3008" width="10.5152" height="10.5206" fill="white"/>
<rect x="357.582" y="83.3008" width="10.5152" height="10.5206" fill="white"/>
<rect x="248.922" y="590.04" width="10.5152" height="10.5206" fill="white"/>
<rect x="248.922" y="590.04" width="10.5152" height="10.5206" fill="white"/>
<rect x="248.922" y="590.04" width="10.5152" height="10.5206" fill="white"/>
<rect x="248.922" y="590.04" width="10.5152" height="10.5206" fill="white"/>
<rect x="248.922" y="590.04" width="10.5152" height="10.5206" fill="white"/>
<rect x="248.922" y="590.04" width="10.5152" height="10.5206" fill="white"/>
<rect x="248.922" y="590.04" width="10.5152" height="10.5206" fill="white"/>
<rect x="248.922" y="590.04" width="10.5152" height="10.5206" fill="white"/>
<rect x="248.922" y="590.04" width="10.5152" height="10.5206" fill="white"/>
<rect x="248.922" y="590.04" width="10.5152" height="10.5206" fill="white"/>
<rect x="248.922" y="590.04" width="10.5152" height="10.5206" fill="white"/>
<rect x="248.922" y="590.04" width="10.5152" height="10.5206" fill="white"/>
<rect x="248.922" y="590.04" width="10.5152" height="10.5206" fill="white"/>
<rect x="248.922" y="590.04" width="10.5152" height="10.5206" fill="white"/>
<rect x="248.922" y="590.04" width="10.5152" height="10.5206" fill="white"/>
<rect x="248.922" y="590.04" width="10.5152" height="10.5206" fill="white"/>
<rect x="248.922" y="590.04" width="10.5152" height="10.5206" fill="white"/>
<rect x="248.922" y="590.04" width="10.5152" height="10.5206" fill="white"/>
<rect x="248.922" y="590.04" width="10.5152" height="10.5206" fill="white"/>
<rect x="248.922" y="590.04" width="10.5152" height="10.5206" fill="white"/>
<rect x="248.922" y="590.04" width="10.5152" height="10.5206" fill="white"/>
<rect x="248.922" y="590.04" width="10.5152" height="10.5206" fill="white"/>
<rect x="248.922" y="590.04" width="10.5152" height="10.5206" fill="white"/>
<rect x="248.922" y="590.04" width="10.5152" height="10.5206" fill="white"/>
<rect x="248.922" y="590.04" width="10.5152" height="10.5206" fill="white"/>
<rect x="248.922" y="590.04" width="10.5152" height="10.5206" fill="white"/>
<rect x="248.922" y="590.04" width="10.5152" height="10.5206" fill="white"/>
<rect x="248.922" y="590.04" width="10.5152" height="10.5206" fill="white"/>
<rect x="142.02" y="490.096" width="10.5152" height="10.5206" fill="white"/>
<rect x="142.02" y="490.096" width="10.5152" height="10.5206" fill="white"/>
<rect x="142.02" y="490.096" width="10.5152" height="10.5206" fill="white"/>
<rect x="142.02" y="490.096" width="10.5152" height="10.5206" fill="white"/>
<rect x="142.02" y="490.096" width="10.5152" height="10.5206" fill="white"/>
<rect x="142.02" y="490.096" width="10.5152" height="10.5206" fill="white"/>
<rect x="142.02" y="490.096" width="10.5152" height="10.5206" fill="white"/>
<rect x="142.02" y="490.096" width="10.5152" height="10.5206" fill="white"/>
<rect x="142.02" y="490.096" width="10.5152" height="10.5206" fill="white"/>
<rect x="142.02" y="490.096" width="10.5152" height="10.5206" fill="white"/>
<rect x="142.02" y="490.096" width="10.5152" height="10.5206" fill="white"/>
<rect x="142.02" y="490.096" width="10.5152" height="10.5206" fill="white"/>
<rect x="142.02" y="490.096" width="10.5152" height="10.5206" fill="white"/>
<rect x="142.02" y="490.096" width="10.5152" height="10.5206" fill="white"/>
<rect x="142.02" y="490.096" width="10.5152" height="10.5206" fill="white"/>
<rect x="142.02" y="490.096" width="10.5152" height="10.5206" fill="white"/>
<rect x="142.02" y="490.096" width="10.5152" height="10.5206" fill="white"/>
<rect x="142.02" y="490.096" width="10.5152" height="10.5206" fill="white"/>
<rect x="142.02" y="490.096" width="10.5152" height="10.5206" fill="white"/>
<rect x="142.02" y="490.096" width="10.5152" height="10.5206" fill="white"/>
<rect x="142.02" y="490.096" width="10.5152" height="10.5206" fill="white"/>
<rect x="142.02" y="490.096" width="10.5152" height="10.5206" fill="white"/>
<rect x="142.02" y="490.096" width="10.5152" height="10.5206" fill="white"/>
<rect x="142.02" y="490.096" width="10.5152" height="10.5206" fill="white"/>
<rect x="142.02" y="490.096" width="10.5152" height="10.5206" fill="white"/>
<rect x="142.02" y="490.096" width="10.5152" height="10.5206" fill="white"/>
<rect x="142.02" y="490.096" width="10.5152" height="10.5206" fill="white"/>
<rect x="142.02" y="490.096" width="10.5152" height="10.5206" fill="white"/>
<rect x="142.02" y="393.656" width="10.5152" height="10.5206" fill="white"/>
<rect x="142.02" y="393.656" width="10.5152" height="10.5206" fill="white"/>
<rect x="142.02" y="393.656" width="10.5152" height="10.5206" fill="white"/>
<rect x="142.02" y="393.656" width="10.5152" height="10.5206" fill="white"/>
<rect x="142.02" y="393.656" width="10.5152" height="10.5206" fill="white"/>
<rect x="142.02" y="393.656" width="10.5152" height="10.5206" fill="white"/>
<rect x="142.02" y="393.656" width="10.5152" height="10.5206" fill="white"/>
<rect x="142.02" y="393.656" width="10.5152" height="10.5206" fill="white"/>
<rect x="142.02" y="393.656" width="10.5152" height="10.5206" fill="white"/>
<rect x="142.02" y="393.656" width="10.5152" height="10.5206" fill="white"/>
<rect x="142.02" y="393.656" width="10.5152" height="10.5206" fill="white"/>
<rect x="142.02" y="393.656" width="10.5152" height="10.5206" fill="white"/>
<rect x="142.02" y="393.656" width="10.5152" height="10.5206" fill="white"/>
<rect x="142.02" y="393.656" width="10.5152" height="10.5206" fill="white"/>
<rect x="142.02" y="393.656" width="10.5152" height="10.5206" fill="white"/>
<rect x="142.02" y="393.656" width="10.5152" height="10.5206" fill="white"/>
<rect x="142.02" y="393.656" width="10.5152" height="10.5206" fill="white"/>
<rect x="142.02" y="393.656" width="10.5152" height="10.5206" fill="white"/>
<rect x="142.02" y="393.656" width="10.5152" height="10.5206" fill="white"/>
<rect x="142.02" y="393.656" width="10.5152" height="10.5206" fill="white"/>
<rect x="142.02" y="393.656" width="10.5152" height="10.5206" fill="white"/>
<rect x="142.02" y="393.656" width="10.5152" height="10.5206" fill="white"/>
<rect x="142.02" y="393.656" width="10.5152" height="10.5206" fill="white"/>
<rect x="142.02" y="393.656" width="10.5152" height="10.5206" fill="white"/>
<rect x="142.02" y="393.656" width="10.5152" height="10.5206" fill="white"/>
<rect x="142.02" y="393.656" width="10.5152" height="10.5206" fill="white"/>
<rect x="142.02" y="393.656" width="10.5152" height="10.5206" fill="white"/>
<rect x="142.02" y="393.656" width="10.5152" height="10.5206" fill="white"/>
<rect x="357.582" y="590.04" width="10.5152" height="10.5206" fill="white"/>
<rect x="357.582" y="590.04" width="10.5152" height="10.5206" fill="white"/>
<rect x="357.582" y="590.04" width="10.5152" height="10.5206" fill="white"/>
<rect x="357.582" y="590.04" width="10.5152" height="10.5206" fill="white"/>
<rect x="357.582" y="590.04" width="10.5152" height="10.5206" fill="white"/>
<rect x="357.582" y="590.04" width="10.5152" height="10.5206" fill="white"/>
<rect x="357.582" y="590.04" width="10.5152" height="10.5206" fill="white"/>
<rect x="357.582" y="590.04" width="10.5152" height="10.5206" fill="white"/>
<rect x="357.582" y="590.04" width="10.5152" height="10.5206" fill="white"/>
<rect x="357.582" y="590.04" width="10.5152" height="10.5206" fill="white"/>
<rect x="357.582" y="590.04" width="10.5152" height="10.5206" fill="white"/>
<rect x="357.582" y="590.04" width="10.5152" height="10.5206" fill="white"/>
<rect x="357.582" y="590.04" width="10.5152" height="10.5206" fill="white"/>
<rect x="357.582" y="590.04" width="10.5152" height="10.5206" fill="white"/>
<rect x="357.582" y="590.04" width="10.5152" height="10.5206" fill="white"/>
<rect x="357.582" y="590.04" width="10.5152" height="10.5206" fill="white"/>
<rect x="357.582" y="590.04" width="10.5152" height="10.5206" fill="white"/>
<rect x="357.582" y="590.04" width="10.5152" height="10.5206" fill="white"/>
<rect x="357.582" y="590.04" width="10.5152" height="10.5206" fill="white"/>
<rect x="357.582" y="590.04" width="10.5152" height="10.5206" fill="white"/>
<rect x="357.582" y="590.04" width="10.5152" height="10.5206" fill="white"/>
<rect x="357.582" y="590.04" width="10.5152" height="10.5206" fill="white"/>
<rect x="357.582" y="590.04" width="10.5152" height="10.5206" fill="white"/>
<rect x="357.582" y="590.04" width="10.5152" height="10.5206" fill="white"/>
<rect x="357.582" y="590.04" width="10.5152" height="10.5206" fill="white"/>
<rect x="357.582" y="590.04" width="10.5152" height="10.5206" fill="white"/>
<rect x="357.582" y="590.04" width="10.5152" height="10.5206" fill="white"/>
<rect x="357.582" y="590.04" width="10.5152" height="10.5206" fill="white"/>
<rect x="357.582" y="689.985" width="10.5152" height="8.76713" fill="white"/>
<rect x="357.582" y="689.985" width="10.5152" height="8.76713" fill="white"/>
<rect x="357.582" y="689.985" width="10.5152" height="8.76713" fill="white"/>
<rect x="357.582" y="689.985" width="10.5152" height="8.76713" fill="white"/>
<rect x="357.582" y="689.985" width="10.5152" height="8.76713" fill="white"/>
<rect x="357.582" y="689.985" width="10.5152" height="8.76713" fill="white"/>
<rect x="357.582" y="689.985" width="10.5152" height="8.76713" fill="white"/>
<rect x="357.582" y="689.985" width="10.5152" height="8.76713" fill="white"/>
<rect x="357.582" y="689.985" width="10.5152" height="8.76713" fill="white"/>
<rect x="357.582" y="689.985" width="10.5152" height="8.76713" fill="white"/>
<rect x="357.582" y="689.985" width="10.5152" height="8.76713" fill="white"/>
<rect x="357.582" y="689.985" width="10.5152" height="8.76713" fill="white"/>
<rect x="357.582" y="689.985" width="10.5152" height="8.76713" fill="white"/>
<rect x="357.582" y="689.985" width="10.5152" height="8.76713" fill="white"/>
<rect x="357.582" y="689.985" width="10.5152" height="8.76713" fill="white"/>
<rect x="357.582" y="689.985" width="10.5152" height="8.76713" fill="white"/>
<rect x="357.582" y="689.985" width="10.5152" height="8.76713" fill="white"/>
<rect x="357.582" y="689.985" width="10.5152" height="8.76713" fill="white"/>
<rect x="357.582" y="689.985" width="10.5152" height="8.76713" fill="white"/>
<rect x="357.582" y="689.985" width="10.5152" height="8.76713" fill="white"/>
<rect x="357.582" y="689.985" width="10.5152" height="8.76713" fill="white"/>
<rect x="357.582" y="689.985" width="10.5152" height="8.76713" fill="white"/>
<rect x="357.582" y="689.985" width="10.5152" height="8.76713" fill="white"/>
<rect x="357.582" y="689.985" width="10.5152" height="8.76713" fill="white"/>
<rect x="357.582" y="689.985" width="10.5152" height="8.76713" fill="white"/>
<rect x="357.582" y="689.985" width="10.5152" height="8.76713" fill="white"/>
<rect x="357.582" y="689.985" width="10.5152" height="8.76713" fill="white"/>
<rect x="357.582" y="689.985" width="10.5152" height="8.76713" fill="white"/>
<rect x="357.582" y="788.177" width="10.5152" height="10.5206" fill="white"/>
<rect x="357.582" y="788.177" width="10.5152" height="10.5206" fill="white"/>
<rect x="357.582" y="788.177" width="10.5152" height="10.5206" fill="white"/>
<rect x="357.582" y="788.177" width="10.5152" height="10.5206" fill="white"/>
<rect x="357.582" y="788.177" width="10.5152" height="10.5206" fill="white"/>
<rect x="357.582" y="788.177" width="10.5152" height="10.5206" fill="white"/>
<rect x="357.582" y="788.177" width="10.5152" height="10.5206" fill="white"/>
<rect x="357.582" y="788.177" width="10.5152" height="10.5206" fill="white"/>
<rect x="357.582" y="788.177" width="10.5152" height="10.5206" fill="white"/>
<rect x="357.582" y="788.177" width="10.5152" height="10.5206" fill="white"/>
<rect x="357.582" y="788.177" width="10.5152" height="10.5206" fill="white"/>
<rect x="357.582" y="788.177" width="10.5152" height="10.5206" fill="white"/>
<rect x="357.582" y="788.177" width="10.5152" height="10.5206" fill="white"/>
<rect x="357.582" y="788.177" width="10.5152" height="10.5206" fill="white"/>
<rect x="357.582" y="788.177" width="10.5152" height="10.5206" fill="white"/>
<rect x="357.582" y="788.177" width="10.5152" height="10.5206" fill="white"/>
<rect x="357.582" y="788.177" width="10.5152" height="10.5206" fill="white"/>
<rect x="357.582" y="788.177" width="10.5152" height="10.5206" fill="white"/>
<rect x="357.582" y="788.177" width="10.5152" height="10.5206" fill="white"/>
<rect x="357.582" y="788.177" width="10.5152" height="10.5206" fill="white"/>
<rect x="357.582" y="788.177" width="10.5152" height="10.5206" fill="white"/>
<rect x="357.582" y="788.177" width="10.5152" height="10.5206" fill="white"/>
<rect x="357.582" y="788.177" width="10.5152" height="10.5206" fill="white"/>
<rect x="357.582" y="788.177" width="10.5152" height="10.5206" fill="white"/>
<rect x="357.582" y="788.177" width="10.5152" height="10.5206" fill="white"/>
<rect x="357.582" y="788.177" width="10.5152" height="10.5206" fill="white"/>
<rect x="357.582" y="788.177" width="10.5152" height="10.5206" fill="white"/>
<rect x="357.582" y="788.177" width="10.5152" height="10.5206" fill="white"/>
<rect x="142.02" y="689.985" width="10.5152" height="8.76713" fill="white"/>
<rect x="142.02" y="689.985" width="10.5152" height="8.76713" fill="white"/>
<rect x="142.02" y="689.985" width="10.5152" height="8.76713" fill="white"/>
<rect x="142.02" y="689.985" width="10.5152" height="8.76713" fill="white"/>
<rect x="142.02" y="689.985" width="10.5152" height="8.76713" fill="white"/>
<rect x="142.02" y="689.985" width="10.5152" height="8.76713" fill="white"/>
<rect x="142.02" y="689.985" width="10.5152" height="8.76713" fill="white"/>
<rect x="142.02" y="689.985" width="10.5152" height="8.76713" fill="white"/>
<rect x="142.02" y="689.985" width="10.5152" height="8.76713" fill="white"/>
<rect x="142.02" y="689.985" width="10.5152" height="8.76713" fill="white"/>
<rect x="142.02" y="689.985" width="10.5152" height="8.76713" fill="white"/>
<rect x="142.02" y="689.985" width="10.5152" height="8.76713" fill="white"/>
<rect x="142.02" y="689.985" width="10.5152" height="8.76713" fill="white"/>
<rect x="142.02" y="689.985" width="10.5152" height="8.76713" fill="white"/>
<rect x="142.02" y="689.985" width="10.5152" height="8.76713" fill="white"/>
<rect x="142.02" y="689.985" width="10.5152" height="8.76713" fill="white"/>
<rect x="142.02" y="689.985" width="10.5152" height="8.76713" fill="white"/>
<rect x="142.02" y="689.985" width="10.5152" height="8.76713" fill="white"/>
<rect x="142.02" y="689.985" width="10.5152" height="8.76713" fill="white"/>
<rect x="142.02" y="689.985" width="10.5152" height="8.76713" fill="white"/>
<rect x="142.02" y="689.985" width="10.5152" height="8.76713" fill="white"/>
<rect x="142.02" y="689.985" width="10.5152" height="8.76713" fill="white"/>
<rect x="142.02" y="689.985" width="10.5152" height="8.76713" fill="white"/>
<rect x="142.02" y="689.985" width="10.5152" height="8.76713" fill="white"/>
<rect x="142.02" y="689.985" width="10.5152" height="8.76713" fill="white"/>
<rect x="142.02" y="689.985" width="10.5152" height="8.76713" fill="white"/>
<rect x="142.02" y="689.985" width="10.5152" height="8.76713" fill="white"/>
<rect x="142.02" y="689.985" width="10.5152" height="8.76713" fill="white"/>
<rect x="142.02" y="788.177" width="10.5152" height="10.5206" fill="white"/>
<rect x="142.02" y="788.177" width="10.5152" height="10.5206" fill="white"/>
<rect x="142.02" y="788.177" width="10.5152" height="10.5206" fill="white"/>
<rect x="142.02" y="788.177" width="10.5152" height="10.5206" fill="white"/>
<rect x="142.02" y="788.177" width="10.5152" height="10.5206" fill="white"/>
<rect x="142.02" y="788.177" width="10.5152" height="10.5206" fill="white"/>
<rect x="142.02" y="788.177" width="10.5152" height="10.5206" fill="white"/>
<rect x="142.02" y="788.177" width="10.5152" height="10.5206" fill="white"/>
<rect x="142.02" y="788.177" width="10.5152" height="10.5206" fill="white"/>
<rect x="142.02" y="788.177" width="10.5152" height="10.5206" fill="white"/>
<rect x="142.02" y="788.177" width="10.5152" height="10.5206" fill="white"/>
<rect x="142.02" y="788.177" width="10.5152" height="10.5206" fill="white"/>
<rect x="142.02" y="788.177" width="10.5152" height="10.5206" fill="white"/>
<rect x="142.02" y="788.177" width="10.5152" height="10.5206" fill="white"/>
<rect x="142.02" y="788.177" width="10.5152" height="10.5206" fill="white"/>
<rect x="142.02" y="788.177" width="10.5152" height="10.5206" fill="white"/>
<rect x="142.02" y="788.177" width="10.5152" height="10.5206" fill="white"/>
<rect x="142.02" y="788.177" width="10.5152" height="10.5206" fill="white"/>
<rect x="142.02" y="788.177" width="10.5152" height="10.5206" fill="white"/>
<rect x="142.02" y="788.177" width="10.5152" height="10.5206" fill="white"/>
<rect x="142.02" y="788.177" width="10.5152" height="10.5206" fill="white"/>
<rect x="142.02" y="788.177" width="10.5152" height="10.5206" fill="white"/>
<rect x="142.02" y="788.177" width="10.5152" height="10.5206" fill="white"/>
<rect x="142.02" y="788.177" width="10.5152" height="10.5206" fill="white"/>
<rect x="142.02" y="788.177" width="10.5152" height="10.5206" fill="white"/>
<rect x="142.02" y="788.177" width="10.5152" height="10.5206" fill="white"/>
<rect x="142.02" y="788.177" width="10.5152" height="10.5206" fill="white"/>
<rect x="142.02" y="788.177" width="10.5152" height="10.5206" fill="white"/>
<rect x="248.922" y="788.177" width="10.5152" height="10.5206" fill="white"/>
<rect x="248.922" y="788.177" width="10.5152" height="10.5206" fill="white"/>
<rect x="248.922" y="788.177" width="10.5152" height="10.5206" fill="white"/>
<rect x="248.922" y="788.177" width="10.5152" height="10.5206" fill="white"/>
<rect x="248.922" y="788.177" width="10.5152" height="10.5206" fill="white"/>
<rect x="248.922" y="788.177" width="10.5152" height="10.5206" fill="white"/>
<rect x="248.922" y="788.177" width="10.5152" height="10.5206" fill="white"/>
<rect x="248.922" y="788.177" width="10.5152" height="10.5206" fill="white"/>
<rect x="248.922" y="788.177" width="10.5152" height="10.5206" fill="white"/>
<rect x="248.922" y="788.177" width="10.5152" height="10.5206" fill="white"/>
<rect x="248.922" y="788.177" width="10.5152" height="10.5206" fill="white"/>
<rect x="248.922" y="788.177" width="10.5152" height="10.5206" fill="white"/>
<rect x="248.922" y="788.177" width="10.5152" height="10.5206" fill="white"/>
<rect x="248.922" y="788.177" width="10.5152" height="10.5206" fill="white"/>
<rect x="248.922" y="788.177" width="10.5152" height="10.5206" fill="white"/>
<rect x="248.922" y="788.177" width="10.5152" height="10.5206" fill="white"/>
<rect x="248.922" y="788.177" width="10.5152" height="10.5206" fill="white"/>
<rect x="248.922" y="788.177" width="10.5152" height="10.5206" fill="white"/>
<rect x="248.922" y="788.177" width="10.5152" height="10.5206" fill="white"/>
<rect x="248.922" y="788.177" width="10.5152" height="10.5206" fill="white"/>
<rect x="248.922" y="788.177" width="10.5152" height="10.5206" fill="white"/>
<rect x="248.922" y="788.177" width="10.5152" height="10.5206" fill="white"/>
<rect x="248.922" y="788.177" width="10.5152" height="10.5206" fill="white"/>
<rect x="248.922" y="788.177" width="10.5152" height="10.5206" fill="white"/>
<rect x="248.922" y="788.177" width="10.5152" height="10.5206" fill="white"/>
<rect x="248.922" y="788.177" width="10.5152" height="10.5206" fill="white"/>
<rect x="248.922" y="788.177" width="10.5152" height="10.5206" fill="white"/>
<rect x="248.922" y="788.177" width="10.5152" height="10.5206" fill="white"/>
<rect x="243.664" y="682.972" width="21.0303" height="22.7945" fill="white"/>
<rect x="243.664" y="682.972" width="21.0303" height="22.7945" fill="white"/>
<rect x="243.664" y="682.972" width="21.0303" height="22.7945" fill="white"/>
<rect x="243.664" y="682.972" width="21.0303" height="22.7945" fill="white"/>
<rect x="243.664" y="682.972" width="21.0303" height="22.7945" fill="white"/>
<rect x="243.664" y="682.972" width="21.0303" height="22.7945" fill="white"/>
<rect x="243.664" y="682.972" width="21.0303" height="22.7945" fill="white"/>
<rect x="243.664" y="682.972" width="21.0303" height="22.7945" fill="white"/>
<rect x="243.664" y="682.972" width="21.0303" height="22.7945" fill="white"/>
<rect x="243.664" y="682.972" width="21.0303" height="22.7945" fill="white"/>
<rect x="243.664" y="682.972" width="21.0303" height="22.7945" fill="white"/>
<rect x="243.664" y="682.972" width="21.0303" height="22.7945" fill="white"/>
<rect x="243.664" y="682.972" width="21.0303" height="22.7945" fill="white"/>
<rect x="243.664" y="682.972" width="21.0303" height="22.7945" fill="white"/>
<rect x="243.664" y="682.972" width="21.0303" height="22.7945" fill="white"/>
<rect x="243.664" y="682.972" width="21.0303" height="22.7945" fill="white"/>
<rect x="243.664" y="682.972" width="21.0303" height="22.7945" fill="white"/>
<rect x="243.664" y="682.972" width="21.0303" height="22.7945" fill="white"/>
<rect x="243.664" y="682.972" width="21.0303" height="22.7945" fill="white"/>
<rect x="243.664" y="682.972" width="21.0303" height="22.7945" fill="white"/>
<rect x="243.664" y="682.972" width="21.0303" height="22.7945" fill="white"/>
<rect x="243.664" y="682.972" width="21.0303" height="22.7945" fill="white"/>
<rect x="243.664" y="682.972" width="21.0303" height="22.7945" fill="white"/>
<rect x="243.664" y="682.972" width="21.0303" height="22.7945" fill="white"/>
<rect x="243.664" y="682.972" width="21.0303" height="22.7945" fill="white"/>
<rect x="243.664" y="682.972" width="21.0303" height="22.7945" fill="white"/>
<rect x="243.664" y="682.972" width="21.0303" height="22.7945" fill="white"/>
<rect x="243.664" y="682.972" width="21.0303" height="22.7945" fill="white"/>
<path d="M154.289 95.5747L154.289 78.0404L145.526 78.0404L145.526 104.342L154.289 95.5747Z" fill="white"/>
<path d="M136.763 872.342H154.288V881.109H128L136.763 872.342Z" fill="white"/>
<rect x="142.02" y="986.314" width="10.5152" height="10.5206" fill="white"/>
<rect x="142.02" y="986.314" width="10.5152" height="10.5206" fill="white"/>
<rect x="142.02" y="986.314" width="10.5152" height="10.5206" fill="white"/>
<rect x="142.02" y="986.314" width="10.5152" height="10.5206" fill="white"/>
<rect x="142.02" y="986.314" width="10.5152" height="10.5206" fill="white"/>
<rect x="142.02" y="986.314" width="10.5152" height="10.5206" fill="white"/>
<rect x="142.02" y="986.314" width="10.5152" height="10.5206" fill="white"/>
<rect x="142.02" y="986.314" width="10.5152" height="10.5206" fill="white"/>
<rect x="142.02" y="986.314" width="10.5152" height="10.5206" fill="white"/>
<rect x="142.02" y="986.314" width="10.5152" height="10.5206" fill="white"/>
<rect x="142.02" y="986.314" width="10.5152" height="10.5206" fill="white"/>
<rect x="142.02" y="986.314" width="10.5152" height="10.5206" fill="white"/>
<rect x="142.02" y="986.314" width="10.5152" height="10.5206" fill="white"/>
<rect x="142.02" y="986.314" width="10.5152" height="10.5206" fill="white"/>
<rect x="142.02" y="986.314" width="10.5152" height="10.5206" fill="white"/>
<rect x="142.02" y="986.314" width="10.5152" height="10.5206" fill="white"/>
<rect x="142.02" y="986.314" width="10.5152" height="10.5206" fill="white"/>
<rect x="142.02" y="986.314" width="10.5152" height="10.5206" fill="white"/>
<rect x="142.02" y="986.314" width="10.5152" height="10.5206" fill="white"/>
<rect x="142.02" y="986.314" width="10.5152" height="10.5206" fill="white"/>
<rect x="142.02" y="986.314" width="10.5152" height="10.5206" fill="white"/>
<rect x="142.02" y="986.314" width="10.5152" height="10.5206" fill="white"/>
<rect x="142.02" y="986.314" width="10.5152" height="10.5206" fill="white"/>
<rect x="142.02" y="986.314" width="10.5152" height="10.5206" fill="white"/>
<rect x="142.02" y="986.314" width="10.5152" height="10.5206" fill="white"/>
<rect x="142.02" y="986.314" width="10.5152" height="10.5206" fill="white"/>
<rect x="142.02" y="986.314" width="10.5152" height="10.5206" fill="white"/>
<rect x="142.02" y="986.314" width="10.5152" height="10.5206" fill="white"/>
<rect x="142.02" y="1086.26" width="10.5152" height="8.76713" fill="white"/>
<rect x="142.02" y="1086.26" width="10.5152" height="8.76713" fill="white"/>
<rect x="142.02" y="1086.26" width="10.5152" height="8.76713" fill="white"/>
<rect x="142.02" y="1086.26" width="10.5152" height="8.76713" fill="white"/>
<rect x="142.02" y="1086.26" width="10.5152" height="8.76713" fill="white"/>
<rect x="142.02" y="1086.26" width="10.5152" height="8.76713" fill="white"/>
<rect x="142.02" y="1086.26" width="10.5152" height="8.76713" fill="white"/>
<rect x="142.02" y="1086.26" width="10.5152" height="8.76713" fill="white"/>
<rect x="142.02" y="1086.26" width="10.5152" height="8.76713" fill="white"/>
<rect x="142.02" y="1086.26" width="10.5152" height="8.76713" fill="white"/>
<rect x="142.02" y="1086.26" width="10.5152" height="8.76713" fill="white"/>
<rect x="142.02" y="1086.26" width="10.5152" height="8.76713" fill="white"/>
<rect x="142.02" y="1086.26" width="10.5152" height="8.76713" fill="white"/>
<rect x="142.02" y="1086.26" width="10.5152" height="8.76713" fill="white"/>
<rect x="142.02" y="1086.26" width="10.5152" height="8.76713" fill="white"/>
<rect x="142.02" y="1086.26" width="10.5152" height="8.76713" fill="white"/>
<rect x="142.02" y="1086.26" width="10.5152" height="8.76713" fill="white"/>
<rect x="142.02" y="1086.26" width="10.5152" height="8.76713" fill="white"/>
<rect x="142.02" y="1086.26" width="10.5152" height="8.76713" fill="white"/>
<rect x="142.02" y="1086.26" width="10.5152" height="8.76713" fill="white"/>
<rect x="142.02" y="1086.26" width="10.5152" height="8.76713" fill="white"/>
<rect x="142.02" y="1086.26" width="10.5152" height="8.76713" fill="white"/>
<rect x="142.02" y="1086.26" width="10.5152" height="8.76713" fill="white"/>
<rect x="142.02" y="1086.26" width="10.5152" height="8.76713" fill="white"/>
<rect x="142.02" y="1086.26" width="10.5152" height="8.76713" fill="white"/>
<rect x="142.02" y="1086.26" width="10.5152" height="8.76713" fill="white"/>
<rect x="142.02" y="1086.26" width="10.5152" height="8.76713" fill="white"/>
<rect x="142.02" y="1086.26" width="10.5152" height="8.76713" fill="white"/>
<rect x="142.02" y="1384.34" width="10.5152" height="10.5206" fill="white"/>
<rect x="142.02" y="1384.34" width="10.5152" height="10.5206" fill="white"/>
<rect x="142.02" y="1384.34" width="10.5152" height="10.5206" fill="white"/>
<rect x="142.02" y="1384.34" width="10.5152" height="10.5206" fill="white"/>
<rect x="142.02" y="1384.34" width="10.5152" height="10.5206" fill="white"/>
<rect x="142.02" y="1384.34" width="10.5152" height="10.5206" fill="white"/>
<rect x="142.02" y="1384.34" width="10.5152" height="10.5206" fill="white"/>
<rect x="142.02" y="1384.34" width="10.5152" height="10.5206" fill="white"/>
<rect x="142.02" y="1384.34" width="10.5152" height="10.5206" fill="white"/>
<rect x="142.02" y="1384.34" width="10.5152" height="10.5206" fill="white"/>
<rect x="142.02" y="1384.34" width="10.5152" height="10.5206" fill="white"/>
<rect x="142.02" y="1384.34" width="10.5152" height="10.5206" fill="white"/>
<rect x="142.02" y="1384.34" width="10.5152" height="10.5206" fill="white"/>
<rect x="142.02" y="1384.34" width="10.5152" height="10.5206" fill="white"/>
<rect x="142.02" y="1384.34" width="10.5152" height="10.5206" fill="white"/>
<rect x="142.02" y="1384.34" width="10.5152" height="10.5206" fill="white"/>
<rect x="142.02" y="1384.34" width="10.5152" height="10.5206" fill="white"/>
<rect x="142.02" y="1384.34" width="10.5152" height="10.5206" fill="white"/>
<rect x="142.02" y="1384.34" width="10.5152" height="10.5206" fill="white"/>
<rect x="142.02" y="1384.34" width="10.5152" height="10.5206" fill="white"/>
<rect x="142.02" y="1384.34" width="10.5152" height="10.5206" fill="white"/>
<rect x="142.02" y="1384.34" width="10.5152" height="10.5206" fill="white"/>
<rect x="142.02" y="1384.34" width="10.5152" height="10.5206" fill="white"/>
<rect x="142.02" y="1384.34" width="10.5152" height="10.5206" fill="white"/>
<rect x="142.02" y="1384.34" width="10.5152" height="10.5206" fill="white"/>
<rect x="142.02" y="1384.34" width="10.5152" height="10.5206" fill="white"/>
<rect x="142.02" y="1384.34" width="10.5152" height="10.5206" fill="white"/>
<rect x="142.02" y="1384.34" width="10.5152" height="10.5206" fill="white"/>
<rect x="248.922" y="1284.4" width="10.5152" height="10.5206" fill="white"/>
<rect x="248.922" y="1284.4" width="10.5152" height="10.5206" fill="white"/>
<rect x="248.922" y="1284.4" width="10.5152" height="10.5206" fill="white"/>
<rect x="248.922" y="1284.4" width="10.5152" height="10.5206" fill="white"/>
<rect x="248.922" y="1284.4" width="10.5152" height="10.5206" fill="white"/>
<rect x="248.922" y="1284.4" width="10.5152" height="10.5206" fill="white"/>
<rect x="248.922" y="1284.4" width="10.5152" height="10.5206" fill="white"/>
<rect x="248.922" y="1284.4" width="10.5152" height="10.5206" fill="white"/>
<rect x="248.922" y="1284.4" width="10.5152" height="10.5206" fill="white"/>
<rect x="248.922" y="1284.4" width="10.5152" height="10.5206" fill="white"/>
<rect x="248.922" y="1284.4" width="10.5152" height="10.5206" fill="white"/>
<rect x="248.922" y="1284.4" width="10.5152" height="10.5206" fill="white"/>
<rect x="248.922" y="1284.4" width="10.5152" height="10.5206" fill="white"/>
<rect x="248.922" y="1284.4" width="10.5152" height="10.5206" fill="white"/>
<rect x="248.922" y="1284.4" width="10.5152" height="10.5206" fill="white"/>
<rect x="248.922" y="1284.4" width="10.5152" height="10.5206" fill="white"/>
<rect x="248.922" y="1284.4" width="10.5152" height="10.5206" fill="white"/>
<rect x="248.922" y="1284.4" width="10.5152" height="10.5206" fill="white"/>
<rect x="248.922" y="1284.4" width="10.5152" height="10.5206" fill="white"/>
<rect x="248.922" y="1284.4" width="10.5152" height="10.5206" fill="white"/>
<rect x="248.922" y="1284.4" width="10.5152" height="10.5206" fill="white"/>
<rect x="248.922" y="1284.4" width="10.5152" height="10.5206" fill="white"/>
<rect x="248.922" y="1284.4" width="10.5152" height="10.5206" fill="white"/>
<rect x="248.922" y="1284.4" width="10.5152" height="10.5206" fill="white"/>
<rect x="248.922" y="1284.4" width="10.5152" height="10.5206" fill="white"/>
<rect x="248.922" y="1284.4" width="10.5152" height="10.5206" fill="white"/>
<rect x="248.922" y="1284.4" width="10.5152" height="10.5206" fill="white"/>
<rect x="248.922" y="1284.4" width="10.5152" height="10.5206" fill="white"/>
<rect x="248.922" y="1184.45" width="10.5152" height="10.5206" fill="white"/>
<rect x="248.922" y="1184.45" width="10.5152" height="10.5206" fill="white"/>
<rect x="248.922" y="1184.45" width="10.5152" height="10.5206" fill="white"/>
<rect x="248.922" y="1184.45" width="10.5152" height="10.5206" fill="white"/>
<rect x="248.922" y="1184.45" width="10.5152" height="10.5206" fill="white"/>
<rect x="248.922" y="1184.45" width="10.5152" height="10.5206" fill="white"/>
<rect x="248.922" y="1184.45" width="10.5152" height="10.5206" fill="white"/>
<rect x="248.922" y="1184.45" width="10.5152" height="10.5206" fill="white"/>
<rect x="248.922" y="1184.45" width="10.5152" height="10.5206" fill="white"/>
<rect x="248.922" y="1184.45" width="10.5152" height="10.5206" fill="white"/>
<rect x="248.922" y="1184.45" width="10.5152" height="10.5206" fill="white"/>
<rect x="248.922" y="1184.45" width="10.5152" height="10.5206" fill="white"/>
<rect x="248.922" y="1184.45" width="10.5152" height="10.5206" fill="white"/>
<rect x="248.922" y="1184.45" width="10.5152" height="10.5206" fill="white"/>
<rect x="248.922" y="1184.45" width="10.5152" height="10.5206" fill="white"/>
<rect x="248.922" y="1184.45" width="10.5152" height="10.5206" fill="white"/>
<rect x="248.922" y="1184.45" width="10.5152" height="10.5206" fill="white"/>
<rect x="248.922" y="1184.45" width="10.5152" height="10.5206" fill="white"/>
<rect x="248.922" y="1184.45" width="10.5152" height="10.5206" fill="white"/>
<rect x="248.922" y="1184.45" width="10.5152" height="10.5206" fill="white"/>
<rect x="248.922" y="1184.45" width="10.5152" height="10.5206" fill="white"/>
<rect x="248.922" y="1184.45" width="10.5152" height="10.5206" fill="white"/>
<rect x="248.922" y="1184.45" width="10.5152" height="10.5206" fill="white"/>
<rect x="248.922" y="1184.45" width="10.5152" height="10.5206" fill="white"/>
<rect x="248.922" y="1184.45" width="10.5152" height="10.5206" fill="white"/>
<rect x="248.922" y="1184.45" width="10.5152" height="10.5206" fill="white"/>
<rect x="248.922" y="1184.45" width="10.5152" height="10.5206" fill="white"/>
<rect x="248.922" y="1184.45" width="10.5152" height="10.5206" fill="white"/>
<rect x="248.922" y="1086.26" width="10.5152" height="8.76713" fill="white"/>
<rect x="248.922" y="1086.26" width="10.5152" height="8.76713" fill="white"/>
<rect x="248.922" y="1086.26" width="10.5152" height="8.76713" fill="white"/>
<rect x="248.922" y="1086.26" width="10.5152" height="8.76713" fill="white"/>
<rect x="248.922" y="1086.26" width="10.5152" height="8.76713" fill="white"/>
<rect x="248.922" y="1086.26" width="10.5152" height="8.76713" fill="white"/>
<rect x="248.922" y="1086.26" width="10.5152" height="8.76713" fill="white"/>
<rect x="248.922" y="1086.26" width="10.5152" height="8.76713" fill="white"/>
<rect x="248.922" y="1086.26" width="10.5152" height="8.76713" fill="white"/>
<rect x="248.922" y="1086.26" width="10.5152" height="8.76713" fill="white"/>
<rect x="248.922" y="1086.26" width="10.5152" height="8.76713" fill="white"/>
<rect x="248.922" y="1086.26" width="10.5152" height="8.76713" fill="white"/>
<rect x="248.922" y="1086.26" width="10.5152" height="8.76713" fill="white"/>
<rect x="248.922" y="1086.26" width="10.5152" height="8.76713" fill="white"/>
<rect x="248.922" y="1086.26" width="10.5152" height="8.76713" fill="white"/>
<rect x="248.922" y="1086.26" width="10.5152" height="8.76713" fill="white"/>
<rect x="248.922" y="1086.26" width="10.5152" height="8.76713" fill="white"/>
<rect x="248.922" y="1086.26" width="10.5152" height="8.76713" fill="white"/>
<rect x="248.922" y="1086.26" width="10.5152" height="8.76713" fill="white"/>
<rect x="248.922" y="1086.26" width="10.5152" height="8.76713" fill="white"/>
<rect x="248.922" y="1086.26" width="10.5152" height="8.76713" fill="white"/>
<rect x="248.922" y="1086.26" width="10.5152" height="8.76713" fill="white"/>
<rect x="248.922" y="1086.26" width="10.5152" height="8.76713" fill="white"/>
<rect x="248.922" y="1086.26" width="10.5152" height="8.76713" fill="white"/>
<rect x="248.922" y="1086.26" width="10.5152" height="8.76713" fill="white"/>
<rect x="248.922" y="1086.26" width="10.5152" height="8.76713" fill="white"/>
<rect x="248.922" y="1086.26" width="10.5152" height="8.76713" fill="white"/>
<rect x="248.922" y="1086.26" width="10.5152" height="8.76713" fill="white"/>
<rect x="248.922" y="986.314" width="10.5152" height="10.5206" fill="white"/>
<rect x="248.922" y="986.314" width="10.5152" height="10.5206" fill="white"/>
<rect x="248.922" y="986.314" width="10.5152" height="10.5206" fill="white"/>
<rect x="248.922" y="986.314" width="10.5152" height="10.5206" fill="white"/>
<rect x="248.922" y="986.314" width="10.5152" height="10.5206" fill="white"/>
<rect x="248.922" y="986.314" width="10.5152" height="10.5206" fill="white"/>
<rect x="248.922" y="986.314" width="10.5152" height="10.5206" fill="white"/>
<rect x="248.922" y="986.314" width="10.5152" height="10.5206" fill="white"/>
<rect x="248.922" y="986.314" width="10.5152" height="10.5206" fill="white"/>
<rect x="248.922" y="986.314" width="10.5152" height="10.5206" fill="white"/>
<rect x="248.922" y="986.314" width="10.5152" height="10.5206" fill="white"/>
<rect x="248.922" y="986.314" width="10.5152" height="10.5206" fill="white"/>
<rect x="248.922" y="986.314" width="10.5152" height="10.5206" fill="white"/>
<rect x="248.922" y="986.314" width="10.5152" height="10.5206" fill="white"/>
<rect x="248.922" y="986.314" width="10.5152" height="10.5206" fill="white"/>
<rect x="248.922" y="986.314" width="10.5152" height="10.5206" fill="white"/>
<rect x="248.922" y="986.314" width="10.5152" height="10.5206" fill="white"/>
<rect x="248.922" y="986.314" width="10.5152" height="10.5206" fill="white"/>
<rect x="248.922" y="986.314" width="10.5152" height="10.5206" fill="white"/>
<rect x="248.922" y="986.314" width="10.5152" height="10.5206" fill="white"/>
<rect x="248.922" y="986.314" width="10.5152" height="10.5206" fill="white"/>
<rect x="248.922" y="986.314" width="10.5152" height="10.5206" fill="white"/>
<rect x="248.922" y="986.314" width="10.5152" height="10.5206" fill="white"/>
<rect x="248.922" y="986.314" width="10.5152" height="10.5206" fill="white"/>
<rect x="248.922" y="986.314" width="10.5152" height="10.5206" fill="white"/>
<rect x="248.922" y="986.314" width="10.5152" height="10.5206" fill="white"/>
<rect x="248.922" y="986.314" width="10.5152" height="10.5206" fill="white"/>
<rect x="248.922" y="986.314" width="10.5152" height="10.5206" fill="white"/>
<rect x="248.922" y="877.603" width="10.5152" height="10.5206" fill="white"/>
<rect x="248.922" y="877.603" width="10.5152" height="10.5206" fill="white"/>
<rect x="248.922" y="877.603" width="10.5152" height="10.5206" fill="white"/>
<rect x="248.922" y="877.603" width="10.5152" height="10.5206" fill="white"/>
<rect x="248.922" y="877.603" width="10.5152" height="10.5206" fill="white"/>
<rect x="248.922" y="877.603" width="10.5152" height="10.5206" fill="white"/>
<rect x="248.922" y="877.603" width="10.5152" height="10.5206" fill="white"/>
<rect x="248.922" y="877.603" width="10.5152" height="10.5206" fill="white"/>
<rect x="248.922" y="877.603" width="10.5152" height="10.5206" fill="white"/>
<rect x="248.922" y="877.603" width="10.5152" height="10.5206" fill="white"/>
<rect x="248.922" y="877.603" width="10.5152" height="10.5206" fill="white"/>
<rect x="248.922" y="877.603" width="10.5152" height="10.5206" fill="white"/>
<rect x="248.922" y="877.603" width="10.5152" height="10.5206" fill="white"/>
<rect x="248.922" y="877.603" width="10.5152" height="10.5206" fill="white"/>
<rect x="248.922" y="877.603" width="10.5152" height="10.5206" fill="white"/>
<rect x="248.922" y="877.603" width="10.5152" height="10.5206" fill="white"/>
<rect x="248.922" y="877.603" width="10.5152" height="10.5206" fill="white"/>
<rect x="248.922" y="877.603" width="10.5152" height="10.5206" fill="white"/>
<rect x="248.922" y="877.603" width="10.5152" height="10.5206" fill="white"/>
<rect x="248.922" y="877.603" width="10.5152" height="10.5206" fill="white"/>
<rect x="248.922" y="877.603" width="10.5152" height="10.5206" fill="white"/>
<rect x="248.922" y="877.603" width="10.5152" height="10.5206" fill="white"/>
<rect x="248.922" y="877.603" width="10.5152" height="10.5206" fill="white"/>
<rect x="248.922" y="877.603" width="10.5152" height="10.5206" fill="white"/>
<rect x="248.922" y="877.603" width="10.5152" height="10.5206" fill="white"/>
<rect x="248.922" y="877.603" width="10.5152" height="10.5206" fill="white"/>
<rect x="248.922" y="877.603" width="10.5152" height="10.5206" fill="white"/>
<rect x="248.922" y="877.603" width="10.5152" height="10.5206" fill="white"/>
<rect x="357.582" y="986.314" width="10.5152" height="10.5206" fill="white"/>
<rect x="357.582" y="986.314" width="10.5152" height="10.5206" fill="white"/>
<rect x="357.582" y="986.314" width="10.5152" height="10.5206" fill="white"/>
<rect x="357.582" y="986.314" width="10.5152" height="10.5206" fill="white"/>
<rect x="357.582" y="986.314" width="10.5152" height="10.5206" fill="white"/>
<rect x="357.582" y="986.314" width="10.5152" height="10.5206" fill="white"/>
<rect x="357.582" y="986.314" width="10.5152" height="10.5206" fill="white"/>
<rect x="357.582" y="986.314" width="10.5152" height="10.5206" fill="white"/>
<rect x="357.582" y="986.314" width="10.5152" height="10.5206" fill="white"/>
<rect x="357.582" y="986.314" width="10.5152" height="10.5206" fill="white"/>
<rect x="357.582" y="986.314" width="10.5152" height="10.5206" fill="white"/>
<rect x="357.582" y="986.314" width="10.5152" height="10.5206" fill="white"/>
<rect x="357.582" y="986.314" width="10.5152" height="10.5206" fill="white"/>
<rect x="357.582" y="986.314" width="10.5152" height="10.5206" fill="white"/>
<rect x="357.582" y="986.314" width="10.5152" height="10.5206" fill="white"/>
<rect x="357.582" y="986.314" width="10.5152" height="10.5206" fill="white"/>
<rect x="357.582" y="986.314" width="10.5152" height="10.5206" fill="white"/>
<rect x="357.582" y="986.314" width="10.5152" height="10.5206" fill="white"/>
<rect x="357.582" y="986.314" width="10.5152" height="10.5206" fill="white"/>
<rect x="357.582" y="986.314" width="10.5152" height="10.5206" fill="white"/>
<rect x="357.582" y="986.314" width="10.5152" height="10.5206" fill="white"/>
<rect x="357.582" y="986.314" width="10.5152" height="10.5206" fill="white"/>
<rect x="357.582" y="986.314" width="10.5152" height="10.5206" fill="white"/>
<rect x="357.582" y="986.314" width="10.5152" height="10.5206" fill="white"/>
<rect x="357.582" y="986.314" width="10.5152" height="10.5206" fill="white"/>
<rect x="357.582" y="986.314" width="10.5152" height="10.5206" fill="white"/>
<rect x="357.582" y="986.314" width="10.5152" height="10.5206" fill="white"/>
<rect x="357.582" y="986.314" width="10.5152" height="10.5206" fill="white"/>
<rect x="357.582" y="1086.26" width="10.5152" height="8.76713" fill="white"/>
<rect x="357.582" y="1086.26" width="10.5152" height="8.76713" fill="white"/>
<rect x="357.582" y="1086.26" width="10.5152" height="8.76713" fill="white"/>
<rect x="357.582" y="1086.26" width="10.5152" height="8.76713" fill="white"/>
<rect x="357.582" y="1086.26" width="10.5152" height="8.76713" fill="white"/>
<rect x="357.582" y="1086.26" width="10.5152" height="8.76713" fill="white"/>
<rect x="357.582" y="1086.26" width="10.5152" height="8.76713" fill="white"/>
<rect x="357.582" y="1086.26" width="10.5152" height="8.76713" fill="white"/>
<rect x="357.582" y="1086.26" width="10.5152" height="8.76713" fill="white"/>
<rect x="357.582" y="1086.26" width="10.5152" height="8.76713" fill="white"/>
<rect x="357.582" y="1086.26" width="10.5152" height="8.76713" fill="white"/>
<rect x="357.582" y="1086.26" width="10.5152" height="8.76713" fill="white"/>
<rect x="357.582" y="1086.26" width="10.5152" height="8.76713" fill="white"/>
<rect x="357.582" y="1086.26" width="10.5152" height="8.76713" fill="white"/>
<rect x="357.582" y="1086.26" width="10.5152" height="8.76713" fill="white"/>
<rect x="357.582" y="1086.26" width="10.5152" height="8.76713" fill="white"/>
<rect x="357.582" y="1086.26" width="10.5152" height="8.76713" fill="white"/>
<rect x="357.582" y="1086.26" width="10.5152" height="8.76713" fill="white"/>
<rect x="357.582" y="1086.26" width="10.5152" height="8.76713" fill="white"/>
<rect x="357.582" y="1086.26" width="10.5152" height="8.76713" fill="white"/>
<rect x="357.582" y="1086.26" width="10.5152" height="8.76713" fill="white"/>
<rect x="357.582" y="1086.26" width="10.5152" height="8.76713" fill="white"/>
<rect x="357.582" y="1086.26" width="10.5152" height="8.76713" fill="white"/>
<rect x="357.582" y="1086.26" width="10.5152" height="8.76713" fill="white"/>
<rect x="357.582" y="1086.26" width="10.5152" height="8.76713" fill="white"/>
<rect x="357.582" y="1086.26" width="10.5152" height="8.76713" fill="white"/>
<rect x="357.582" y="1086.26" width="10.5152" height="8.76713" fill="white"/>
<rect x="357.582" y="1086.26" width="10.5152" height="8.76713" fill="white"/>
<rect x="357.582" y="1184.45" width="10.5152" height="10.5206" fill="white"/>
<rect x="357.582" y="1184.45" width="10.5152" height="10.5206" fill="white"/>
<rect x="357.582" y="1184.45" width="10.5152" height="10.5206" fill="white"/>
<rect x="357.582" y="1184.45" width="10.5152" height="10.5206" fill="white"/>
<rect x="357.582" y="1184.45" width="10.5152" height="10.5206" fill="white"/>
<rect x="357.582" y="1184.45" width="10.5152" height="10.5206" fill="white"/>
<rect x="357.582" y="1184.45" width="10.5152" height="10.5206" fill="white"/>
<rect x="357.582" y="1184.45" width="10.5152" height="10.5206" fill="white"/>
<rect x="357.582" y="1184.45" width="10.5152" height="10.5206" fill="white"/>
<rect x="357.582" y="1184.45" width="10.5152" height="10.5206" fill="white"/>
<rect x="357.582" y="1184.45" width="10.5152" height="10.5206" fill="white"/>
<rect x="357.582" y="1184.45" width="10.5152" height="10.5206" fill="white"/>
<rect x="357.582" y="1184.45" width="10.5152" height="10.5206" fill="white"/>
<rect x="357.582" y="1184.45" width="10.5152" height="10.5206" fill="white"/>
<rect x="357.582" y="1184.45" width="10.5152" height="10.5206" fill="white"/>
<rect x="357.582" y="1184.45" width="10.5152" height="10.5206" fill="white"/>
<rect x="357.582" y="1184.45" width="10.5152" height="10.5206" fill="white"/>
<rect x="357.582" y="1184.45" width="10.5152" height="10.5206" fill="white"/>
<rect x="357.582" y="1184.45" width="10.5152" height="10.5206" fill="white"/>
<rect x="357.582" y="1184.45" width="10.5152" height="10.5206" fill="white"/>
<rect x="357.582" y="1184.45" width="10.5152" height="10.5206" fill="white"/>
<rect x="357.582" y="1184.45" width="10.5152" height="10.5206" fill="white"/>
<rect x="357.582" y="1184.45" width="10.5152" height="10.5206" fill="white"/>
<rect x="357.582" y="1184.45" width="10.5152" height="10.5206" fill="white"/>
<rect x="357.582" y="1184.45" width="10.5152" height="10.5206" fill="white"/>
<rect x="357.582" y="1184.45" width="10.5152" height="10.5206" fill="white"/>
<rect x="357.582" y="1184.45" width="10.5152" height="10.5206" fill="white"/>
<rect x="357.582" y="1184.45" width="10.5152" height="10.5206" fill="white"/>
<rect x="352.324" y="1280.89" width="21.0303" height="21.0411" fill="white"/>
<rect x="352.324" y="1280.89" width="21.0303" height="21.0411" fill="white"/>
<rect x="352.324" y="1280.89" width="21.0303" height="21.0411" fill="white"/>
<rect x="352.324" y="1280.89" width="21.0303" height="21.0411" fill="white"/>
<rect x="352.324" y="1280.89" width="21.0303" height="21.0411" fill="white"/>
<rect x="352.324" y="1280.89" width="21.0303" height="21.0411" fill="white"/>
<rect x="352.324" y="1280.89" width="21.0303" height="21.0411" fill="white"/>
<rect x="352.324" y="1280.89" width="21.0303" height="21.0411" fill="white"/>
<rect x="352.324" y="1280.89" width="21.0303" height="21.0411" fill="white"/>
<rect x="352.324" y="1280.89" width="21.0303" height="21.0411" fill="white"/>
<rect x="352.324" y="1280.89" width="21.0303" height="21.0411" fill="white"/>
<rect x="352.324" y="1280.89" width="21.0303" height="21.0411" fill="white"/>
<rect x="352.324" y="1280.89" width="21.0303" height="21.0411" fill="white"/>
<rect x="352.324" y="1280.89" width="21.0303" height="21.0411" fill="white"/>
<rect x="352.324" y="1280.89" width="21.0303" height="21.0411" fill="white"/>
<rect x="352.324" y="1280.89" width="21.0303" height="21.0411" fill="white"/>
<rect x="352.324" y="1280.89" width="21.0303" height="21.0411" fill="white"/>
<rect x="352.324" y="1280.89" width="21.0303" height="21.0411" fill="white"/>
<rect x="352.324" y="1280.89" width="21.0303" height="21.0411" fill="white"/>
<rect x="352.324" y="1280.89" width="21.0303" height="21.0411" fill="white"/>
<rect x="352.324" y="1280.89" width="21.0303" height="21.0411" fill="white"/>
<rect x="352.324" y="1280.89" width="21.0303" height="21.0411" fill="white"/>
<rect x="352.324" y="1280.89" width="21.0303" height="21.0411" fill="white"/>
<rect x="352.324" y="1280.89" width="21.0303" height="21.0411" fill="white"/>
<rect x="352.324" y="1280.89" width="21.0303" height="21.0411" fill="white"/>
<rect x="352.324" y="1280.89" width="21.0303" height="21.0411" fill="white"/>
<rect x="352.324" y="1280.89" width="21.0303" height="21.0411" fill="white"/>
<rect x="352.324" y="1280.89" width="21.0303" height="21.0411" fill="white"/>
<rect x="357.582" y="877.603" width="10.5152" height="10.5206" fill="white"/>
<rect x="357.582" y="877.603" width="10.5152" height="10.5206" fill="white"/>
<rect x="357.582" y="877.603" width="10.5152" height="10.5206" fill="white"/>
<rect x="357.582" y="877.603" width="10.5152" height="10.5206" fill="white"/>
<rect x="357.582" y="877.603" width="10.5152" height="10.5206" fill="white"/>
<rect x="357.582" y="877.603" width="10.5152" height="10.5206" fill="white"/>
<rect x="357.582" y="877.603" width="10.5152" height="10.5206" fill="white"/>
<rect x="357.582" y="877.603" width="10.5152" height="10.5206" fill="white"/>
<rect x="357.582" y="877.603" width="10.5152" height="10.5206" fill="white"/>
<rect x="357.582" y="877.603" width="10.5152" height="10.5206" fill="white"/>
<rect x="357.582" y="877.603" width="10.5152" height="10.5206" fill="white"/>
<rect x="357.582" y="877.603" width="10.5152" height="10.5206" fill="white"/>
<rect x="357.582" y="877.603" width="10.5152" height="10.5206" fill="white"/>
<rect x="357.582" y="877.603" width="10.5152" height="10.5206" fill="white"/>
<rect x="357.582" y="877.603" width="10.5152" height="10.5206" fill="white"/>
<rect x="357.582" y="877.603" width="10.5152" height="10.5206" fill="white"/>
<rect x="357.582" y="877.603" width="10.5152" height="10.5206" fill="white"/>
<rect x="357.582" y="877.603" width="10.5152" height="10.5206" fill="white"/>
<rect x="357.582" y="877.603" width="10.5152" height="10.5206" fill="white"/>
<rect x="357.582" y="877.603" width="10.5152" height="10.5206" fill="white"/>
<rect x="357.582" y="877.603" width="10.5152" height="10.5206" fill="white"/>
<rect x="357.582" y="877.603" width="10.5152" height="10.5206" fill="white"/>
<rect x="357.582" y="877.603" width="10.5152" height="10.5206" fill="white"/>
<rect x="357.582" y="877.603" width="10.5152" height="10.5206" fill="white"/>
<rect x="357.582" y="877.603" width="10.5152" height="10.5206" fill="white"/>
<rect x="357.582" y="877.603" width="10.5152" height="10.5206" fill="white"/>
<rect x="357.582" y="877.603" width="10.5152" height="10.5206" fill="white"/>
<rect x="357.582" y="877.603" width="10.5152" height="10.5206" fill="white"/>
<rect x="248.922" y="1384.34" width="10.5152" height="10.5206" fill="white"/>
<rect x="248.922" y="1384.34" width="10.5152" height="10.5206" fill="white"/>
<rect x="248.922" y="1384.34" width="10.5152" height="10.5206" fill="white"/>
<rect x="248.922" y="1384.34" width="10.5152" height="10.5206" fill="white"/>
<rect x="248.922" y="1384.34" width="10.5152" height="10.5206" fill="white"/>
<rect x="248.922" y="1384.34" width="10.5152" height="10.5206" fill="white"/>
<rect x="248.922" y="1384.34" width="10.5152" height="10.5206" fill="white"/>
<rect x="248.922" y="1384.34" width="10.5152" height="10.5206" fill="white"/>
<rect x="248.922" y="1384.34" width="10.5152" height="10.5206" fill="white"/>
<rect x="248.922" y="1384.34" width="10.5152" height="10.5206" fill="white"/>
<rect x="248.922" y="1384.34" width="10.5152" height="10.5206" fill="white"/>
<rect x="248.922" y="1384.34" width="10.5152" height="10.5206" fill="white"/>
<rect x="248.922" y="1384.34" width="10.5152" height="10.5206" fill="white"/>
<rect x="248.922" y="1384.34" width="10.5152" height="10.5206" fill="white"/>
<rect x="248.922" y="1384.34" width="10.5152" height="10.5206" fill="white"/>
<rect x="248.922" y="1384.34" width="10.5152" height="10.5206" fill="white"/>
<rect x="248.922" y="1384.34" width="10.5152" height="10.5206" fill="white"/>
<rect x="248.922" y="1384.34" width="10.5152" height="10.5206" fill="white"/>
<rect x="248.922" y="1384.34" width="10.5152" height="10.5206" fill="white"/>
<rect x="248.922" y="1384.34" width="10.5152" height="10.5206" fill="white"/>
<rect x="248.922" y="1384.34" width="10.5152" height="10.5206" fill="white"/>
<rect x="248.922" y="1384.34" width="10.5152" height="10.5206" fill="white"/>
<rect x="248.922" y="1384.34" width="10.5152" height="10.5206" fill="white"/>
<rect x="248.922" y="1384.34" width="10.5152" height="10.5206" fill="white"/>
<rect x="248.922" y="1384.34" width="10.5152" height="10.5206" fill="white"/>
<rect x="248.922" y="1384.34" width="10.5152" height="10.5206" fill="white"/>
<rect x="248.922" y="1384.34" width="10.5152" height="10.5206" fill="white"/>
<rect x="248.922" y="1384.34" width="10.5152" height="10.5206" fill="white"/>
<rect x="142.02" y="1284.4" width="10.5152" height="10.5206" fill="white"/>
<rect x="142.02" y="1284.4" width="10.5152" height="10.5206" fill="white"/>
<rect x="142.02" y="1284.4" width="10.5152" height="10.5206" fill="white"/>
<rect x="142.02" y="1284.4" width="10.5152" height="10.5206" fill="white"/>
<rect x="142.02" y="1284.4" width="10.5152" height="10.5206" fill="white"/>
<rect x="142.02" y="1284.4" width="10.5152" height="10.5206" fill="white"/>
<rect x="142.02" y="1284.4" width="10.5152" height="10.5206" fill="white"/>
<rect x="142.02" y="1284.4" width="10.5152" height="10.5206" fill="white"/>
<rect x="142.02" y="1284.4" width="10.5152" height="10.5206" fill="white"/>
<rect x="142.02" y="1284.4" width="10.5152" height="10.5206" fill="white"/>
<rect x="142.02" y="1284.4" width="10.5152" height="10.5206" fill="white"/>
<rect x="142.02" y="1284.4" width="10.5152" height="10.5206" fill="white"/>
<rect x="142.02" y="1284.4" width="10.5152" height="10.5206" fill="white"/>
<rect x="142.02" y="1284.4" width="10.5152" height="10.5206" fill="white"/>
<rect x="142.02" y="1284.4" width="10.5152" height="10.5206" fill="white"/>
<rect x="142.02" y="1284.4" width="10.5152" height="10.5206" fill="white"/>
<rect x="142.02" y="1284.4" width="10.5152" height="10.5206" fill="white"/>
<rect x="142.02" y="1284.4" width="10.5152" height="10.5206" fill="white"/>
<rect x="142.02" y="1284.4" width="10.5152" height="10.5206" fill="white"/>
<rect x="142.02" y="1284.4" width="10.5152" height="10.5206" fill="white"/>
<rect x="142.02" y="1284.4" width="10.5152" height="10.5206" fill="white"/>
<rect x="142.02" y="1284.4" width="10.5152" height="10.5206" fill="white"/>
<rect x="142.02" y="1284.4" width="10.5152" height="10.5206" fill="white"/>
<rect x="142.02" y="1284.4" width="10.5152" height="10.5206" fill="white"/>
<rect x="142.02" y="1284.4" width="10.5152" height="10.5206" fill="white"/>
<rect x="142.02" y="1284.4" width="10.5152" height="10.5206" fill="white"/>
<rect x="142.02" y="1284.4" width="10.5152" height="10.5206" fill="white"/>
<rect x="142.02" y="1284.4" width="10.5152" height="10.5206" fill="white"/>
<rect x="142.02" y="1187.96" width="10.5152" height="10.5206" fill="white"/>
<rect x="142.02" y="1187.96" width="10.5152" height="10.5206" fill="white"/>
<rect x="142.02" y="1187.96" width="10.5152" height="10.5206" fill="white"/>
<rect x="142.02" y="1187.96" width="10.5152" height="10.5206" fill="white"/>
<rect x="142.02" y="1187.96" width="10.5152" height="10.5206" fill="white"/>
<rect x="142.02" y="1187.96" width="10.5152" height="10.5206" fill="white"/>
<rect x="142.02" y="1187.96" width="10.5152" height="10.5206" fill="white"/>
<rect x="142.02" y="1187.96" width="10.5152" height="10.5206" fill="white"/>
<rect x="142.02" y="1187.96" width="10.5152" height="10.5206" fill="white"/>
<rect x="142.02" y="1187.96" width="10.5152" height="10.5206" fill="white"/>
<rect x="142.02" y="1187.96" width="10.5152" height="10.5206" fill="white"/>
<rect x="142.02" y="1187.96" width="10.5152" height="10.5206" fill="white"/>
<rect x="142.02" y="1187.96" width="10.5152" height="10.5206" fill="white"/>
<rect x="142.02" y="1187.96" width="10.5152" height="10.5206" fill="white"/>
<rect x="142.02" y="1187.96" width="10.5152" height="10.5206" fill="white"/>
<rect x="142.02" y="1187.96" width="10.5152" height="10.5206" fill="white"/>
<rect x="142.02" y="1187.96" width="10.5152" height="10.5206" fill="white"/>
<rect x="142.02" y="1187.96" width="10.5152" height="10.5206" fill="white"/>
<rect x="142.02" y="1187.96" width="10.5152" height="10.5206" fill="white"/>
<rect x="142.02" y="1187.96" width="10.5152" height="10.5206" fill="white"/>
<rect x="142.02" y="1187.96" width="10.5152" height="10.5206" fill="white"/>
<rect x="142.02" y="1187.96" width="10.5152" height="10.5206" fill="white"/>
<rect x="142.02" y="1187.96" width="10.5152" height="10.5206" fill="white"/>
<rect x="142.02" y="1187.96" width="10.5152" height="10.5206" fill="white"/>
<rect x="142.02" y="1187.96" width="10.5152" height="10.5206" fill="white"/>
<rect x="142.02" y="1187.96" width="10.5152" height="10.5206" fill="white"/>
<rect x="142.02" y="1187.96" width="10.5152" height="10.5206" fill="white"/>
<rect x="142.02" y="1187.96" width="10.5152" height="10.5206" fill="white"/>
<rect x="357.582" y="1384.34" width="10.5152" height="10.5206" fill="white"/>
<rect x="357.582" y="1384.34" width="10.5152" height="10.5206" fill="white"/>
<rect x="357.582" y="1384.34" width="10.5152" height="10.5206" fill="white"/>
<rect x="357.582" y="1384.34" width="10.5152" height="10.5206" fill="white"/>
<rect x="357.582" y="1384.34" width="10.5152" height="10.5206" fill="white"/>
<rect x="357.582" y="1384.34" width="10.5152" height="10.5206" fill="white"/>
<rect x="357.582" y="1384.34" width="10.5152" height="10.5206" fill="white"/>
<rect x="357.582" y="1384.34" width="10.5152" height="10.5206" fill="white"/>
<rect x="357.582" y="1384.34" width="10.5152" height="10.5206" fill="white"/>
<rect x="357.582" y="1384.34" width="10.5152" height="10.5206" fill="white"/>
<rect x="357.582" y="1384.34" width="10.5152" height="10.5206" fill="white"/>
<rect x="357.582" y="1384.34" width="10.5152" height="10.5206" fill="white"/>
<rect x="357.582" y="1384.34" width="10.5152" height="10.5206" fill="white"/>
<rect x="357.582" y="1384.34" width="10.5152" height="10.5206" fill="white"/>
<rect x="357.582" y="1384.34" width="10.5152" height="10.5206" fill="white"/>
<rect x="357.582" y="1384.34" width="10.5152" height="10.5206" fill="white"/>
<rect x="357.582" y="1384.34" width="10.5152" height="10.5206" fill="white"/>
<rect x="357.582" y="1384.34" width="10.5152" height="10.5206" fill="white"/>
<rect x="357.582" y="1384.34" width="10.5152" height="10.5206" fill="white"/>
<rect x="357.582" y="1384.34" width="10.5152" height="10.5206" fill="white"/>
<rect x="357.582" y="1384.34" width="10.5152" height="10.5206" fill="white"/>
<rect x="357.582" y="1384.34" width="10.5152" height="10.5206" fill="white"/>
<rect x="357.582" y="1384.34" width="10.5152" height="10.5206" fill="white"/>
<rect x="357.582" y="1384.34" width="10.5152" height="10.5206" fill="white"/>
<rect x="357.582" y="1384.34" width="10.5152" height="10.5206" fill="white"/>
<rect x="357.582" y="1384.34" width="10.5152" height="10.5206" fill="white"/>
<rect x="357.582" y="1384.34" width="10.5152" height="10.5206" fill="white"/>
<rect x="357.582" y="1384.34" width="10.5152" height="10.5206" fill="white"/>
<path d="M154.289 889.876L154.289 872.342L145.526 872.342L145.526 898.644L154.289 889.876Z" fill="white"/>
</svg>
